<?xml version="1.0" encoding="utf-8" standalone="no"?>
<!DOCTYPE svg PUBLIC "-//W3C//DTD SVG 1.1//EN"
  "http://www.w3.org/Graphics/SVG/1.1/DTD/svg11.dtd">
<svg xmlns:xlink="http://www.w3.org/1999/xlink" width="576pt" height="288pt" viewBox="0 0 576 288" xmlns="http://www.w3.org/2000/svg" version="1.1">
 <metadata>
  <rdf:RDF xmlns:dc="http://purl.org/dc/elements/1.1/" xmlns:cc="http://creativecommons.org/ns#" xmlns:rdf="http://www.w3.org/1999/02/22-rdf-syntax-ns#">
   <cc:Work>
    <dc:type rdf:resource="http://purl.org/dc/dcmitype/StillImage"/>
    <dc:date>2024-09-19T18:15:15.313087</dc:date>
    <dc:format>image/svg+xml</dc:format>
    <dc:creator>
     <cc:Agent>
      <dc:title>Matplotlib v3.9.2, https://matplotlib.org/</dc:title>
     </cc:Agent>
    </dc:creator>
   </cc:Work>
  </rdf:RDF>
 </metadata>
 <defs>
  <style type="text/css">*{stroke-linejoin: round; stroke-linecap: butt}</style>
 </defs>
 <g id="figure_1">
  <g id="patch_1">
   <path d="M 0 288 
L 576 288 
L 576 0 
L 0 0 
z
" style="fill: #ffffff"/>
  </g>
  <g id="axes_1">
   <g id="patch_2">
    <path d="M 54.66 248.82 
L 565.2 248.82 
L 565.2 10.8 
L 54.66 10.8 
z
" style="fill: #eeeeee"/>
   </g>
   <g id="matplotlib.axis_1">
    <g id="xtick_1">
     <g id="line2d_1">
      <path d="M 54.66 248.82 
L 54.66 10.8 
" clip-path="url(#p9e220cbb51)" style="fill: none; stroke-dasharray: 1.85,0.8; stroke-dashoffset: 0; stroke: #b2b2b2; stroke-width: 0.5"/>
     </g>
     <g id="line2d_2">
      <defs>
       <path id="m557466ef91" d="M 0 0 
L 0 -3.5 
" style="stroke: #000000; stroke-width: 0.8"/>
      </defs>
      <g>
       <use xlink:href="#m557466ef91" x="54.66" y="248.82" style="stroke: #000000; stroke-width: 0.8"/>
      </g>
     </g>
     <g id="text_1">
      <!-- 0 -->
      <g transform="translate(51.47875 259.918437) scale(0.1 -0.1)">
       <defs>
        <path id="DejaVuSans-30" d="M 2034 4250 
Q 1547 4250 1301 3770 
Q 1056 3291 1056 2328 
Q 1056 1369 1301 889 
Q 1547 409 2034 409 
Q 2525 409 2770 889 
Q 3016 1369 3016 2328 
Q 3016 3291 2770 3770 
Q 2525 4250 2034 4250 
z
M 2034 4750 
Q 2819 4750 3233 4129 
Q 3647 3509 3647 2328 
Q 3647 1150 3233 529 
Q 2819 -91 2034 -91 
Q 1250 -91 836 529 
Q 422 1150 422 2328 
Q 422 3509 836 4129 
Q 1250 4750 2034 4750 
z
" transform="scale(0.015625)"/>
       </defs>
       <use xlink:href="#DejaVuSans-30"/>
      </g>
     </g>
    </g>
    <g id="xtick_2">
     <g id="line2d_3">
      <path d="M 144.610696 248.82 
L 144.610696 10.8 
" clip-path="url(#p9e220cbb51)" style="fill: none; stroke-dasharray: 1.85,0.8; stroke-dashoffset: 0; stroke: #b2b2b2; stroke-width: 0.5"/>
     </g>
     <g id="line2d_4">
      <g>
       <use xlink:href="#m557466ef91" x="144.610696" y="248.82" style="stroke: #000000; stroke-width: 0.8"/>
      </g>
     </g>
     <g id="text_2">
      <!-- 50000 -->
      <g transform="translate(128.704446 259.918437) scale(0.1 -0.1)">
       <defs>
        <path id="DejaVuSans-35" d="M 691 4666 
L 3169 4666 
L 3169 4134 
L 1269 4134 
L 1269 2991 
Q 1406 3038 1543 3061 
Q 1681 3084 1819 3084 
Q 2600 3084 3056 2656 
Q 3513 2228 3513 1497 
Q 3513 744 3044 326 
Q 2575 -91 1722 -91 
Q 1428 -91 1123 -41 
Q 819 9 494 109 
L 494 744 
Q 775 591 1075 516 
Q 1375 441 1709 441 
Q 2250 441 2565 725 
Q 2881 1009 2881 1497 
Q 2881 1984 2565 2268 
Q 2250 2553 1709 2553 
Q 1456 2553 1204 2497 
Q 953 2441 691 2322 
L 691 4666 
z
" transform="scale(0.015625)"/>
       </defs>
       <use xlink:href="#DejaVuSans-35"/>
       <use xlink:href="#DejaVuSans-30" x="63.623047"/>
       <use xlink:href="#DejaVuSans-30" x="127.246094"/>
       <use xlink:href="#DejaVuSans-30" x="190.869141"/>
       <use xlink:href="#DejaVuSans-30" x="254.492188"/>
      </g>
     </g>
    </g>
    <g id="xtick_3">
     <g id="line2d_5">
      <path d="M 234.561391 248.82 
L 234.561391 10.8 
" clip-path="url(#p9e220cbb51)" style="fill: none; stroke-dasharray: 1.85,0.8; stroke-dashoffset: 0; stroke: #b2b2b2; stroke-width: 0.5"/>
     </g>
     <g id="line2d_6">
      <g>
       <use xlink:href="#m557466ef91" x="234.561391" y="248.82" style="stroke: #000000; stroke-width: 0.8"/>
      </g>
     </g>
     <g id="text_3">
      <!-- 100000 -->
      <g transform="translate(215.473891 259.918437) scale(0.1 -0.1)">
       <defs>
        <path id="DejaVuSans-31" d="M 794 531 
L 1825 531 
L 1825 4091 
L 703 3866 
L 703 4441 
L 1819 4666 
L 2450 4666 
L 2450 531 
L 3481 531 
L 3481 0 
L 794 0 
L 794 531 
z
" transform="scale(0.015625)"/>
       </defs>
       <use xlink:href="#DejaVuSans-31"/>
       <use xlink:href="#DejaVuSans-30" x="63.623047"/>
       <use xlink:href="#DejaVuSans-30" x="127.246094"/>
       <use xlink:href="#DejaVuSans-30" x="190.869141"/>
       <use xlink:href="#DejaVuSans-30" x="254.492188"/>
       <use xlink:href="#DejaVuSans-30" x="318.115234"/>
      </g>
     </g>
    </g>
    <g id="xtick_4">
     <g id="line2d_7">
      <path d="M 324.512087 248.82 
L 324.512087 10.8 
" clip-path="url(#p9e220cbb51)" style="fill: none; stroke-dasharray: 1.85,0.8; stroke-dashoffset: 0; stroke: #b2b2b2; stroke-width: 0.5"/>
     </g>
     <g id="line2d_8">
      <g>
       <use xlink:href="#m557466ef91" x="324.512087" y="248.82" style="stroke: #000000; stroke-width: 0.8"/>
      </g>
     </g>
     <g id="text_4">
      <!-- 150000 -->
      <g transform="translate(305.424587 259.918437) scale(0.1 -0.1)">
       <use xlink:href="#DejaVuSans-31"/>
       <use xlink:href="#DejaVuSans-35" x="63.623047"/>
       <use xlink:href="#DejaVuSans-30" x="127.246094"/>
       <use xlink:href="#DejaVuSans-30" x="190.869141"/>
       <use xlink:href="#DejaVuSans-30" x="254.492188"/>
       <use xlink:href="#DejaVuSans-30" x="318.115234"/>
      </g>
     </g>
    </g>
    <g id="xtick_5">
     <g id="line2d_9">
      <path d="M 414.462783 248.82 
L 414.462783 10.8 
" clip-path="url(#p9e220cbb51)" style="fill: none; stroke-dasharray: 1.85,0.8; stroke-dashoffset: 0; stroke: #b2b2b2; stroke-width: 0.5"/>
     </g>
     <g id="line2d_10">
      <g>
       <use xlink:href="#m557466ef91" x="414.462783" y="248.82" style="stroke: #000000; stroke-width: 0.8"/>
      </g>
     </g>
     <g id="text_5">
      <!-- 200000 -->
      <g transform="translate(395.375283 259.918437) scale(0.1 -0.1)">
       <defs>
        <path id="DejaVuSans-32" d="M 1228 531 
L 3431 531 
L 3431 0 
L 469 0 
L 469 531 
Q 828 903 1448 1529 
Q 2069 2156 2228 2338 
Q 2531 2678 2651 2914 
Q 2772 3150 2772 3378 
Q 2772 3750 2511 3984 
Q 2250 4219 1831 4219 
Q 1534 4219 1204 4116 
Q 875 4013 500 3803 
L 500 4441 
Q 881 4594 1212 4672 
Q 1544 4750 1819 4750 
Q 2544 4750 2975 4387 
Q 3406 4025 3406 3419 
Q 3406 3131 3298 2873 
Q 3191 2616 2906 2266 
Q 2828 2175 2409 1742 
Q 1991 1309 1228 531 
z
" transform="scale(0.015625)"/>
       </defs>
       <use xlink:href="#DejaVuSans-32"/>
       <use xlink:href="#DejaVuSans-30" x="63.623047"/>
       <use xlink:href="#DejaVuSans-30" x="127.246094"/>
       <use xlink:href="#DejaVuSans-30" x="190.869141"/>
       <use xlink:href="#DejaVuSans-30" x="254.492188"/>
       <use xlink:href="#DejaVuSans-30" x="318.115234"/>
      </g>
     </g>
    </g>
    <g id="xtick_6">
     <g id="line2d_11">
      <path d="M 504.413479 248.82 
L 504.413479 10.8 
" clip-path="url(#p9e220cbb51)" style="fill: none; stroke-dasharray: 1.85,0.8; stroke-dashoffset: 0; stroke: #b2b2b2; stroke-width: 0.5"/>
     </g>
     <g id="line2d_12">
      <g>
       <use xlink:href="#m557466ef91" x="504.413479" y="248.82" style="stroke: #000000; stroke-width: 0.8"/>
      </g>
     </g>
     <g id="text_6">
      <!-- 250000 -->
      <g transform="translate(485.325979 259.918437) scale(0.1 -0.1)">
       <use xlink:href="#DejaVuSans-32"/>
       <use xlink:href="#DejaVuSans-35" x="63.623047"/>
       <use xlink:href="#DejaVuSans-30" x="127.246094"/>
       <use xlink:href="#DejaVuSans-30" x="190.869141"/>
       <use xlink:href="#DejaVuSans-30" x="254.492188"/>
       <use xlink:href="#DejaVuSans-30" x="318.115234"/>
      </g>
     </g>
    </g>
    <g id="text_7">
     <!-- threads -->
     <g transform="translate(287.140312 275.11625) scale(0.12 -0.12)">
      <defs>
       <path id="DejaVuSans-74" d="M 1172 4494 
L 1172 3500 
L 2356 3500 
L 2356 3053 
L 1172 3053 
L 1172 1153 
Q 1172 725 1289 603 
Q 1406 481 1766 481 
L 2356 481 
L 2356 0 
L 1766 0 
Q 1100 0 847 248 
Q 594 497 594 1153 
L 594 3053 
L 172 3053 
L 172 3500 
L 594 3500 
L 594 4494 
L 1172 4494 
z
" transform="scale(0.015625)"/>
       <path id="DejaVuSans-68" d="M 3513 2113 
L 3513 0 
L 2938 0 
L 2938 2094 
Q 2938 2591 2744 2837 
Q 2550 3084 2163 3084 
Q 1697 3084 1428 2787 
Q 1159 2491 1159 1978 
L 1159 0 
L 581 0 
L 581 4863 
L 1159 4863 
L 1159 2956 
Q 1366 3272 1645 3428 
Q 1925 3584 2291 3584 
Q 2894 3584 3203 3211 
Q 3513 2838 3513 2113 
z
" transform="scale(0.015625)"/>
       <path id="DejaVuSans-72" d="M 2631 2963 
Q 2534 3019 2420 3045 
Q 2306 3072 2169 3072 
Q 1681 3072 1420 2755 
Q 1159 2438 1159 1844 
L 1159 0 
L 581 0 
L 581 3500 
L 1159 3500 
L 1159 2956 
Q 1341 3275 1631 3429 
Q 1922 3584 2338 3584 
Q 2397 3584 2469 3576 
Q 2541 3569 2628 3553 
L 2631 2963 
z
" transform="scale(0.015625)"/>
       <path id="DejaVuSans-65" d="M 3597 1894 
L 3597 1613 
L 953 1613 
Q 991 1019 1311 708 
Q 1631 397 2203 397 
Q 2534 397 2845 478 
Q 3156 559 3463 722 
L 3463 178 
Q 3153 47 2828 -22 
Q 2503 -91 2169 -91 
Q 1331 -91 842 396 
Q 353 884 353 1716 
Q 353 2575 817 3079 
Q 1281 3584 2069 3584 
Q 2775 3584 3186 3129 
Q 3597 2675 3597 1894 
z
M 3022 2063 
Q 3016 2534 2758 2815 
Q 2500 3097 2075 3097 
Q 1594 3097 1305 2825 
Q 1016 2553 972 2059 
L 3022 2063 
z
" transform="scale(0.015625)"/>
       <path id="DejaVuSans-61" d="M 2194 1759 
Q 1497 1759 1228 1600 
Q 959 1441 959 1056 
Q 959 750 1161 570 
Q 1363 391 1709 391 
Q 2188 391 2477 730 
Q 2766 1069 2766 1631 
L 2766 1759 
L 2194 1759 
z
M 3341 1997 
L 3341 0 
L 2766 0 
L 2766 531 
Q 2569 213 2275 61 
Q 1981 -91 1556 -91 
Q 1019 -91 701 211 
Q 384 513 384 1019 
Q 384 1609 779 1909 
Q 1175 2209 1959 2209 
L 2766 2209 
L 2766 2266 
Q 2766 2663 2505 2880 
Q 2244 3097 1772 3097 
Q 1472 3097 1187 3025 
Q 903 2953 641 2809 
L 641 3341 
Q 956 3463 1253 3523 
Q 1550 3584 1831 3584 
Q 2591 3584 2966 3190 
Q 3341 2797 3341 1997 
z
" transform="scale(0.015625)"/>
       <path id="DejaVuSans-64" d="M 2906 2969 
L 2906 4863 
L 3481 4863 
L 3481 0 
L 2906 0 
L 2906 525 
Q 2725 213 2448 61 
Q 2172 -91 1784 -91 
Q 1150 -91 751 415 
Q 353 922 353 1747 
Q 353 2572 751 3078 
Q 1150 3584 1784 3584 
Q 2172 3584 2448 3432 
Q 2725 3281 2906 2969 
z
M 947 1747 
Q 947 1113 1208 752 
Q 1469 391 1925 391 
Q 2381 391 2643 752 
Q 2906 1113 2906 1747 
Q 2906 2381 2643 2742 
Q 2381 3103 1925 3103 
Q 1469 3103 1208 2742 
Q 947 2381 947 1747 
z
" transform="scale(0.015625)"/>
       <path id="DejaVuSans-73" d="M 2834 3397 
L 2834 2853 
Q 2591 2978 2328 3040 
Q 2066 3103 1784 3103 
Q 1356 3103 1142 2972 
Q 928 2841 928 2578 
Q 928 2378 1081 2264 
Q 1234 2150 1697 2047 
L 1894 2003 
Q 2506 1872 2764 1633 
Q 3022 1394 3022 966 
Q 3022 478 2636 193 
Q 2250 -91 1575 -91 
Q 1294 -91 989 -36 
Q 684 19 347 128 
L 347 722 
Q 666 556 975 473 
Q 1284 391 1588 391 
Q 1994 391 2212 530 
Q 2431 669 2431 922 
Q 2431 1156 2273 1281 
Q 2116 1406 1581 1522 
L 1381 1569 
Q 847 1681 609 1914 
Q 372 2147 372 2553 
Q 372 3047 722 3315 
Q 1072 3584 1716 3584 
Q 2034 3584 2315 3537 
Q 2597 3491 2834 3397 
z
" transform="scale(0.015625)"/>
      </defs>
      <use xlink:href="#DejaVuSans-74"/>
      <use xlink:href="#DejaVuSans-68" x="39.208984"/>
      <use xlink:href="#DejaVuSans-72" x="102.587891"/>
      <use xlink:href="#DejaVuSans-65" x="141.451172"/>
      <use xlink:href="#DejaVuSans-61" x="202.974609"/>
      <use xlink:href="#DejaVuSans-64" x="264.253906"/>
      <use xlink:href="#DejaVuSans-73" x="327.730469"/>
     </g>
    </g>
   </g>
   <g id="matplotlib.axis_2">
    <g id="ytick_1">
     <g id="line2d_13">
      <path d="M 54.66 248.82 
L 565.2 248.82 
" clip-path="url(#p9e220cbb51)" style="fill: none; stroke-dasharray: 1.85,0.8; stroke-dashoffset: 0; stroke: #b2b2b2; stroke-width: 0.5"/>
     </g>
     <g id="line2d_14">
      <defs>
       <path id="med04083c65" d="M 0 0 
L 3.5 0 
" style="stroke: #000000; stroke-width: 0.8"/>
      </defs>
      <g>
       <use xlink:href="#med04083c65" x="54.66" y="248.82" style="stroke: #000000; stroke-width: 0.8"/>
      </g>
     </g>
     <g id="text_8">
      <!-- 0 -->
      <g transform="translate(44.7975 252.619219) scale(0.1 -0.1)">
       <use xlink:href="#DejaVuSans-30"/>
      </g>
     </g>
    </g>
    <g id="ytick_2">
     <g id="line2d_15">
      <path d="M 54.66 213.204259 
L 565.2 213.204259 
" clip-path="url(#p9e220cbb51)" style="fill: none; stroke-dasharray: 1.85,0.8; stroke-dashoffset: 0; stroke: #b2b2b2; stroke-width: 0.5"/>
     </g>
     <g id="line2d_16">
      <g>
       <use xlink:href="#med04083c65" x="54.66" y="213.204259" style="stroke: #000000; stroke-width: 0.8"/>
      </g>
     </g>
     <g id="text_9">
      <!-- 500 -->
      <g transform="translate(32.0725 217.003477) scale(0.1 -0.1)">
       <use xlink:href="#DejaVuSans-35"/>
       <use xlink:href="#DejaVuSans-30" x="63.623047"/>
       <use xlink:href="#DejaVuSans-30" x="127.246094"/>
      </g>
     </g>
    </g>
    <g id="ytick_3">
     <g id="line2d_17">
      <path d="M 54.66 177.588517 
L 565.2 177.588517 
" clip-path="url(#p9e220cbb51)" style="fill: none; stroke-dasharray: 1.85,0.8; stroke-dashoffset: 0; stroke: #b2b2b2; stroke-width: 0.5"/>
     </g>
     <g id="line2d_18">
      <g>
       <use xlink:href="#med04083c65" x="54.66" y="177.588517" style="stroke: #000000; stroke-width: 0.8"/>
      </g>
     </g>
     <g id="text_10">
      <!-- 1000 -->
      <g transform="translate(25.71 181.387736) scale(0.1 -0.1)">
       <use xlink:href="#DejaVuSans-31"/>
       <use xlink:href="#DejaVuSans-30" x="63.623047"/>
       <use xlink:href="#DejaVuSans-30" x="127.246094"/>
       <use xlink:href="#DejaVuSans-30" x="190.869141"/>
      </g>
     </g>
    </g>
    <g id="ytick_4">
     <g id="line2d_19">
      <path d="M 54.66 141.972776 
L 565.2 141.972776 
" clip-path="url(#p9e220cbb51)" style="fill: none; stroke-dasharray: 1.85,0.8; stroke-dashoffset: 0; stroke: #b2b2b2; stroke-width: 0.5"/>
     </g>
     <g id="line2d_20">
      <g>
       <use xlink:href="#med04083c65" x="54.66" y="141.972776" style="stroke: #000000; stroke-width: 0.8"/>
      </g>
     </g>
     <g id="text_11">
      <!-- 1500 -->
      <g transform="translate(25.71 145.771994) scale(0.1 -0.1)">
       <use xlink:href="#DejaVuSans-31"/>
       <use xlink:href="#DejaVuSans-35" x="63.623047"/>
       <use xlink:href="#DejaVuSans-30" x="127.246094"/>
       <use xlink:href="#DejaVuSans-30" x="190.869141"/>
      </g>
     </g>
    </g>
    <g id="ytick_5">
     <g id="line2d_21">
      <path d="M 54.66 106.357034 
L 565.2 106.357034 
" clip-path="url(#p9e220cbb51)" style="fill: none; stroke-dasharray: 1.85,0.8; stroke-dashoffset: 0; stroke: #b2b2b2; stroke-width: 0.5"/>
     </g>
     <g id="line2d_22">
      <g>
       <use xlink:href="#med04083c65" x="54.66" y="106.357034" style="stroke: #000000; stroke-width: 0.8"/>
      </g>
     </g>
     <g id="text_12">
      <!-- 2000 -->
      <g transform="translate(25.71 110.156253) scale(0.1 -0.1)">
       <use xlink:href="#DejaVuSans-32"/>
       <use xlink:href="#DejaVuSans-30" x="63.623047"/>
       <use xlink:href="#DejaVuSans-30" x="127.246094"/>
       <use xlink:href="#DejaVuSans-30" x="190.869141"/>
      </g>
     </g>
    </g>
    <g id="ytick_6">
     <g id="line2d_23">
      <path d="M 54.66 70.741293 
L 565.2 70.741293 
" clip-path="url(#p9e220cbb51)" style="fill: none; stroke-dasharray: 1.85,0.8; stroke-dashoffset: 0; stroke: #b2b2b2; stroke-width: 0.5"/>
     </g>
     <g id="line2d_24">
      <g>
       <use xlink:href="#med04083c65" x="54.66" y="70.741293" style="stroke: #000000; stroke-width: 0.8"/>
      </g>
     </g>
     <g id="text_13">
      <!-- 2500 -->
      <g transform="translate(25.71 74.540512) scale(0.1 -0.1)">
       <use xlink:href="#DejaVuSans-32"/>
       <use xlink:href="#DejaVuSans-35" x="63.623047"/>
       <use xlink:href="#DejaVuSans-30" x="127.246094"/>
       <use xlink:href="#DejaVuSans-30" x="190.869141"/>
      </g>
     </g>
    </g>
    <g id="ytick_7">
     <g id="line2d_25">
      <path d="M 54.66 35.125551 
L 565.2 35.125551 
" clip-path="url(#p9e220cbb51)" style="fill: none; stroke-dasharray: 1.85,0.8; stroke-dashoffset: 0; stroke: #b2b2b2; stroke-width: 0.5"/>
     </g>
     <g id="line2d_26">
      <g>
       <use xlink:href="#med04083c65" x="54.66" y="35.125551" style="stroke: #000000; stroke-width: 0.8"/>
      </g>
     </g>
     <g id="text_14">
      <!-- 3000 -->
      <g transform="translate(25.71 38.92477) scale(0.1 -0.1)">
       <defs>
        <path id="DejaVuSans-33" d="M 2597 2516 
Q 3050 2419 3304 2112 
Q 3559 1806 3559 1356 
Q 3559 666 3084 287 
Q 2609 -91 1734 -91 
Q 1441 -91 1130 -33 
Q 819 25 488 141 
L 488 750 
Q 750 597 1062 519 
Q 1375 441 1716 441 
Q 2309 441 2620 675 
Q 2931 909 2931 1356 
Q 2931 1769 2642 2001 
Q 2353 2234 1838 2234 
L 1294 2234 
L 1294 2753 
L 1863 2753 
Q 2328 2753 2575 2939 
Q 2822 3125 2822 3475 
Q 2822 3834 2567 4026 
Q 2313 4219 1838 4219 
Q 1578 4219 1281 4162 
Q 984 4106 628 3988 
L 628 4550 
Q 988 4650 1302 4700 
Q 1616 4750 1894 4750 
Q 2613 4750 3031 4423 
Q 3450 4097 3450 3541 
Q 3450 3153 3228 2886 
Q 3006 2619 2597 2516 
z
" transform="scale(0.015625)"/>
       </defs>
       <use xlink:href="#DejaVuSans-33"/>
       <use xlink:href="#DejaVuSans-30" x="63.623047"/>
       <use xlink:href="#DejaVuSans-30" x="127.246094"/>
       <use xlink:href="#DejaVuSans-30" x="190.869141"/>
      </g>
     </g>
    </g>
    <g id="text_15">
     <!-- DRAM bandwidth, GB/s -->
     <g transform="translate(19.214375 198.908437) rotate(-90) scale(0.12 -0.12)">
      <defs>
       <path id="DejaVuSans-44" d="M 1259 4147 
L 1259 519 
L 2022 519 
Q 2988 519 3436 956 
Q 3884 1394 3884 2338 
Q 3884 3275 3436 3711 
Q 2988 4147 2022 4147 
L 1259 4147 
z
M 628 4666 
L 1925 4666 
Q 3281 4666 3915 4102 
Q 4550 3538 4550 2338 
Q 4550 1131 3912 565 
Q 3275 0 1925 0 
L 628 0 
L 628 4666 
z
" transform="scale(0.015625)"/>
       <path id="DejaVuSans-52" d="M 2841 2188 
Q 3044 2119 3236 1894 
Q 3428 1669 3622 1275 
L 4263 0 
L 3584 0 
L 2988 1197 
Q 2756 1666 2539 1819 
Q 2322 1972 1947 1972 
L 1259 1972 
L 1259 0 
L 628 0 
L 628 4666 
L 2053 4666 
Q 2853 4666 3247 4331 
Q 3641 3997 3641 3322 
Q 3641 2881 3436 2590 
Q 3231 2300 2841 2188 
z
M 1259 4147 
L 1259 2491 
L 2053 2491 
Q 2509 2491 2742 2702 
Q 2975 2913 2975 3322 
Q 2975 3731 2742 3939 
Q 2509 4147 2053 4147 
L 1259 4147 
z
" transform="scale(0.015625)"/>
       <path id="DejaVuSans-41" d="M 2188 4044 
L 1331 1722 
L 3047 1722 
L 2188 4044 
z
M 1831 4666 
L 2547 4666 
L 4325 0 
L 3669 0 
L 3244 1197 
L 1141 1197 
L 716 0 
L 50 0 
L 1831 4666 
z
" transform="scale(0.015625)"/>
       <path id="DejaVuSans-4d" d="M 628 4666 
L 1569 4666 
L 2759 1491 
L 3956 4666 
L 4897 4666 
L 4897 0 
L 4281 0 
L 4281 4097 
L 3078 897 
L 2444 897 
L 1241 4097 
L 1241 0 
L 628 0 
L 628 4666 
z
" transform="scale(0.015625)"/>
       <path id="DejaVuSans-20" transform="scale(0.015625)"/>
       <path id="DejaVuSans-62" d="M 3116 1747 
Q 3116 2381 2855 2742 
Q 2594 3103 2138 3103 
Q 1681 3103 1420 2742 
Q 1159 2381 1159 1747 
Q 1159 1113 1420 752 
Q 1681 391 2138 391 
Q 2594 391 2855 752 
Q 3116 1113 3116 1747 
z
M 1159 2969 
Q 1341 3281 1617 3432 
Q 1894 3584 2278 3584 
Q 2916 3584 3314 3078 
Q 3713 2572 3713 1747 
Q 3713 922 3314 415 
Q 2916 -91 2278 -91 
Q 1894 -91 1617 61 
Q 1341 213 1159 525 
L 1159 0 
L 581 0 
L 581 4863 
L 1159 4863 
L 1159 2969 
z
" transform="scale(0.015625)"/>
       <path id="DejaVuSans-6e" d="M 3513 2113 
L 3513 0 
L 2938 0 
L 2938 2094 
Q 2938 2591 2744 2837 
Q 2550 3084 2163 3084 
Q 1697 3084 1428 2787 
Q 1159 2491 1159 1978 
L 1159 0 
L 581 0 
L 581 3500 
L 1159 3500 
L 1159 2956 
Q 1366 3272 1645 3428 
Q 1925 3584 2291 3584 
Q 2894 3584 3203 3211 
Q 3513 2838 3513 2113 
z
" transform="scale(0.015625)"/>
       <path id="DejaVuSans-77" d="M 269 3500 
L 844 3500 
L 1563 769 
L 2278 3500 
L 2956 3500 
L 3675 769 
L 4391 3500 
L 4966 3500 
L 4050 0 
L 3372 0 
L 2619 2869 
L 1863 0 
L 1184 0 
L 269 3500 
z
" transform="scale(0.015625)"/>
       <path id="DejaVuSans-69" d="M 603 3500 
L 1178 3500 
L 1178 0 
L 603 0 
L 603 3500 
z
M 603 4863 
L 1178 4863 
L 1178 4134 
L 603 4134 
L 603 4863 
z
" transform="scale(0.015625)"/>
       <path id="DejaVuSans-2c" d="M 750 794 
L 1409 794 
L 1409 256 
L 897 -744 
L 494 -744 
L 750 256 
L 750 794 
z
" transform="scale(0.015625)"/>
       <path id="DejaVuSans-47" d="M 3809 666 
L 3809 1919 
L 2778 1919 
L 2778 2438 
L 4434 2438 
L 4434 434 
Q 4069 175 3628 42 
Q 3188 -91 2688 -91 
Q 1594 -91 976 548 
Q 359 1188 359 2328 
Q 359 3472 976 4111 
Q 1594 4750 2688 4750 
Q 3144 4750 3555 4637 
Q 3966 4525 4313 4306 
L 4313 3634 
Q 3963 3931 3569 4081 
Q 3175 4231 2741 4231 
Q 1884 4231 1454 3753 
Q 1025 3275 1025 2328 
Q 1025 1384 1454 906 
Q 1884 428 2741 428 
Q 3075 428 3337 486 
Q 3600 544 3809 666 
z
" transform="scale(0.015625)"/>
       <path id="DejaVuSans-42" d="M 1259 2228 
L 1259 519 
L 2272 519 
Q 2781 519 3026 730 
Q 3272 941 3272 1375 
Q 3272 1813 3026 2020 
Q 2781 2228 2272 2228 
L 1259 2228 
z
M 1259 4147 
L 1259 2741 
L 2194 2741 
Q 2656 2741 2882 2914 
Q 3109 3088 3109 3444 
Q 3109 3797 2882 3972 
Q 2656 4147 2194 4147 
L 1259 4147 
z
M 628 4666 
L 2241 4666 
Q 2963 4666 3353 4366 
Q 3744 4066 3744 3513 
Q 3744 3084 3544 2831 
Q 3344 2578 2956 2516 
Q 3422 2416 3680 2098 
Q 3938 1781 3938 1306 
Q 3938 681 3513 340 
Q 3088 0 2303 0 
L 628 0 
L 628 4666 
z
" transform="scale(0.015625)"/>
       <path id="DejaVuSans-2f" d="M 1625 4666 
L 2156 4666 
L 531 -594 
L 0 -594 
L 1625 4666 
z
" transform="scale(0.015625)"/>
      </defs>
      <use xlink:href="#DejaVuSans-44"/>
      <use xlink:href="#DejaVuSans-52" x="77.001953"/>
      <use xlink:href="#DejaVuSans-41" x="142.484375"/>
      <use xlink:href="#DejaVuSans-4d" x="210.892578"/>
      <use xlink:href="#DejaVuSans-20" x="297.171875"/>
      <use xlink:href="#DejaVuSans-62" x="328.958984"/>
      <use xlink:href="#DejaVuSans-61" x="392.435547"/>
      <use xlink:href="#DejaVuSans-6e" x="453.714844"/>
      <use xlink:href="#DejaVuSans-64" x="517.09375"/>
      <use xlink:href="#DejaVuSans-77" x="580.570312"/>
      <use xlink:href="#DejaVuSans-69" x="662.357422"/>
      <use xlink:href="#DejaVuSans-64" x="690.140625"/>
      <use xlink:href="#DejaVuSans-74" x="753.617188"/>
      <use xlink:href="#DejaVuSans-68" x="792.826172"/>
      <use xlink:href="#DejaVuSans-2c" x="856.205078"/>
      <use xlink:href="#DejaVuSans-20" x="887.992188"/>
      <use xlink:href="#DejaVuSans-47" x="919.779297"/>
      <use xlink:href="#DejaVuSans-42" x="997.269531"/>
      <use xlink:href="#DejaVuSans-2f" x="1065.873047"/>
      <use xlink:href="#DejaVuSans-73" x="1099.564453"/>
     </g>
    </g>
   </g>
   <g id="line2d_27">
    <path d="M 57.077875 246.041972 
L 59.495749 243.263944 
L 61.913624 240.842074 
L 64.331499 237.850352 
L 69.167248 233.291537 
L 74.002998 228.16287 
L 78.838747 224.743759 
L 83.674496 219.828786 
L 88.510246 217.478148 
L 93.345995 212.207018 
L 103.017494 207.861897 
L 112.688993 205.012638 
L 122.360492 203.944166 
L 132.03199 202.946925 
L 141.703489 202.448305 
L 151.374988 201.949684 
L 161.046487 202.092147 
L 170.717986 202.092147 
L 180.389484 202.020916 
L 190.060983 202.092147 
L 199.732482 202.092147 
L 209.403981 202.163379 
L 219.07548 202.661999 
L 228.746978 202.590768 
L 238.418477 202.590768 
L 248.089976 202.590768 
L 257.761475 202.519536 
L 267.432974 202.590768 
L 277.104473 202.377073 
L 286.775971 202.448305 
" clip-path="url(#p9e220cbb51)" style="fill: none; stroke: #378abd; stroke-width: 2; stroke-linecap: square"/>
   </g>
   <g id="line2d_28">
    <path d="M 58.74736 243.263944 
L 62.834719 237.850352 
L 66.922079 232.935379 
L 71.009438 227.521787 
L 79.184158 218.689083 
L 87.358877 209.642684 
L 95.533596 203.801703 
L 103.708315 197.675795 
L 111.883035 196.108703 
L 120.057754 193.829295 
L 136.407192 191.906045 
L 152.756631 193.259443 
L 169.106069 193.900527 
L 185.455508 192.760823 
L 201.804946 193.045749 
L 218.154385 193.045749 
L 234.503823 193.473138 
L 250.853261 193.330675 
L 267.2027 193.544369 
L 283.552138 193.544369 
L 299.901577 193.544369 
L 316.251015 193.544369 
L 332.600454 194.826536 
L 348.949892 194.826536 
L 365.299331 194.968999 
L 381.648769 194.897767 
L 397.998208 194.897767 
L 414.347646 194.612842 
L 430.697084 194.755305 
L 447.046523 194.826536 
" clip-path="url(#p9e220cbb51)" style="fill: none; stroke: #ffb33a; stroke-width: 2; stroke-linecap: square"/>
   </g>
   <g id="line2d_29">
    <path d="M 56.962738 246.39813 
L 59.265476 244.118722 
L 61.568213 241.910546 
L 63.870951 239.70237 
L 68.476427 235.927102 
L 73.081902 231.51075 
L 77.687378 229.017648 
L 82.292854 225.171148 
L 86.898329 223.105435 
L 91.503805 218.689083 
L 100.714756 214.272731 
L 109.925707 209.357758 
L 119.136659 205.297564 
L 128.34761 200.952444 
L 137.558561 199.385351 
L 146.769512 196.821018 
L 155.980464 195.538851 
L 165.191415 194.470379 
L 174.402366 194.04299 
L 183.613317 193.615601 
L 192.824269 193.330675 
L 202.03522 193.045749 
L 211.246171 192.760823 
L 220.457122 192.547129 
L 229.668074 192.404666 
L 238.879025 192.333434 
L 248.089976 192.262203 
L 257.300927 192.048508 
L 266.511879 191.977277 
L 275.72283 191.977277 
L 284.933781 191.906045 
L 294.144732 191.834814 
L 303.355684 191.763582 
L 312.566635 191.763582 
L 321.777586 191.692351 
L 330.988537 191.621119 
L 340.199489 191.549888 
L 349.41044 191.692351 
" clip-path="url(#p9e220cbb51)" style="fill: none; stroke: #7ec75b; stroke-width: 2; stroke-linecap: square"/>
   </g>
   <g id="line2d_30">
    <path d="M 57.768696 246.041972 
L 60.877392 243.121481 
L 63.986088 240.628379 
L 67.094784 237.707889 
L 73.312176 232.935379 
L 79.529568 227.236861 
L 85.74696 223.81775 
L 91.964353 218.54662 
L 98.181745 215.269972 
L 104.399137 207.719434 
L 116.833921 201.73599 
L 129.268705 192.61836 
L 141.703489 185.993832 
L 154.138273 176.092656 
L 166.573058 171.533841 
L 179.007842 163.840841 
L 191.442626 158.142322 
L 203.87741 150.80548 
L 216.312194 147.243905 
L 228.746978 142.328933 
L 241.181763 140.833072 
L 253.616547 136.701646 
L 266.051331 136.772877 
L 278.486115 134.422239 
L 290.920899 134.137313 
L 303.355684 131.929137 
L 315.790468 132.427757 
L 328.225252 129.649729 
L 340.660036 130.219581 
L 353.09482 128.794951 
L 365.529604 129.578498 
L 377.964389 128.866183 
L 390.399173 128.794951 
L 402.833957 127.726479 
L 415.268741 128.153868 
L 427.703525 127.29909 
L 440.13831 127.29909 
L 452.573094 125.518303 
" clip-path="url(#p9e220cbb51)" style="fill: none; stroke: #da5252; stroke-width: 2; stroke-linecap: square"/>
   </g>
   <g id="line2d_31">
    <path d="M 58.459517 244.546111 
L 62.259035 240.272222 
L 66.058552 236.425722 
L 69.85807 231.938139 
L 73.657587 228.803953 
L 77.457104 224.458833 
L 85.056139 215.768592 
L 92.655174 210.497462 
L 100.254209 202.163379 
L 107.853243 197.960721 
L 115.452278 187.988314 
L 130.650348 179.15561 
L 145.848417 168.969508 
L 161.046487 159.638183 
L 176.244556 149.167155 
L 191.442626 141.189229 
L 206.640696 132.285294 
L 221.838765 124.022442 
L 237.036835 115.545896 
L 252.234904 108.351516 
L 267.432974 101.228367 
L 282.631043 94.461377 
L 297.829113 86.839608 
L 313.027182 81.782173 
L 328.225252 75.798728 
L 343.423321 70.028978 
L 358.621391 64.544154 
L 373.819461 59.415487 
L 389.01753 54.429283 
L 404.2156 49.728005 
L 419.413669 45.097959 
L 434.611739 41.251459 
L 449.809808 37.47619 
L 465.007878 33.985848 
L 480.205947 30.851662 
L 495.404017 28.002403 
L 510.602087 25.580533 
L 525.800156 23.51482 
L 540.998226 22.018959 
" clip-path="url(#p9e220cbb51)" style="fill: none; stroke: #793b67; stroke-width: 2; stroke-linecap: square"/>
   </g>
   <g id="line2d_32">
    <path d="M 57.653559 246.255667 
L 60.647118 243.691333 
L 63.640677 241.554389 
L 66.634237 238.776361 
L 72.621355 234.716166 
L 78.608473 230.442277 
L 84.595592 226.595777 
L 90.58271 222.036962 
L 96.569828 218.974009 
L 102.556946 215.69736 
L 114.531183 206.223573 
L 126.50542 200.596286 
L 138.479656 194.399147 
L 150.453893 188.77186 
L 162.42813 183.215804 
L 174.402366 178.087138 
L 186.376603 174.454332 
L 198.350839 170.892758 
L 210.325076 167.117489 
L 222.299313 164.196998 
L 234.273549 162.131285 
L 246.247786 161.418971 
L 258.222022 159.566952 
L 270.196259 157.786165 
L 282.170496 156.788924 
L 294.144732 155.862915 
L 306.118969 154.509517 
L 318.093206 153.583507 
L 330.067442 152.799961 
L 342.041679 152.230109 
L 354.015915 151.873952 
L 365.990152 150.093165 
L 377.964389 149.87947 
L 389.938625 148.953461 
L 401.912862 150.663017 
L 413.887098 150.876711 
L 425.861335 151.945183 
L 437.835572 152.230109 
" clip-path="url(#p9e220cbb51)" style="fill: none; stroke: #10cfcc; stroke-width: 2; stroke-linecap: square"/>
   </g>
   <g id="line2d_33">
    <path d="M 56.962738 244.189954 
L 59.265476 239.631139 
L 61.568213 235.35725 
L 63.870951 233.576463 
L 68.476427 223.604055 
L 73.081902 220.897259 
L 77.687378 215.911055 
L 82.292854 215.911055 
L 86.898329 216.267212 
L 91.503805 216.267212 
L 100.714756 216.267212 
L 109.925707 216.195981 
L 119.136659 216.267212 
L 128.34761 216.267212 
L 137.558561 216.338444 
L 146.769512 216.338444 
L 155.980464 216.409675 
L 165.191415 216.409675 
L 174.402366 216.409675 
L 183.613317 216.338444 
L 192.824269 216.338444 
L 202.03522 216.338444 
" clip-path="url(#p9e220cbb51)" style="fill: none; stroke: #ffe100; stroke-width: 2; stroke-linecap: square"/>
   </g>
   <g id="patch_3">
    <path d="M 54.66 248.82 
L 54.66 10.8 
" style="fill: none; stroke: #bcbcbc; stroke-width: 0.8; stroke-linejoin: miter; stroke-linecap: square"/>
   </g>
   <g id="patch_4">
    <path d="M 565.2 248.82 
L 565.2 10.8 
" style="fill: none; stroke: #bcbcbc; stroke-width: 0.8; stroke-linejoin: miter; stroke-linecap: square"/>
   </g>
   <g id="patch_5">
    <path d="M 54.66 248.82 
L 565.2 248.82 
" style="fill: none; stroke: #bcbcbc; stroke-width: 0.8; stroke-linejoin: miter; stroke-linecap: square"/>
   </g>
   <g id="patch_6">
    <path d="M 54.66 10.8 
L 565.2 10.8 
" style="fill: none; stroke: #bcbcbc; stroke-width: 0.8; stroke-linejoin: miter; stroke-linecap: square"/>
   </g>
   <g id="legend_1">
    <g id="patch_7">
     <path d="M 61.66 121.825 
L 145.69125 121.825 
Q 147.69125 121.825 147.69125 119.825 
L 147.69125 17.8 
Q 147.69125 15.8 145.69125 15.8 
L 61.66 15.8 
Q 59.66 15.8 59.66 17.8 
L 59.66 119.825 
Q 59.66 121.825 61.66 121.825 
z
" style="fill: #eeeeee; opacity: 0.8; stroke: #cccccc; stroke-width: 0.5; stroke-linejoin: miter"/>
    </g>
    <g id="line2d_34">
     <path d="M 63.66 23.898438 
L 73.66 23.898438 
L 83.66 23.898438 
" style="fill: none; stroke: #378abd; stroke-width: 2; stroke-linecap: square"/>
    </g>
    <g id="text_16">
     <!-- A40 -->
     <g transform="translate(91.66 27.398438) scale(0.1 -0.1)">
      <defs>
       <path id="DejaVuSans-34" d="M 2419 4116 
L 825 1625 
L 2419 1625 
L 2419 4116 
z
M 2253 4666 
L 3047 4666 
L 3047 1625 
L 3713 1625 
L 3713 1100 
L 3047 1100 
L 3047 0 
L 2419 0 
L 2419 1100 
L 313 1100 
L 313 1709 
L 2253 4666 
z
" transform="scale(0.015625)"/>
      </defs>
      <use xlink:href="#DejaVuSans-41"/>
      <use xlink:href="#DejaVuSans-34" x="68.408203"/>
      <use xlink:href="#DejaVuSans-30" x="132.03125"/>
     </g>
    </g>
    <g id="line2d_35">
     <path d="M 63.66 38.576563 
L 73.66 38.576563 
L 83.66 38.576563 
" style="fill: none; stroke: #ffb33a; stroke-width: 2; stroke-linecap: square"/>
    </g>
    <g id="text_17">
     <!-- L40 -->
     <g transform="translate(91.66 42.076563) scale(0.1 -0.1)">
      <defs>
       <path id="DejaVuSans-4c" d="M 628 4666 
L 1259 4666 
L 1259 531 
L 3531 531 
L 3531 0 
L 628 0 
L 628 4666 
z
" transform="scale(0.015625)"/>
      </defs>
      <use xlink:href="#DejaVuSans-4c"/>
      <use xlink:href="#DejaVuSans-34" x="55.712891"/>
      <use xlink:href="#DejaVuSans-30" x="119.335938"/>
     </g>
    </g>
    <g id="line2d_36">
     <path d="M 63.66 53.254687 
L 73.66 53.254687 
L 83.66 53.254687 
" style="fill: none; stroke: #7ec75b; stroke-width: 2; stroke-linecap: square"/>
    </g>
    <g id="text_18">
     <!-- V100 -->
     <g transform="translate(91.66 56.754687) scale(0.1 -0.1)">
      <defs>
       <path id="DejaVuSans-56" d="M 1831 0 
L 50 4666 
L 709 4666 
L 2188 738 
L 3669 4666 
L 4325 4666 
L 2547 0 
L 1831 0 
z
" transform="scale(0.015625)"/>
      </defs>
      <use xlink:href="#DejaVuSans-56"/>
      <use xlink:href="#DejaVuSans-31" x="68.408203"/>
      <use xlink:href="#DejaVuSans-30" x="132.03125"/>
      <use xlink:href="#DejaVuSans-30" x="195.654297"/>
     </g>
    </g>
    <g id="line2d_37">
     <path d="M 63.66 67.932813 
L 73.66 67.932813 
L 83.66 67.932813 
" style="fill: none; stroke: #da5252; stroke-width: 2; stroke-linecap: square"/>
    </g>
    <g id="text_19">
     <!-- A100_80 -->
     <g transform="translate(91.66 71.432813) scale(0.1 -0.1)">
      <defs>
       <path id="DejaVuSans-5f" d="M 3263 -1063 
L 3263 -1509 
L -63 -1509 
L -63 -1063 
L 3263 -1063 
z
" transform="scale(0.015625)"/>
       <path id="DejaVuSans-38" d="M 2034 2216 
Q 1584 2216 1326 1975 
Q 1069 1734 1069 1313 
Q 1069 891 1326 650 
Q 1584 409 2034 409 
Q 2484 409 2743 651 
Q 3003 894 3003 1313 
Q 3003 1734 2745 1975 
Q 2488 2216 2034 2216 
z
M 1403 2484 
Q 997 2584 770 2862 
Q 544 3141 544 3541 
Q 544 4100 942 4425 
Q 1341 4750 2034 4750 
Q 2731 4750 3128 4425 
Q 3525 4100 3525 3541 
Q 3525 3141 3298 2862 
Q 3072 2584 2669 2484 
Q 3125 2378 3379 2068 
Q 3634 1759 3634 1313 
Q 3634 634 3220 271 
Q 2806 -91 2034 -91 
Q 1263 -91 848 271 
Q 434 634 434 1313 
Q 434 1759 690 2068 
Q 947 2378 1403 2484 
z
M 1172 3481 
Q 1172 3119 1398 2916 
Q 1625 2713 2034 2713 
Q 2441 2713 2670 2916 
Q 2900 3119 2900 3481 
Q 2900 3844 2670 4047 
Q 2441 4250 2034 4250 
Q 1625 4250 1398 4047 
Q 1172 3844 1172 3481 
z
" transform="scale(0.015625)"/>
      </defs>
      <use xlink:href="#DejaVuSans-41"/>
      <use xlink:href="#DejaVuSans-31" x="68.408203"/>
      <use xlink:href="#DejaVuSans-30" x="132.03125"/>
      <use xlink:href="#DejaVuSans-30" x="195.654297"/>
      <use xlink:href="#DejaVuSans-5f" x="259.277344"/>
      <use xlink:href="#DejaVuSans-38" x="309.277344"/>
      <use xlink:href="#DejaVuSans-30" x="372.900391"/>
     </g>
    </g>
    <g id="line2d_38">
     <path d="M 63.66 82.889063 
L 73.66 82.889063 
L 83.66 82.889063 
" style="fill: none; stroke: #793b67; stroke-width: 2; stroke-linecap: square"/>
    </g>
    <g id="text_20">
     <!-- GH200 -->
     <g transform="translate(91.66 86.389063) scale(0.1 -0.1)">
      <defs>
       <path id="DejaVuSans-48" d="M 628 4666 
L 1259 4666 
L 1259 2753 
L 3553 2753 
L 3553 4666 
L 4184 4666 
L 4184 0 
L 3553 0 
L 3553 2222 
L 1259 2222 
L 1259 0 
L 628 0 
L 628 4666 
z
" transform="scale(0.015625)"/>
      </defs>
      <use xlink:href="#DejaVuSans-47"/>
      <use xlink:href="#DejaVuSans-48" x="77.490234"/>
      <use xlink:href="#DejaVuSans-32" x="152.685547"/>
      <use xlink:href="#DejaVuSans-30" x="216.308594"/>
      <use xlink:href="#DejaVuSans-30" x="279.931641"/>
     </g>
    </g>
    <g id="line2d_39">
     <path d="M 63.66 97.567188 
L 73.66 97.567188 
L 83.66 97.567188 
" style="fill: none; stroke: #10cfcc; stroke-width: 2; stroke-linecap: square"/>
    </g>
    <g id="text_21">
     <!-- MI210 -->
     <g transform="translate(91.66 101.067188) scale(0.1 -0.1)">
      <defs>
       <path id="DejaVuSans-49" d="M 628 4666 
L 1259 4666 
L 1259 0 
L 628 0 
L 628 4666 
z
" transform="scale(0.015625)"/>
      </defs>
      <use xlink:href="#DejaVuSans-4d"/>
      <use xlink:href="#DejaVuSans-49" x="86.279297"/>
      <use xlink:href="#DejaVuSans-32" x="115.771484"/>
      <use xlink:href="#DejaVuSans-31" x="179.394531"/>
      <use xlink:href="#DejaVuSans-30" x="243.017578"/>
     </g>
    </g>
    <g id="line2d_40">
     <path d="M 63.66 112.245313 
L 73.66 112.245313 
L 83.66 112.245313 
" style="fill: none; stroke: #ffe100; stroke-width: 2; stroke-linecap: square"/>
    </g>
    <g id="text_22">
     <!-- RX6900XT -->
     <g transform="translate(91.66 115.745313) scale(0.1 -0.1)">
      <defs>
       <path id="DejaVuSans-58" d="M 403 4666 
L 1081 4666 
L 2241 2931 
L 3406 4666 
L 4084 4666 
L 2584 2425 
L 4184 0 
L 3506 0 
L 2194 1984 
L 872 0 
L 191 0 
L 1856 2491 
L 403 4666 
z
" transform="scale(0.015625)"/>
       <path id="DejaVuSans-36" d="M 2113 2584 
Q 1688 2584 1439 2293 
Q 1191 2003 1191 1497 
Q 1191 994 1439 701 
Q 1688 409 2113 409 
Q 2538 409 2786 701 
Q 3034 994 3034 1497 
Q 3034 2003 2786 2293 
Q 2538 2584 2113 2584 
z
M 3366 4563 
L 3366 3988 
Q 3128 4100 2886 4159 
Q 2644 4219 2406 4219 
Q 1781 4219 1451 3797 
Q 1122 3375 1075 2522 
Q 1259 2794 1537 2939 
Q 1816 3084 2150 3084 
Q 2853 3084 3261 2657 
Q 3669 2231 3669 1497 
Q 3669 778 3244 343 
Q 2819 -91 2113 -91 
Q 1303 -91 875 529 
Q 447 1150 447 2328 
Q 447 3434 972 4092 
Q 1497 4750 2381 4750 
Q 2619 4750 2861 4703 
Q 3103 4656 3366 4563 
z
" transform="scale(0.015625)"/>
       <path id="DejaVuSans-39" d="M 703 97 
L 703 672 
Q 941 559 1184 500 
Q 1428 441 1663 441 
Q 2288 441 2617 861 
Q 2947 1281 2994 2138 
Q 2813 1869 2534 1725 
Q 2256 1581 1919 1581 
Q 1219 1581 811 2004 
Q 403 2428 403 3163 
Q 403 3881 828 4315 
Q 1253 4750 1959 4750 
Q 2769 4750 3195 4129 
Q 3622 3509 3622 2328 
Q 3622 1225 3098 567 
Q 2575 -91 1691 -91 
Q 1453 -91 1209 -44 
Q 966 3 703 97 
z
M 1959 2075 
Q 2384 2075 2632 2365 
Q 2881 2656 2881 3163 
Q 2881 3666 2632 3958 
Q 2384 4250 1959 4250 
Q 1534 4250 1286 3958 
Q 1038 3666 1038 3163 
Q 1038 2656 1286 2365 
Q 1534 2075 1959 2075 
z
" transform="scale(0.015625)"/>
       <path id="DejaVuSans-54" d="M -19 4666 
L 3928 4666 
L 3928 4134 
L 2272 4134 
L 2272 0 
L 1638 0 
L 1638 4134 
L -19 4134 
L -19 4666 
z
" transform="scale(0.015625)"/>
      </defs>
      <use xlink:href="#DejaVuSans-52"/>
      <use xlink:href="#DejaVuSans-58" x="69.482422"/>
      <use xlink:href="#DejaVuSans-36" x="137.988281"/>
      <use xlink:href="#DejaVuSans-39" x="201.611328"/>
      <use xlink:href="#DejaVuSans-30" x="265.234375"/>
      <use xlink:href="#DejaVuSans-30" x="328.857422"/>
      <use xlink:href="#DejaVuSans-58" x="392.480469"/>
      <use xlink:href="#DejaVuSans-54" x="459.236328"/>
     </g>
    </g>
   </g>
  </g>
 </g>
 <defs>
  <clipPath id="p9e220cbb51">
   <rect x="54.66" y="10.8" width="510.54" height="238.02"/>
  </clipPath>
 </defs>
</svg>
