<?xml version="1.0" encoding="utf-8" standalone="no"?>
<!DOCTYPE svg PUBLIC "-//W3C//DTD SVG 1.1//EN"
  "http://www.w3.org/Graphics/SVG/1.1/DTD/svg11.dtd">
<svg xmlns:xlink="http://www.w3.org/1999/xlink" width="432pt" height="288pt" viewBox="0 0 432 288" xmlns="http://www.w3.org/2000/svg" version="1.1">
 <metadata>
  <rdf:RDF xmlns:dc="http://purl.org/dc/elements/1.1/" xmlns:cc="http://creativecommons.org/ns#" xmlns:rdf="http://www.w3.org/1999/02/22-rdf-syntax-ns#">
   <cc:Work>
    <dc:type rdf:resource="http://purl.org/dc/dcmitype/StillImage"/>
    <dc:date>2025-02-11T11:46:51.159567</dc:date>
    <dc:format>image/svg+xml</dc:format>
    <dc:creator>
     <cc:Agent>
      <dc:title>Matplotlib v3.10.0, https://matplotlib.org/</dc:title>
     </cc:Agent>
    </dc:creator>
   </cc:Work>
  </rdf:RDF>
 </metadata>
 <defs>
  <style type="text/css">*{stroke-linejoin: round; stroke-linecap: butt}</style>
 </defs>
 <g id="figure_1">
  <g id="patch_1">
   <path d="M 0 288 
L 432 288 
L 432 0 
L 0 0 
z
" style="fill: #ffffff"/>
  </g>
  <g id="axes_1">
   <g id="patch_2">
    <path d="M 43.86 259.62 
L 419.13 259.62 
L 419.13 0 
L 43.86 0 
z
" style="fill: #ffffff"/>
   </g>
   <g id="matplotlib.axis_1">
    <g id="xtick_1">
     <g id="line2d_1">
      <path d="M 43.86 259.62 
L 43.86 0 
" clip-path="url(#p65897e7d22)" style="fill: none; stroke-dasharray: 1.85,0.8; stroke-dashoffset: 0; stroke: #b2b2b2; stroke-width: 0.5"/>
     </g>
     <g id="line2d_2">
      <defs>
       <path id="m13b59eaf91" d="M 0 0 
L 0 -3.5 
" style="stroke: #000000; stroke-width: 0.8"/>
      </defs>
      <g>
       <use xlink:href="#m13b59eaf91" x="43.86" y="259.62" style="stroke: #000000; stroke-width: 0.8"/>
      </g>
     </g>
     <g id="text_1">
      <!-- 0K -->
      <g transform="translate(37.399844 270.718437) scale(0.1 -0.1)">
       <defs>
        <path id="DejaVuSans-30" d="M 2034 4250 
Q 1547 4250 1301 3770 
Q 1056 3291 1056 2328 
Q 1056 1369 1301 889 
Q 1547 409 2034 409 
Q 2525 409 2770 889 
Q 3016 1369 3016 2328 
Q 3016 3291 2770 3770 
Q 2525 4250 2034 4250 
z
M 2034 4750 
Q 2819 4750 3233 4129 
Q 3647 3509 3647 2328 
Q 3647 1150 3233 529 
Q 2819 -91 2034 -91 
Q 1250 -91 836 529 
Q 422 1150 422 2328 
Q 422 3509 836 4129 
Q 1250 4750 2034 4750 
z
" transform="scale(0.015625)"/>
        <path id="DejaVuSans-4b" d="M 628 4666 
L 1259 4666 
L 1259 2694 
L 3353 4666 
L 4166 4666 
L 1850 2491 
L 4331 0 
L 3500 0 
L 1259 2247 
L 1259 0 
L 628 0 
L 628 4666 
z
" transform="scale(0.015625)"/>
       </defs>
       <use xlink:href="#DejaVuSans-30"/>
       <use xlink:href="#DejaVuSans-4b" transform="translate(63.623047 0)"/>
      </g>
     </g>
    </g>
    <g id="xtick_2">
     <g id="line2d_3">
      <path d="M 90.76875 259.62 
L 90.76875 0 
" clip-path="url(#p65897e7d22)" style="fill: none; stroke-dasharray: 1.85,0.8; stroke-dashoffset: 0; stroke: #b2b2b2; stroke-width: 0.5"/>
     </g>
     <g id="line2d_4">
      <g>
       <use xlink:href="#m13b59eaf91" x="90.76875" y="259.62" style="stroke: #000000; stroke-width: 0.8"/>
      </g>
     </g>
     <g id="text_2">
      <!-- 50K -->
      <g transform="translate(81.127344 270.718437) scale(0.1 -0.1)">
       <defs>
        <path id="DejaVuSans-35" d="M 691 4666 
L 3169 4666 
L 3169 4134 
L 1269 4134 
L 1269 2991 
Q 1406 3038 1543 3061 
Q 1681 3084 1819 3084 
Q 2600 3084 3056 2656 
Q 3513 2228 3513 1497 
Q 3513 744 3044 326 
Q 2575 -91 1722 -91 
Q 1428 -91 1123 -41 
Q 819 9 494 109 
L 494 744 
Q 775 591 1075 516 
Q 1375 441 1709 441 
Q 2250 441 2565 725 
Q 2881 1009 2881 1497 
Q 2881 1984 2565 2268 
Q 2250 2553 1709 2553 
Q 1456 2553 1204 2497 
Q 953 2441 691 2322 
L 691 4666 
z
" transform="scale(0.015625)"/>
       </defs>
       <use xlink:href="#DejaVuSans-35"/>
       <use xlink:href="#DejaVuSans-30" transform="translate(63.623047 0)"/>
       <use xlink:href="#DejaVuSans-4b" transform="translate(127.246094 0)"/>
      </g>
     </g>
    </g>
    <g id="xtick_3">
     <g id="line2d_5">
      <path d="M 137.6775 259.62 
L 137.6775 0 
" clip-path="url(#p65897e7d22)" style="fill: none; stroke-dasharray: 1.85,0.8; stroke-dashoffset: 0; stroke: #b2b2b2; stroke-width: 0.5"/>
     </g>
     <g id="line2d_6">
      <g>
       <use xlink:href="#m13b59eaf91" x="137.6775" y="259.62" style="stroke: #000000; stroke-width: 0.8"/>
      </g>
     </g>
     <g id="text_3">
      <!-- 100K -->
      <g transform="translate(124.854844 270.718437) scale(0.1 -0.1)">
       <defs>
        <path id="DejaVuSans-31" d="M 794 531 
L 1825 531 
L 1825 4091 
L 703 3866 
L 703 4441 
L 1819 4666 
L 2450 4666 
L 2450 531 
L 3481 531 
L 3481 0 
L 794 0 
L 794 531 
z
" transform="scale(0.015625)"/>
       </defs>
       <use xlink:href="#DejaVuSans-31"/>
       <use xlink:href="#DejaVuSans-30" transform="translate(63.623047 0)"/>
       <use xlink:href="#DejaVuSans-30" transform="translate(127.246094 0)"/>
       <use xlink:href="#DejaVuSans-4b" transform="translate(190.869141 0)"/>
      </g>
     </g>
    </g>
    <g id="xtick_4">
     <g id="line2d_7">
      <path d="M 184.58625 259.62 
L 184.58625 0 
" clip-path="url(#p65897e7d22)" style="fill: none; stroke-dasharray: 1.85,0.8; stroke-dashoffset: 0; stroke: #b2b2b2; stroke-width: 0.5"/>
     </g>
     <g id="line2d_8">
      <g>
       <use xlink:href="#m13b59eaf91" x="184.58625" y="259.62" style="stroke: #000000; stroke-width: 0.8"/>
      </g>
     </g>
     <g id="text_4">
      <!-- 150K -->
      <g transform="translate(171.763594 270.718437) scale(0.1 -0.1)">
       <use xlink:href="#DejaVuSans-31"/>
       <use xlink:href="#DejaVuSans-35" transform="translate(63.623047 0)"/>
       <use xlink:href="#DejaVuSans-30" transform="translate(127.246094 0)"/>
       <use xlink:href="#DejaVuSans-4b" transform="translate(190.869141 0)"/>
      </g>
     </g>
    </g>
    <g id="xtick_5">
     <g id="line2d_9">
      <path d="M 231.495 259.62 
L 231.495 0 
" clip-path="url(#p65897e7d22)" style="fill: none; stroke-dasharray: 1.85,0.8; stroke-dashoffset: 0; stroke: #b2b2b2; stroke-width: 0.5"/>
     </g>
     <g id="line2d_10">
      <g>
       <use xlink:href="#m13b59eaf91" x="231.495" y="259.62" style="stroke: #000000; stroke-width: 0.8"/>
      </g>
     </g>
     <g id="text_5">
      <!-- 200K -->
      <g transform="translate(218.672344 270.718437) scale(0.1 -0.1)">
       <defs>
        <path id="DejaVuSans-32" d="M 1228 531 
L 3431 531 
L 3431 0 
L 469 0 
L 469 531 
Q 828 903 1448 1529 
Q 2069 2156 2228 2338 
Q 2531 2678 2651 2914 
Q 2772 3150 2772 3378 
Q 2772 3750 2511 3984 
Q 2250 4219 1831 4219 
Q 1534 4219 1204 4116 
Q 875 4013 500 3803 
L 500 4441 
Q 881 4594 1212 4672 
Q 1544 4750 1819 4750 
Q 2544 4750 2975 4387 
Q 3406 4025 3406 3419 
Q 3406 3131 3298 2873 
Q 3191 2616 2906 2266 
Q 2828 2175 2409 1742 
Q 1991 1309 1228 531 
z
" transform="scale(0.015625)"/>
       </defs>
       <use xlink:href="#DejaVuSans-32"/>
       <use xlink:href="#DejaVuSans-30" transform="translate(63.623047 0)"/>
       <use xlink:href="#DejaVuSans-30" transform="translate(127.246094 0)"/>
       <use xlink:href="#DejaVuSans-4b" transform="translate(190.869141 0)"/>
      </g>
     </g>
    </g>
    <g id="xtick_6">
     <g id="line2d_11">
      <path d="M 278.40375 259.62 
L 278.40375 0 
" clip-path="url(#p65897e7d22)" style="fill: none; stroke-dasharray: 1.85,0.8; stroke-dashoffset: 0; stroke: #b2b2b2; stroke-width: 0.5"/>
     </g>
     <g id="line2d_12">
      <g>
       <use xlink:href="#m13b59eaf91" x="278.40375" y="259.62" style="stroke: #000000; stroke-width: 0.8"/>
      </g>
     </g>
     <g id="text_6">
      <!-- 250K -->
      <g transform="translate(265.581094 270.718437) scale(0.1 -0.1)">
       <use xlink:href="#DejaVuSans-32"/>
       <use xlink:href="#DejaVuSans-35" transform="translate(63.623047 0)"/>
       <use xlink:href="#DejaVuSans-30" transform="translate(127.246094 0)"/>
       <use xlink:href="#DejaVuSans-4b" transform="translate(190.869141 0)"/>
      </g>
     </g>
    </g>
    <g id="xtick_7">
     <g id="line2d_13">
      <path d="M 325.3125 259.62 
L 325.3125 0 
" clip-path="url(#p65897e7d22)" style="fill: none; stroke-dasharray: 1.85,0.8; stroke-dashoffset: 0; stroke: #b2b2b2; stroke-width: 0.5"/>
     </g>
     <g id="line2d_14">
      <g>
       <use xlink:href="#m13b59eaf91" x="325.3125" y="259.62" style="stroke: #000000; stroke-width: 0.8"/>
      </g>
     </g>
     <g id="text_7">
      <!-- 300K -->
      <g transform="translate(312.489844 270.718437) scale(0.1 -0.1)">
       <defs>
        <path id="DejaVuSans-33" d="M 2597 2516 
Q 3050 2419 3304 2112 
Q 3559 1806 3559 1356 
Q 3559 666 3084 287 
Q 2609 -91 1734 -91 
Q 1441 -91 1130 -33 
Q 819 25 488 141 
L 488 750 
Q 750 597 1062 519 
Q 1375 441 1716 441 
Q 2309 441 2620 675 
Q 2931 909 2931 1356 
Q 2931 1769 2642 2001 
Q 2353 2234 1838 2234 
L 1294 2234 
L 1294 2753 
L 1863 2753 
Q 2328 2753 2575 2939 
Q 2822 3125 2822 3475 
Q 2822 3834 2567 4026 
Q 2313 4219 1838 4219 
Q 1578 4219 1281 4162 
Q 984 4106 628 3988 
L 628 4550 
Q 988 4650 1302 4700 
Q 1616 4750 1894 4750 
Q 2613 4750 3031 4423 
Q 3450 4097 3450 3541 
Q 3450 3153 3228 2886 
Q 3006 2619 2597 2516 
z
" transform="scale(0.015625)"/>
       </defs>
       <use xlink:href="#DejaVuSans-33"/>
       <use xlink:href="#DejaVuSans-30" transform="translate(63.623047 0)"/>
       <use xlink:href="#DejaVuSans-30" transform="translate(127.246094 0)"/>
       <use xlink:href="#DejaVuSans-4b" transform="translate(190.869141 0)"/>
      </g>
     </g>
    </g>
    <g id="xtick_8">
     <g id="line2d_15">
      <path d="M 372.22125 259.62 
L 372.22125 0 
" clip-path="url(#p65897e7d22)" style="fill: none; stroke-dasharray: 1.85,0.8; stroke-dashoffset: 0; stroke: #b2b2b2; stroke-width: 0.5"/>
     </g>
     <g id="line2d_16">
      <g>
       <use xlink:href="#m13b59eaf91" x="372.22125" y="259.62" style="stroke: #000000; stroke-width: 0.8"/>
      </g>
     </g>
     <g id="text_8">
      <!-- 350K -->
      <g transform="translate(359.398594 270.718437) scale(0.1 -0.1)">
       <use xlink:href="#DejaVuSans-33"/>
       <use xlink:href="#DejaVuSans-35" transform="translate(63.623047 0)"/>
       <use xlink:href="#DejaVuSans-30" transform="translate(127.246094 0)"/>
       <use xlink:href="#DejaVuSans-4b" transform="translate(190.869141 0)"/>
      </g>
     </g>
    </g>
    <g id="xtick_9">
     <g id="line2d_17">
      <path d="M 419.13 259.62 
L 419.13 0 
" clip-path="url(#p65897e7d22)" style="fill: none; stroke-dasharray: 1.85,0.8; stroke-dashoffset: 0; stroke: #b2b2b2; stroke-width: 0.5"/>
     </g>
     <g id="line2d_18">
      <g>
       <use xlink:href="#m13b59eaf91" x="419.13" y="259.62" style="stroke: #000000; stroke-width: 0.8"/>
      </g>
     </g>
     <g id="text_9">
      <!-- 400K -->
      <g transform="translate(406.307344 270.718437) scale(0.1 -0.1)">
       <defs>
        <path id="DejaVuSans-34" d="M 2419 4116 
L 825 1625 
L 2419 1625 
L 2419 4116 
z
M 2253 4666 
L 3047 4666 
L 3047 1625 
L 3713 1625 
L 3713 1100 
L 3047 1100 
L 3047 0 
L 2419 0 
L 2419 1100 
L 313 1100 
L 313 1709 
L 2253 4666 
z
" transform="scale(0.015625)"/>
       </defs>
       <use xlink:href="#DejaVuSans-34"/>
       <use xlink:href="#DejaVuSans-30" transform="translate(63.623047 0)"/>
       <use xlink:href="#DejaVuSans-30" transform="translate(127.246094 0)"/>
       <use xlink:href="#DejaVuSans-4b" transform="translate(190.869141 0)"/>
      </g>
     </g>
    </g>
    <g id="text_10">
     <!-- threads -->
     <g transform="translate(208.705312 285.91625) scale(0.12 -0.12)">
      <defs>
       <path id="DejaVuSans-74" d="M 1172 4494 
L 1172 3500 
L 2356 3500 
L 2356 3053 
L 1172 3053 
L 1172 1153 
Q 1172 725 1289 603 
Q 1406 481 1766 481 
L 2356 481 
L 2356 0 
L 1766 0 
Q 1100 0 847 248 
Q 594 497 594 1153 
L 594 3053 
L 172 3053 
L 172 3500 
L 594 3500 
L 594 4494 
L 1172 4494 
z
" transform="scale(0.015625)"/>
       <path id="DejaVuSans-68" d="M 3513 2113 
L 3513 0 
L 2938 0 
L 2938 2094 
Q 2938 2591 2744 2837 
Q 2550 3084 2163 3084 
Q 1697 3084 1428 2787 
Q 1159 2491 1159 1978 
L 1159 0 
L 581 0 
L 581 4863 
L 1159 4863 
L 1159 2956 
Q 1366 3272 1645 3428 
Q 1925 3584 2291 3584 
Q 2894 3584 3203 3211 
Q 3513 2838 3513 2113 
z
" transform="scale(0.015625)"/>
       <path id="DejaVuSans-72" d="M 2631 2963 
Q 2534 3019 2420 3045 
Q 2306 3072 2169 3072 
Q 1681 3072 1420 2755 
Q 1159 2438 1159 1844 
L 1159 0 
L 581 0 
L 581 3500 
L 1159 3500 
L 1159 2956 
Q 1341 3275 1631 3429 
Q 1922 3584 2338 3584 
Q 2397 3584 2469 3576 
Q 2541 3569 2628 3553 
L 2631 2963 
z
" transform="scale(0.015625)"/>
       <path id="DejaVuSans-65" d="M 3597 1894 
L 3597 1613 
L 953 1613 
Q 991 1019 1311 708 
Q 1631 397 2203 397 
Q 2534 397 2845 478 
Q 3156 559 3463 722 
L 3463 178 
Q 3153 47 2828 -22 
Q 2503 -91 2169 -91 
Q 1331 -91 842 396 
Q 353 884 353 1716 
Q 353 2575 817 3079 
Q 1281 3584 2069 3584 
Q 2775 3584 3186 3129 
Q 3597 2675 3597 1894 
z
M 3022 2063 
Q 3016 2534 2758 2815 
Q 2500 3097 2075 3097 
Q 1594 3097 1305 2825 
Q 1016 2553 972 2059 
L 3022 2063 
z
" transform="scale(0.015625)"/>
       <path id="DejaVuSans-61" d="M 2194 1759 
Q 1497 1759 1228 1600 
Q 959 1441 959 1056 
Q 959 750 1161 570 
Q 1363 391 1709 391 
Q 2188 391 2477 730 
Q 2766 1069 2766 1631 
L 2766 1759 
L 2194 1759 
z
M 3341 1997 
L 3341 0 
L 2766 0 
L 2766 531 
Q 2569 213 2275 61 
Q 1981 -91 1556 -91 
Q 1019 -91 701 211 
Q 384 513 384 1019 
Q 384 1609 779 1909 
Q 1175 2209 1959 2209 
L 2766 2209 
L 2766 2266 
Q 2766 2663 2505 2880 
Q 2244 3097 1772 3097 
Q 1472 3097 1187 3025 
Q 903 2953 641 2809 
L 641 3341 
Q 956 3463 1253 3523 
Q 1550 3584 1831 3584 
Q 2591 3584 2966 3190 
Q 3341 2797 3341 1997 
z
" transform="scale(0.015625)"/>
       <path id="DejaVuSans-64" d="M 2906 2969 
L 2906 4863 
L 3481 4863 
L 3481 0 
L 2906 0 
L 2906 525 
Q 2725 213 2448 61 
Q 2172 -91 1784 -91 
Q 1150 -91 751 415 
Q 353 922 353 1747 
Q 353 2572 751 3078 
Q 1150 3584 1784 3584 
Q 2172 3584 2448 3432 
Q 2725 3281 2906 2969 
z
M 947 1747 
Q 947 1113 1208 752 
Q 1469 391 1925 391 
Q 2381 391 2643 752 
Q 2906 1113 2906 1747 
Q 2906 2381 2643 2742 
Q 2381 3103 1925 3103 
Q 1469 3103 1208 2742 
Q 947 2381 947 1747 
z
" transform="scale(0.015625)"/>
       <path id="DejaVuSans-73" d="M 2834 3397 
L 2834 2853 
Q 2591 2978 2328 3040 
Q 2066 3103 1784 3103 
Q 1356 3103 1142 2972 
Q 928 2841 928 2578 
Q 928 2378 1081 2264 
Q 1234 2150 1697 2047 
L 1894 2003 
Q 2506 1872 2764 1633 
Q 3022 1394 3022 966 
Q 3022 478 2636 193 
Q 2250 -91 1575 -91 
Q 1294 -91 989 -36 
Q 684 19 347 128 
L 347 722 
Q 666 556 975 473 
Q 1284 391 1588 391 
Q 1994 391 2212 530 
Q 2431 669 2431 922 
Q 2431 1156 2273 1281 
Q 2116 1406 1581 1522 
L 1381 1569 
Q 847 1681 609 1914 
Q 372 2147 372 2553 
Q 372 3047 722 3315 
Q 1072 3584 1716 3584 
Q 2034 3584 2315 3537 
Q 2597 3491 2834 3397 
z
" transform="scale(0.015625)"/>
      </defs>
      <use xlink:href="#DejaVuSans-74"/>
      <use xlink:href="#DejaVuSans-68" transform="translate(39.208984 0)"/>
      <use xlink:href="#DejaVuSans-72" transform="translate(102.587891 0)"/>
      <use xlink:href="#DejaVuSans-65" transform="translate(141.451172 0)"/>
      <use xlink:href="#DejaVuSans-61" transform="translate(202.974609 0)"/>
      <use xlink:href="#DejaVuSans-64" transform="translate(264.253906 0)"/>
      <use xlink:href="#DejaVuSans-73" transform="translate(327.730469 0)"/>
     </g>
    </g>
   </g>
   <g id="matplotlib.axis_2">
    <g id="ytick_1">
     <g id="line2d_19">
      <path d="M 43.86 259.62 
L 419.13 259.62 
" clip-path="url(#p65897e7d22)" style="fill: none; stroke-dasharray: 1.85,0.8; stroke-dashoffset: 0; stroke: #b2b2b2; stroke-width: 0.5"/>
     </g>
     <g id="line2d_20">
      <defs>
       <path id="me48dd61e57" d="M 0 0 
L 3.5 0 
" style="stroke: #000000; stroke-width: 0.8"/>
      </defs>
      <g>
       <use xlink:href="#me48dd61e57" x="43.86" y="259.62" style="stroke: #000000; stroke-width: 0.8"/>
      </g>
     </g>
     <g id="text_11">
      <!-- 0 -->
      <g transform="translate(33.9975 263.419219) scale(0.1 -0.1)">
       <use xlink:href="#DejaVuSans-30"/>
      </g>
     </g>
    </g>
    <g id="ytick_2">
     <g id="line2d_21">
      <path d="M 43.86 229.142446 
L 419.13 229.142446 
" clip-path="url(#p65897e7d22)" style="fill: none; stroke-dasharray: 1.85,0.8; stroke-dashoffset: 0; stroke: #b2b2b2; stroke-width: 0.5"/>
     </g>
     <g id="line2d_22">
      <g>
       <use xlink:href="#me48dd61e57" x="43.86" y="229.142446" style="stroke: #000000; stroke-width: 0.8"/>
      </g>
     </g>
     <g id="text_12">
      <!-- 500 -->
      <g transform="translate(21.2725 232.941664) scale(0.1 -0.1)">
       <use xlink:href="#DejaVuSans-35"/>
       <use xlink:href="#DejaVuSans-30" transform="translate(63.623047 0)"/>
       <use xlink:href="#DejaVuSans-30" transform="translate(127.246094 0)"/>
      </g>
     </g>
    </g>
    <g id="ytick_3">
     <g id="line2d_23">
      <path d="M 43.86 198.664891 
L 419.13 198.664891 
" clip-path="url(#p65897e7d22)" style="fill: none; stroke-dasharray: 1.85,0.8; stroke-dashoffset: 0; stroke: #b2b2b2; stroke-width: 0.5"/>
     </g>
     <g id="line2d_24">
      <g>
       <use xlink:href="#me48dd61e57" x="43.86" y="198.664891" style="stroke: #000000; stroke-width: 0.8"/>
      </g>
     </g>
     <g id="text_13">
      <!-- 1000 -->
      <g transform="translate(14.91 202.46411) scale(0.1 -0.1)">
       <use xlink:href="#DejaVuSans-31"/>
       <use xlink:href="#DejaVuSans-30" transform="translate(63.623047 0)"/>
       <use xlink:href="#DejaVuSans-30" transform="translate(127.246094 0)"/>
       <use xlink:href="#DejaVuSans-30" transform="translate(190.869141 0)"/>
      </g>
     </g>
    </g>
    <g id="ytick_4">
     <g id="line2d_25">
      <path d="M 43.86 168.187337 
L 419.13 168.187337 
" clip-path="url(#p65897e7d22)" style="fill: none; stroke-dasharray: 1.85,0.8; stroke-dashoffset: 0; stroke: #b2b2b2; stroke-width: 0.5"/>
     </g>
     <g id="line2d_26">
      <g>
       <use xlink:href="#me48dd61e57" x="43.86" y="168.187337" style="stroke: #000000; stroke-width: 0.8"/>
      </g>
     </g>
     <g id="text_14">
      <!-- 1500 -->
      <g transform="translate(14.91 171.986555) scale(0.1 -0.1)">
       <use xlink:href="#DejaVuSans-31"/>
       <use xlink:href="#DejaVuSans-35" transform="translate(63.623047 0)"/>
       <use xlink:href="#DejaVuSans-30" transform="translate(127.246094 0)"/>
       <use xlink:href="#DejaVuSans-30" transform="translate(190.869141 0)"/>
      </g>
     </g>
    </g>
    <g id="ytick_5">
     <g id="line2d_27">
      <path d="M 43.86 137.709782 
L 419.13 137.709782 
" clip-path="url(#p65897e7d22)" style="fill: none; stroke-dasharray: 1.85,0.8; stroke-dashoffset: 0; stroke: #b2b2b2; stroke-width: 0.5"/>
     </g>
     <g id="line2d_28">
      <g>
       <use xlink:href="#me48dd61e57" x="43.86" y="137.709782" style="stroke: #000000; stroke-width: 0.8"/>
      </g>
     </g>
     <g id="text_15">
      <!-- 2000 -->
      <g transform="translate(14.91 141.509001) scale(0.1 -0.1)">
       <use xlink:href="#DejaVuSans-32"/>
       <use xlink:href="#DejaVuSans-30" transform="translate(63.623047 0)"/>
       <use xlink:href="#DejaVuSans-30" transform="translate(127.246094 0)"/>
       <use xlink:href="#DejaVuSans-30" transform="translate(190.869141 0)"/>
      </g>
     </g>
    </g>
    <g id="ytick_6">
     <g id="line2d_29">
      <path d="M 43.86 107.232228 
L 419.13 107.232228 
" clip-path="url(#p65897e7d22)" style="fill: none; stroke-dasharray: 1.85,0.8; stroke-dashoffset: 0; stroke: #b2b2b2; stroke-width: 0.5"/>
     </g>
     <g id="line2d_30">
      <g>
       <use xlink:href="#me48dd61e57" x="43.86" y="107.232228" style="stroke: #000000; stroke-width: 0.8"/>
      </g>
     </g>
     <g id="text_16">
      <!-- 2500 -->
      <g transform="translate(14.91 111.031446) scale(0.1 -0.1)">
       <use xlink:href="#DejaVuSans-32"/>
       <use xlink:href="#DejaVuSans-35" transform="translate(63.623047 0)"/>
       <use xlink:href="#DejaVuSans-30" transform="translate(127.246094 0)"/>
       <use xlink:href="#DejaVuSans-30" transform="translate(190.869141 0)"/>
      </g>
     </g>
    </g>
    <g id="ytick_7">
     <g id="line2d_31">
      <path d="M 43.86 76.754673 
L 419.13 76.754673 
" clip-path="url(#p65897e7d22)" style="fill: none; stroke-dasharray: 1.85,0.8; stroke-dashoffset: 0; stroke: #b2b2b2; stroke-width: 0.5"/>
     </g>
     <g id="line2d_32">
      <g>
       <use xlink:href="#me48dd61e57" x="43.86" y="76.754673" style="stroke: #000000; stroke-width: 0.8"/>
      </g>
     </g>
     <g id="text_17">
      <!-- 3000 -->
      <g transform="translate(14.91 80.553892) scale(0.1 -0.1)">
       <use xlink:href="#DejaVuSans-33"/>
       <use xlink:href="#DejaVuSans-30" transform="translate(63.623047 0)"/>
       <use xlink:href="#DejaVuSans-30" transform="translate(127.246094 0)"/>
       <use xlink:href="#DejaVuSans-30" transform="translate(190.869141 0)"/>
      </g>
     </g>
    </g>
    <g id="ytick_8">
     <g id="line2d_33">
      <path d="M 43.86 46.277119 
L 419.13 46.277119 
" clip-path="url(#p65897e7d22)" style="fill: none; stroke-dasharray: 1.85,0.8; stroke-dashoffset: 0; stroke: #b2b2b2; stroke-width: 0.5"/>
     </g>
     <g id="line2d_34">
      <g>
       <use xlink:href="#me48dd61e57" x="43.86" y="46.277119" style="stroke: #000000; stroke-width: 0.8"/>
      </g>
     </g>
     <g id="text_18">
      <!-- 3500 -->
      <g transform="translate(14.91 50.076337) scale(0.1 -0.1)">
       <use xlink:href="#DejaVuSans-33"/>
       <use xlink:href="#DejaVuSans-35" transform="translate(63.623047 0)"/>
       <use xlink:href="#DejaVuSans-30" transform="translate(127.246094 0)"/>
       <use xlink:href="#DejaVuSans-30" transform="translate(190.869141 0)"/>
      </g>
     </g>
    </g>
    <g id="ytick_9">
     <g id="line2d_35">
      <path d="M 43.86 15.799564 
L 419.13 15.799564 
" clip-path="url(#p65897e7d22)" style="fill: none; stroke-dasharray: 1.85,0.8; stroke-dashoffset: 0; stroke: #b2b2b2; stroke-width: 0.5"/>
     </g>
     <g id="line2d_36">
      <g>
       <use xlink:href="#me48dd61e57" x="43.86" y="15.799564" style="stroke: #000000; stroke-width: 0.8"/>
      </g>
     </g>
     <g id="text_19">
      <!-- 4000 -->
      <g transform="translate(14.91 19.598783) scale(0.1 -0.1)">
       <use xlink:href="#DejaVuSans-34"/>
       <use xlink:href="#DejaVuSans-30" transform="translate(63.623047 0)"/>
       <use xlink:href="#DejaVuSans-30" transform="translate(127.246094 0)"/>
       <use xlink:href="#DejaVuSans-30" transform="translate(190.869141 0)"/>
      </g>
     </g>
    </g>
    <g id="text_20">
     <!-- DRAM bandwidth, GB/s -->
     <g transform="translate(8.414375 198.908437) rotate(-90) scale(0.12 -0.12)">
      <defs>
       <path id="DejaVuSans-44" d="M 1259 4147 
L 1259 519 
L 2022 519 
Q 2988 519 3436 956 
Q 3884 1394 3884 2338 
Q 3884 3275 3436 3711 
Q 2988 4147 2022 4147 
L 1259 4147 
z
M 628 4666 
L 1925 4666 
Q 3281 4666 3915 4102 
Q 4550 3538 4550 2338 
Q 4550 1131 3912 565 
Q 3275 0 1925 0 
L 628 0 
L 628 4666 
z
" transform="scale(0.015625)"/>
       <path id="DejaVuSans-52" d="M 2841 2188 
Q 3044 2119 3236 1894 
Q 3428 1669 3622 1275 
L 4263 0 
L 3584 0 
L 2988 1197 
Q 2756 1666 2539 1819 
Q 2322 1972 1947 1972 
L 1259 1972 
L 1259 0 
L 628 0 
L 628 4666 
L 2053 4666 
Q 2853 4666 3247 4331 
Q 3641 3997 3641 3322 
Q 3641 2881 3436 2590 
Q 3231 2300 2841 2188 
z
M 1259 4147 
L 1259 2491 
L 2053 2491 
Q 2509 2491 2742 2702 
Q 2975 2913 2975 3322 
Q 2975 3731 2742 3939 
Q 2509 4147 2053 4147 
L 1259 4147 
z
" transform="scale(0.015625)"/>
       <path id="DejaVuSans-41" d="M 2188 4044 
L 1331 1722 
L 3047 1722 
L 2188 4044 
z
M 1831 4666 
L 2547 4666 
L 4325 0 
L 3669 0 
L 3244 1197 
L 1141 1197 
L 716 0 
L 50 0 
L 1831 4666 
z
" transform="scale(0.015625)"/>
       <path id="DejaVuSans-4d" d="M 628 4666 
L 1569 4666 
L 2759 1491 
L 3956 4666 
L 4897 4666 
L 4897 0 
L 4281 0 
L 4281 4097 
L 3078 897 
L 2444 897 
L 1241 4097 
L 1241 0 
L 628 0 
L 628 4666 
z
" transform="scale(0.015625)"/>
       <path id="DejaVuSans-20" transform="scale(0.015625)"/>
       <path id="DejaVuSans-62" d="M 3116 1747 
Q 3116 2381 2855 2742 
Q 2594 3103 2138 3103 
Q 1681 3103 1420 2742 
Q 1159 2381 1159 1747 
Q 1159 1113 1420 752 
Q 1681 391 2138 391 
Q 2594 391 2855 752 
Q 3116 1113 3116 1747 
z
M 1159 2969 
Q 1341 3281 1617 3432 
Q 1894 3584 2278 3584 
Q 2916 3584 3314 3078 
Q 3713 2572 3713 1747 
Q 3713 922 3314 415 
Q 2916 -91 2278 -91 
Q 1894 -91 1617 61 
Q 1341 213 1159 525 
L 1159 0 
L 581 0 
L 581 4863 
L 1159 4863 
L 1159 2969 
z
" transform="scale(0.015625)"/>
       <path id="DejaVuSans-6e" d="M 3513 2113 
L 3513 0 
L 2938 0 
L 2938 2094 
Q 2938 2591 2744 2837 
Q 2550 3084 2163 3084 
Q 1697 3084 1428 2787 
Q 1159 2491 1159 1978 
L 1159 0 
L 581 0 
L 581 3500 
L 1159 3500 
L 1159 2956 
Q 1366 3272 1645 3428 
Q 1925 3584 2291 3584 
Q 2894 3584 3203 3211 
Q 3513 2838 3513 2113 
z
" transform="scale(0.015625)"/>
       <path id="DejaVuSans-77" d="M 269 3500 
L 844 3500 
L 1563 769 
L 2278 3500 
L 2956 3500 
L 3675 769 
L 4391 3500 
L 4966 3500 
L 4050 0 
L 3372 0 
L 2619 2869 
L 1863 0 
L 1184 0 
L 269 3500 
z
" transform="scale(0.015625)"/>
       <path id="DejaVuSans-69" d="M 603 3500 
L 1178 3500 
L 1178 0 
L 603 0 
L 603 3500 
z
M 603 4863 
L 1178 4863 
L 1178 4134 
L 603 4134 
L 603 4863 
z
" transform="scale(0.015625)"/>
       <path id="DejaVuSans-2c" d="M 750 794 
L 1409 794 
L 1409 256 
L 897 -744 
L 494 -744 
L 750 256 
L 750 794 
z
" transform="scale(0.015625)"/>
       <path id="DejaVuSans-47" d="M 3809 666 
L 3809 1919 
L 2778 1919 
L 2778 2438 
L 4434 2438 
L 4434 434 
Q 4069 175 3628 42 
Q 3188 -91 2688 -91 
Q 1594 -91 976 548 
Q 359 1188 359 2328 
Q 359 3472 976 4111 
Q 1594 4750 2688 4750 
Q 3144 4750 3555 4637 
Q 3966 4525 4313 4306 
L 4313 3634 
Q 3963 3931 3569 4081 
Q 3175 4231 2741 4231 
Q 1884 4231 1454 3753 
Q 1025 3275 1025 2328 
Q 1025 1384 1454 906 
Q 1884 428 2741 428 
Q 3075 428 3337 486 
Q 3600 544 3809 666 
z
" transform="scale(0.015625)"/>
       <path id="DejaVuSans-42" d="M 1259 2228 
L 1259 519 
L 2272 519 
Q 2781 519 3026 730 
Q 3272 941 3272 1375 
Q 3272 1813 3026 2020 
Q 2781 2228 2272 2228 
L 1259 2228 
z
M 1259 4147 
L 1259 2741 
L 2194 2741 
Q 2656 2741 2882 2914 
Q 3109 3088 3109 3444 
Q 3109 3797 2882 3972 
Q 2656 4147 2194 4147 
L 1259 4147 
z
M 628 4666 
L 2241 4666 
Q 2963 4666 3353 4366 
Q 3744 4066 3744 3513 
Q 3744 3084 3544 2831 
Q 3344 2578 2956 2516 
Q 3422 2416 3680 2098 
Q 3938 1781 3938 1306 
Q 3938 681 3513 340 
Q 3088 0 2303 0 
L 628 0 
L 628 4666 
z
" transform="scale(0.015625)"/>
       <path id="DejaVuSans-2f" d="M 1625 4666 
L 2156 4666 
L 531 -594 
L 0 -594 
L 1625 4666 
z
" transform="scale(0.015625)"/>
      </defs>
      <use xlink:href="#DejaVuSans-44"/>
      <use xlink:href="#DejaVuSans-52" transform="translate(77.001953 0)"/>
      <use xlink:href="#DejaVuSans-41" transform="translate(142.484375 0)"/>
      <use xlink:href="#DejaVuSans-4d" transform="translate(210.892578 0)"/>
      <use xlink:href="#DejaVuSans-20" transform="translate(297.171875 0)"/>
      <use xlink:href="#DejaVuSans-62" transform="translate(328.958984 0)"/>
      <use xlink:href="#DejaVuSans-61" transform="translate(392.435547 0)"/>
      <use xlink:href="#DejaVuSans-6e" transform="translate(453.714844 0)"/>
      <use xlink:href="#DejaVuSans-64" transform="translate(517.09375 0)"/>
      <use xlink:href="#DejaVuSans-77" transform="translate(580.570312 0)"/>
      <use xlink:href="#DejaVuSans-69" transform="translate(662.357422 0)"/>
      <use xlink:href="#DejaVuSans-64" transform="translate(690.140625 0)"/>
      <use xlink:href="#DejaVuSans-74" transform="translate(753.617188 0)"/>
      <use xlink:href="#DejaVuSans-68" transform="translate(792.826172 0)"/>
      <use xlink:href="#DejaVuSans-2c" transform="translate(856.205078 0)"/>
      <use xlink:href="#DejaVuSans-20" transform="translate(887.992188 0)"/>
      <use xlink:href="#DejaVuSans-47" transform="translate(919.779297 0)"/>
      <use xlink:href="#DejaVuSans-42" transform="translate(997.269531 0)"/>
      <use xlink:href="#DejaVuSans-2f" transform="translate(1065.873047 0)"/>
      <use xlink:href="#DejaVuSans-73" transform="translate(1099.564453 0)"/>
     </g>
    </g>
   </g>
   <g id="line2d_37">
    <path d="M 45.120907 257.242751 
L 46.381814 254.865502 
L 47.642722 252.793028 
L 48.903629 250.476734 
L 50.164536 248.587125 
L 51.425443 246.392741 
L 52.68635 244.625043 
L 53.947258 241.882063 
L 56.469072 238.956218 
L 58.990886 234.750316 
L 64.034515 228.228119 
L 69.078144 224.509857 
L 74.121773 222.193563 
L 79.165402 221.157326 
L 84.20903 220.36491 
L 89.252659 219.877269 
L 94.296288 219.450583 
L 99.339917 219.572493 
L 104.383546 219.511538 
L 109.427174 219.511538 
L 114.470803 219.511538 
L 119.514432 219.511538 
L 124.558061 219.572493 
L 129.60169 219.572493 
L 134.645318 219.572493 
L 139.688947 219.633449 
L 144.732576 219.694404 
L 149.776205 219.694404 
L 154.819834 219.694404 
L 159.863462 219.755359 
L 164.907091 219.816314 
" clip-path="url(#p65897e7d22)" style="fill: none; stroke: #378abd; stroke-width: 2; stroke-linecap: square"/>
   </g>
   <g id="line2d_38">
    <path d="M 45.991534 254.865502 
L 48.123067 250.171958 
L 50.254601 245.966056 
L 52.386134 241.516333 
L 54.517668 237.859026 
L 56.649202 233.775034 
L 58.780735 230.422503 
L 60.912269 226.033735 
L 65.175336 220.974461 
L 69.438403 215.793277 
L 77.964538 212.440746 
L 86.490672 210.855913 
L 95.016806 212.501701 
L 103.542941 212.501701 
L 112.069075 211.160688 
L 120.59521 211.099733 
L 129.121344 211.099733 
L 137.647478 211.038778 
L 146.173613 211.038778 
L 154.699747 211.221644 
L 163.225882 211.038778 
L 171.752016 211.038778 
L 180.27815 211.038778 
L 188.804285 211.160688 
L 197.330419 211.160688 
L 205.856554 211.160688 
L 214.382688 212.01406 
L 222.908822 212.196925 
L 231.434957 212.13597 
L 239.961091 212.196925 
L 248.487226 212.318835 
" clip-path="url(#p65897e7d22)" style="fill: none; stroke: #ffb33a; stroke-width: 2; stroke-linecap: square"/>
   </g>
   <g id="line2d_39">
    <path d="M 45.060864 257.547526 
L 46.261728 255.536008 
L 47.462592 253.646399 
L 48.663456 251.695836 
L 49.86432 250.050048 
L 51.065184 248.40426 
L 52.266048 246.697517 
L 53.466912 244.625043 
L 55.86864 242.491614 
L 58.270368 239.200039 
L 63.073824 233.653124 
L 67.87728 229.934862 
L 72.680736 225.789915 
L 77.484192 222.315473 
L 82.287648 218.475301 
L 87.091104 216.951424 
L 91.89456 214.939905 
L 96.698016 213.964623 
L 101.501472 212.989342 
L 106.304928 212.745521 
L 111.108384 212.318835 
L 115.91184 212.075015 
L 120.715296 211.831195 
L 125.518752 211.648329 
L 130.322208 211.465464 
L 135.125664 211.343554 
L 139.92912 211.221644 
L 144.732576 211.099733 
L 149.536032 211.038778 
L 154.339488 210.916868 
L 159.142944 210.794958 
L 163.9464 210.734003 
L 168.749856 210.673048 
L 173.553312 210.551137 
L 178.356768 210.551137 
L 183.160224 210.429227 
L 187.96368 210.429227 
L 192.767136 210.368272 
L 197.570592 210.307317 
" clip-path="url(#p65897e7d22)" style="fill: none; stroke: #7ec75b; stroke-width: 2; stroke-linecap: square"/>
   </g>
   <g id="line2d_40">
    <path d="M 45.481166 257.181796 
L 47.102333 254.743591 
L 48.723499 252.610162 
L 50.344666 249.928138 
L 51.965832 248.465215 
L 53.586998 246.027011 
L 55.208165 244.381223 
L 56.829331 241.150602 
L 60.071664 238.224757 
L 63.313997 233.775034 
L 69.798662 224.326992 
L 76.283328 219.267718 
L 82.767994 211.404509 
L 89.252659 205.674729 
L 95.737325 197.141013 
L 102.22199 193.300841 
L 108.706656 186.778645 
L 115.191322 181.841281 
L 121.675987 175.562905 
L 128.160653 172.515149 
L 134.645318 168.309247 
L 141.129984 166.968234 
L 147.61465 163.493793 
L 154.099315 163.676659 
L 160.583981 161.54323 
L 167.068646 161.299409 
L 173.553312 159.287891 
L 180.037978 159.714576 
L 186.522643 158.434519 
L 193.007309 158.434519 
L 199.491974 157.093507 
L 205.97664 157.581148 
L 212.461306 156.666821 
L 218.945971 156.666821 
L 225.430637 155.630584 
L 231.915302 155.996315 
L 238.399968 155.325809 
L 244.884634 155.264853 
L 251.369299 153.740976 
" clip-path="url(#p65897e7d22)" style="fill: none; stroke: #da5252; stroke-width: 2; stroke-linecap: square"/>
   </g>
   <g id="line2d_41">
    <path d="M 45.841426 255.901738 
L 47.822851 252.305387 
L 49.804277 249.013811 
L 51.785702 245.173639 
L 53.767128 242.491614 
L 55.748554 238.773353 
L 57.729979 236.213238 
L 59.711405 231.336829 
L 63.674256 226.765196 
L 67.637107 219.694404 
L 75.56281 207.564337 
L 83.488512 199.883993 
L 91.414214 191.228368 
L 99.339917 183.304204 
L 107.265619 174.465713 
L 115.191322 167.51683 
L 123.117024 159.958397 
L 131.042726 152.887604 
L 138.968429 145.755856 
L 146.894131 139.59939 
L 154.819834 133.442924 
L 162.745536 127.713144 
L 170.671238 121.312858 
L 178.596941 116.92409 
L 186.522643 111.803861 
L 194.448346 106.744587 
L 202.374048 101.929133 
L 210.29975 97.662276 
L 218.225453 93.395418 
L 226.151155 89.494291 
L 234.076858 85.654119 
L 242.00256 82.301588 
L 249.928262 79.192878 
L 257.853965 76.267032 
L 265.779667 73.585008 
L 273.70537 71.268713 
L 281.631072 69.074329 
L 289.556774 67.306631 
L 297.482477 66.148484 
" clip-path="url(#p65897e7d22)" style="fill: none; stroke: #793b67; stroke-width: 2; stroke-linecap: square"/>
   </g>
   <g id="line2d_42">
    <path d="M 45.421123 257.425616 
L 46.982246 255.231232 
L 48.54337 253.402579 
L 50.104493 251.512971 
L 51.665616 249.501452 
L 53.226739 247.550888 
L 54.787862 245.844145 
L 56.348986 243.954537 
L 59.471232 240.602006 
L 62.593478 236.700879 
L 68.837971 231.397785 
L 75.082464 223.168845 
L 81.326957 217.926705 
L 87.57145 212.928387 
L 93.815942 208.173888 
L 100.060435 203.480345 
L 106.304928 198.908711 
L 112.549421 195.921911 
L 118.793914 192.874156 
L 125.038406 189.643535 
L 131.282899 186.96151 
L 137.527392 185.315722 
L 143.771885 184.645216 
L 150.016378 183.121338 
L 156.26087 181.47555 
L 162.505363 180.561224 
L 168.749856 179.707852 
L 174.994349 179.342122 
L 181.238842 178.549705 
L 187.483334 177.574423 
L 193.727827 176.964872 
L 199.97232 175.989591 
L 206.216813 174.648578 
L 212.461306 174.221892 
L 218.705798 173.551386 
L 224.950291 174.831443 
L 231.194784 175.014309 
L 237.439277 176.172456 
L 243.68377 176.599142 
" clip-path="url(#p65897e7d22)" style="fill: none; stroke: #ffe100; stroke-width: 2; stroke-linecap: square"/>
   </g>
   <g id="line2d_43">
    <path d="M 48.423283 252.183477 
L 52.986566 244.868864 
L 57.54985 238.956218 
L 62.113133 231.641605 
L 66.676416 226.765196 
L 71.239699 220.73064 
L 75.802982 215.244681 
L 80.366266 207.503382 
L 89.492832 200.005903 
L 98.619398 189.155894 
L 116.872531 166.114863 
L 135.125664 156.30109 
L 153.378797 141.671864 
L 171.63193 128.688426 
L 189.885062 93.273508 
L 208.138195 106.378856 
L 226.391328 94.797385 
L 244.644461 84.922658 
L 262.897594 71.390624 
L 281.150726 65.234158 
L 299.403859 55.176565 
L 317.656992 46.76476 
L 335.910125 50.726842 
L 354.163258 34.329917 
L 372.41639 28.539182 
L 390.669523 26.771484 
L 408.922656 20.249287 
L 427.175789 19.21305 
L 433 18.35727 
" clip-path="url(#p65897e7d22)" style="fill: none; stroke: #09047f; stroke-width: 2; stroke-linecap: square"/>
   </g>
   <g id="line2d_44">
    <path d="M 45.060864 255.657918 
L 46.261728 251.756791 
L 47.462592 248.16044 
L 48.663456 244.625043 
L 49.86432 241.150602 
L 51.065184 238.041891 
L 52.266048 234.994136 
L 53.466912 235.725597 
L 55.86864 231.397785 
L 58.270368 231.45874 
L 63.073824 231.641605 
L 67.87728 231.641605 
L 72.680736 231.70256 
L 77.484192 231.763515 
L 82.287648 231.763515 
L 87.091104 231.763515 
L 91.89456 231.82447 
L 96.698016 231.82447 
L 101.501472 231.82447 
L 106.304928 231.82447 
L 111.108384 231.82447 
L 115.91184 231.82447 
L 120.715296 231.763515 
" clip-path="url(#p65897e7d22)" style="fill: none; stroke: #296f20; stroke-width: 2; stroke-linecap: square"/>
   </g>
   <g id="patch_3">
    <path d="M 43.86 259.62 
L 43.86 0 
" style="fill: none; stroke: #bcbcbc; stroke-width: 0.8; stroke-linejoin: miter; stroke-linecap: square"/>
   </g>
   <g id="patch_4">
    <path d="M 419.13 259.62 
L 419.13 0 
" style="fill: none; stroke: #bcbcbc; stroke-width: 0.8; stroke-linejoin: miter; stroke-linecap: square"/>
   </g>
   <g id="patch_5">
    <path d="M 43.86 259.62 
L 419.13 259.62 
" style="fill: none; stroke: #bcbcbc; stroke-width: 0.8; stroke-linejoin: miter; stroke-linecap: square"/>
   </g>
   <g id="patch_6">
    <path d="M 43.86 0 
L 419.13 0 
" style="fill: none; stroke: #bcbcbc; stroke-width: 0.8; stroke-linejoin: miter; stroke-linecap: square"/>
   </g>
   <g id="legend_1">
    <g id="patch_7">
     <path d="M 50.86 125.425 
L 134.89125 125.425 
Q 136.89125 125.425 136.89125 123.425 
L 136.89125 7 
Q 136.89125 5 134.89125 5 
L 50.86 5 
Q 48.86 5 48.86 7 
L 48.86 123.425 
Q 48.86 125.425 50.86 125.425 
z
" style="fill: #ffffff; opacity: 0.8; stroke: #cccccc; stroke-width: 0.5; stroke-linejoin: miter"/>
    </g>
    <g id="line2d_45">
     <path d="M 52.86 13.098437 
L 62.86 13.098437 
L 72.86 13.098437 
" style="fill: none; stroke: #378abd; stroke-width: 2; stroke-linecap: square"/>
    </g>
    <g id="text_21">
     <!-- A40 -->
     <g transform="translate(80.86 16.598437) scale(0.1 -0.1)">
      <use xlink:href="#DejaVuSans-41"/>
      <use xlink:href="#DejaVuSans-34" transform="translate(68.408203 0)"/>
      <use xlink:href="#DejaVuSans-30" transform="translate(132.03125 0)"/>
     </g>
    </g>
    <g id="line2d_46">
     <path d="M 52.86 27.776563 
L 62.86 27.776563 
L 72.86 27.776563 
" style="fill: none; stroke: #ffb33a; stroke-width: 2; stroke-linecap: square"/>
    </g>
    <g id="text_22">
     <!-- L40 -->
     <g transform="translate(80.86 31.276563) scale(0.1 -0.1)">
      <defs>
       <path id="DejaVuSans-4c" d="M 628 4666 
L 1259 4666 
L 1259 531 
L 3531 531 
L 3531 0 
L 628 0 
L 628 4666 
z
" transform="scale(0.015625)"/>
      </defs>
      <use xlink:href="#DejaVuSans-4c"/>
      <use xlink:href="#DejaVuSans-34" transform="translate(55.712891 0)"/>
      <use xlink:href="#DejaVuSans-30" transform="translate(119.335938 0)"/>
     </g>
    </g>
    <g id="line2d_47">
     <path d="M 52.86 42.454687 
L 62.86 42.454687 
L 72.86 42.454687 
" style="fill: none; stroke: #7ec75b; stroke-width: 2; stroke-linecap: square"/>
    </g>
    <g id="text_23">
     <!-- V100 -->
     <g transform="translate(80.86 45.954687) scale(0.1 -0.1)">
      <defs>
       <path id="DejaVuSans-56" d="M 1831 0 
L 50 4666 
L 709 4666 
L 2188 738 
L 3669 4666 
L 4325 4666 
L 2547 0 
L 1831 0 
z
" transform="scale(0.015625)"/>
      </defs>
      <use xlink:href="#DejaVuSans-56"/>
      <use xlink:href="#DejaVuSans-31" transform="translate(68.408203 0)"/>
      <use xlink:href="#DejaVuSans-30" transform="translate(132.03125 0)"/>
      <use xlink:href="#DejaVuSans-30" transform="translate(195.654297 0)"/>
     </g>
    </g>
    <g id="line2d_48">
     <path d="M 52.86 57.132812 
L 62.86 57.132812 
L 72.86 57.132812 
" style="fill: none; stroke: #da5252; stroke-width: 2; stroke-linecap: square"/>
    </g>
    <g id="text_24">
     <!-- A100 -->
     <g transform="translate(80.86 60.632812) scale(0.1 -0.1)">
      <use xlink:href="#DejaVuSans-41"/>
      <use xlink:href="#DejaVuSans-31" transform="translate(68.408203 0)"/>
      <use xlink:href="#DejaVuSans-30" transform="translate(132.03125 0)"/>
      <use xlink:href="#DejaVuSans-30" transform="translate(195.654297 0)"/>
     </g>
    </g>
    <g id="line2d_49">
     <path d="M 52.86 71.810937 
L 62.86 71.810937 
L 72.86 71.810937 
" style="fill: none; stroke: #793b67; stroke-width: 2; stroke-linecap: square"/>
    </g>
    <g id="text_25">
     <!-- GH200 -->
     <g transform="translate(80.86 75.310937) scale(0.1 -0.1)">
      <defs>
       <path id="DejaVuSans-48" d="M 628 4666 
L 1259 4666 
L 1259 2753 
L 3553 2753 
L 3553 4666 
L 4184 4666 
L 4184 0 
L 3553 0 
L 3553 2222 
L 1259 2222 
L 1259 0 
L 628 0 
L 628 4666 
z
" transform="scale(0.015625)"/>
      </defs>
      <use xlink:href="#DejaVuSans-47"/>
      <use xlink:href="#DejaVuSans-48" transform="translate(77.490234 0)"/>
      <use xlink:href="#DejaVuSans-32" transform="translate(152.685547 0)"/>
      <use xlink:href="#DejaVuSans-30" transform="translate(216.308594 0)"/>
      <use xlink:href="#DejaVuSans-30" transform="translate(279.931641 0)"/>
     </g>
    </g>
    <g id="line2d_50">
     <path d="M 52.86 86.489062 
L 62.86 86.489062 
L 72.86 86.489062 
" style="fill: none; stroke: #ffe100; stroke-width: 2; stroke-linecap: square"/>
    </g>
    <g id="text_26">
     <!-- MI210 -->
     <g transform="translate(80.86 89.989062) scale(0.1 -0.1)">
      <defs>
       <path id="DejaVuSans-49" d="M 628 4666 
L 1259 4666 
L 1259 0 
L 628 0 
L 628 4666 
z
" transform="scale(0.015625)"/>
      </defs>
      <use xlink:href="#DejaVuSans-4d"/>
      <use xlink:href="#DejaVuSans-49" transform="translate(86.279297 0)"/>
      <use xlink:href="#DejaVuSans-32" transform="translate(115.771484 0)"/>
      <use xlink:href="#DejaVuSans-31" transform="translate(179.394531 0)"/>
      <use xlink:href="#DejaVuSans-30" transform="translate(243.017578 0)"/>
     </g>
    </g>
    <g id="line2d_51">
     <path d="M 52.86 101.167187 
L 62.86 101.167187 
L 72.86 101.167187 
" style="fill: none; stroke: #09047f; stroke-width: 2; stroke-linecap: square"/>
    </g>
    <g id="text_27">
     <!-- MI300X -->
     <g transform="translate(80.86 104.667187) scale(0.1 -0.1)">
      <defs>
       <path id="DejaVuSans-58" d="M 403 4666 
L 1081 4666 
L 2241 2931 
L 3406 4666 
L 4084 4666 
L 2584 2425 
L 4184 0 
L 3506 0 
L 2194 1984 
L 872 0 
L 191 0 
L 1856 2491 
L 403 4666 
z
" transform="scale(0.015625)"/>
      </defs>
      <use xlink:href="#DejaVuSans-4d"/>
      <use xlink:href="#DejaVuSans-49" transform="translate(86.279297 0)"/>
      <use xlink:href="#DejaVuSans-33" transform="translate(115.771484 0)"/>
      <use xlink:href="#DejaVuSans-30" transform="translate(179.394531 0)"/>
      <use xlink:href="#DejaVuSans-30" transform="translate(243.017578 0)"/>
      <use xlink:href="#DejaVuSans-58" transform="translate(306.640625 0)"/>
     </g>
    </g>
    <g id="line2d_52">
     <path d="M 52.86 115.845312 
L 62.86 115.845312 
L 72.86 115.845312 
" style="fill: none; stroke: #296f20; stroke-width: 2; stroke-linecap: square"/>
    </g>
    <g id="text_28">
     <!-- RX6900XT -->
     <g transform="translate(80.86 119.345312) scale(0.1 -0.1)">
      <defs>
       <path id="DejaVuSans-36" d="M 2113 2584 
Q 1688 2584 1439 2293 
Q 1191 2003 1191 1497 
Q 1191 994 1439 701 
Q 1688 409 2113 409 
Q 2538 409 2786 701 
Q 3034 994 3034 1497 
Q 3034 2003 2786 2293 
Q 2538 2584 2113 2584 
z
M 3366 4563 
L 3366 3988 
Q 3128 4100 2886 4159 
Q 2644 4219 2406 4219 
Q 1781 4219 1451 3797 
Q 1122 3375 1075 2522 
Q 1259 2794 1537 2939 
Q 1816 3084 2150 3084 
Q 2853 3084 3261 2657 
Q 3669 2231 3669 1497 
Q 3669 778 3244 343 
Q 2819 -91 2113 -91 
Q 1303 -91 875 529 
Q 447 1150 447 2328 
Q 447 3434 972 4092 
Q 1497 4750 2381 4750 
Q 2619 4750 2861 4703 
Q 3103 4656 3366 4563 
z
" transform="scale(0.015625)"/>
       <path id="DejaVuSans-39" d="M 703 97 
L 703 672 
Q 941 559 1184 500 
Q 1428 441 1663 441 
Q 2288 441 2617 861 
Q 2947 1281 2994 2138 
Q 2813 1869 2534 1725 
Q 2256 1581 1919 1581 
Q 1219 1581 811 2004 
Q 403 2428 403 3163 
Q 403 3881 828 4315 
Q 1253 4750 1959 4750 
Q 2769 4750 3195 4129 
Q 3622 3509 3622 2328 
Q 3622 1225 3098 567 
Q 2575 -91 1691 -91 
Q 1453 -91 1209 -44 
Q 966 3 703 97 
z
M 1959 2075 
Q 2384 2075 2632 2365 
Q 2881 2656 2881 3163 
Q 2881 3666 2632 3958 
Q 2384 4250 1959 4250 
Q 1534 4250 1286 3958 
Q 1038 3666 1038 3163 
Q 1038 2656 1286 2365 
Q 1534 2075 1959 2075 
z
" transform="scale(0.015625)"/>
       <path id="DejaVuSans-54" d="M -19 4666 
L 3928 4666 
L 3928 4134 
L 2272 4134 
L 2272 0 
L 1638 0 
L 1638 4134 
L -19 4134 
L -19 4666 
z
" transform="scale(0.015625)"/>
      </defs>
      <use xlink:href="#DejaVuSans-52"/>
      <use xlink:href="#DejaVuSans-58" transform="translate(69.482422 0)"/>
      <use xlink:href="#DejaVuSans-36" transform="translate(137.988281 0)"/>
      <use xlink:href="#DejaVuSans-39" transform="translate(201.611328 0)"/>
      <use xlink:href="#DejaVuSans-30" transform="translate(265.234375 0)"/>
      <use xlink:href="#DejaVuSans-30" transform="translate(328.857422 0)"/>
      <use xlink:href="#DejaVuSans-58" transform="translate(392.480469 0)"/>
      <use xlink:href="#DejaVuSans-54" transform="translate(459.236328 0)"/>
     </g>
    </g>
   </g>
  </g>
 </g>
 <defs>
  <clipPath id="p65897e7d22">
   <rect x="43.86" y="0" width="375.27" height="259.62"/>
  </clipPath>
 </defs>
</svg>
