<?xml version="1.0" encoding="utf-8" standalone="no"?>
<!DOCTYPE svg PUBLIC "-//W3C//DTD SVG 1.1//EN"
  "http://www.w3.org/Graphics/SVG/1.1/DTD/svg11.dtd">
<svg xmlns:xlink="http://www.w3.org/1999/xlink" width="576pt" height="288pt" viewBox="0 0 576 288" xmlns="http://www.w3.org/2000/svg" version="1.1">
 <metadata>
  <rdf:RDF xmlns:dc="http://purl.org/dc/elements/1.1/" xmlns:cc="http://creativecommons.org/ns#" xmlns:rdf="http://www.w3.org/1999/02/22-rdf-syntax-ns#">
   <cc:Work>
    <dc:type rdf:resource="http://purl.org/dc/dcmitype/StillImage"/>
    <dc:date>2025-10-23T19:19:25.964451</dc:date>
    <dc:format>image/svg+xml</dc:format>
    <dc:creator>
     <cc:Agent>
      <dc:title>Matplotlib v3.10.7, https://matplotlib.org/</dc:title>
     </cc:Agent>
    </dc:creator>
   </cc:Work>
  </rdf:RDF>
 </metadata>
 <defs>
  <style type="text/css">*{stroke-linejoin: round; stroke-linecap: butt}</style>
 </defs>
 <g id="figure_1">
  <g id="patch_1">
   <path d="M 0 288 
L 576 288 
L 576 0 
L 0 0 
z
" style="fill: #ffffff"/>
  </g>
  <g id="axes_1">
   <g id="patch_2">
    <path d="M 62.85 229.110464 
L 565.2 229.110464 
L 565.2 10.8 
L 62.85 10.8 
z
" style="fill: #ffffff"/>
   </g>
   <g id="matplotlib.axis_1">
    <g id="xtick_1">
     <g id="line2d_1">
      <path d="M 96.59001 229.110464 
L 96.59001 10.8 
" clip-path="url(#pa1dbb697d4)" style="fill: none; stroke-dasharray: 1.85,0.8; stroke-dashoffset: 0; stroke: #b2b2b2; stroke-width: 0.5"/>
     </g>
     <g id="line2d_2">
      <defs>
       <path id="m6a13340ec9" d="M 0 0 
L 0 -3.5 
" style="stroke: #000000; stroke-width: 0.8"/>
      </defs>
      <g>
       <use xlink:href="#m6a13340ec9" x="96.59001" y="229.110464" style="stroke: #000000; stroke-width: 0.8"/>
      </g>
     </g>
     <g id="text_1">
      <!-- 4 kB -->
      <g transform="translate(76.331168 250.286998) rotate(-30) scale(0.1 -0.1)">
       <defs>
        <path id="DejaVuSans-34" d="M 2419 4116 
L 825 1625 
L 2419 1625 
L 2419 4116 
z
M 2253 4666 
L 3047 4666 
L 3047 1625 
L 3713 1625 
L 3713 1100 
L 3047 1100 
L 3047 0 
L 2419 0 
L 2419 1100 
L 313 1100 
L 313 1709 
L 2253 4666 
z
" transform="scale(0.015625)"/>
        <path id="DejaVuSans-20" transform="scale(0.015625)"/>
        <path id="DejaVuSans-6b" d="M 581 4863 
L 1159 4863 
L 1159 1991 
L 2875 3500 
L 3609 3500 
L 1753 1863 
L 3688 0 
L 2938 0 
L 1159 1709 
L 1159 0 
L 581 0 
L 581 4863 
z
" transform="scale(0.015625)"/>
        <path id="DejaVuSans-42" d="M 1259 2228 
L 1259 519 
L 2272 519 
Q 2781 519 3026 730 
Q 3272 941 3272 1375 
Q 3272 1813 3026 2020 
Q 2781 2228 2272 2228 
L 1259 2228 
z
M 1259 4147 
L 1259 2741 
L 2194 2741 
Q 2656 2741 2882 2914 
Q 3109 3088 3109 3444 
Q 3109 3797 2882 3972 
Q 2656 4147 2194 4147 
L 1259 4147 
z
M 628 4666 
L 2241 4666 
Q 2963 4666 3353 4366 
Q 3744 4066 3744 3513 
Q 3744 3084 3544 2831 
Q 3344 2578 2956 2516 
Q 3422 2416 3680 2098 
Q 3938 1781 3938 1306 
Q 3938 681 3513 340 
Q 3088 0 2303 0 
L 628 0 
L 628 4666 
z
" transform="scale(0.015625)"/>
       </defs>
       <use xlink:href="#DejaVuSans-34"/>
       <use xlink:href="#DejaVuSans-20" transform="translate(63.623047 0)"/>
       <use xlink:href="#DejaVuSans-6b" transform="translate(95.410156 0)"/>
       <use xlink:href="#DejaVuSans-42" transform="translate(153.320312 0)"/>
      </g>
     </g>
    </g>
    <g id="xtick_2">
     <g id="line2d_3">
      <path d="M 155.166259 229.110464 
L 155.166259 10.8 
" clip-path="url(#pa1dbb697d4)" style="fill: none; stroke-dasharray: 1.85,0.8; stroke-dashoffset: 0; stroke: #b2b2b2; stroke-width: 0.5"/>
     </g>
     <g id="line2d_4">
      <g>
       <use xlink:href="#m6a13340ec9" x="155.166259" y="229.110464" style="stroke: #000000; stroke-width: 0.8"/>
      </g>
     </g>
     <g id="text_2">
      <!-- 16 kB -->
      <g transform="translate(129.39733 253.468248) rotate(-30) scale(0.1 -0.1)">
       <defs>
        <path id="DejaVuSans-31" d="M 794 531 
L 1825 531 
L 1825 4091 
L 703 3866 
L 703 4441 
L 1819 4666 
L 2450 4666 
L 2450 531 
L 3481 531 
L 3481 0 
L 794 0 
L 794 531 
z
" transform="scale(0.015625)"/>
        <path id="DejaVuSans-36" d="M 2113 2584 
Q 1688 2584 1439 2293 
Q 1191 2003 1191 1497 
Q 1191 994 1439 701 
Q 1688 409 2113 409 
Q 2538 409 2786 701 
Q 3034 994 3034 1497 
Q 3034 2003 2786 2293 
Q 2538 2584 2113 2584 
z
M 3366 4563 
L 3366 3988 
Q 3128 4100 2886 4159 
Q 2644 4219 2406 4219 
Q 1781 4219 1451 3797 
Q 1122 3375 1075 2522 
Q 1259 2794 1537 2939 
Q 1816 3084 2150 3084 
Q 2853 3084 3261 2657 
Q 3669 2231 3669 1497 
Q 3669 778 3244 343 
Q 2819 -91 2113 -91 
Q 1303 -91 875 529 
Q 447 1150 447 2328 
Q 447 3434 972 4092 
Q 1497 4750 2381 4750 
Q 2619 4750 2861 4703 
Q 3103 4656 3366 4563 
z
" transform="scale(0.015625)"/>
       </defs>
       <use xlink:href="#DejaVuSans-31"/>
       <use xlink:href="#DejaVuSans-36" transform="translate(63.623047 0)"/>
       <use xlink:href="#DejaVuSans-20" transform="translate(127.246094 0)"/>
       <use xlink:href="#DejaVuSans-6b" transform="translate(159.033203 0)"/>
       <use xlink:href="#DejaVuSans-42" transform="translate(216.943359 0)"/>
      </g>
     </g>
    </g>
    <g id="xtick_3">
     <g id="line2d_5">
      <path d="M 243.030632 229.110464 
L 243.030632 10.8 
" clip-path="url(#pa1dbb697d4)" style="fill: none; stroke-dasharray: 1.85,0.8; stroke-dashoffset: 0; stroke: #b2b2b2; stroke-width: 0.5"/>
     </g>
     <g id="line2d_6">
      <g>
       <use xlink:href="#m6a13340ec9" x="243.030632" y="229.110464" style="stroke: #000000; stroke-width: 0.8"/>
      </g>
     </g>
     <g id="text_3">
      <!-- 128 kB -->
      <g transform="translate(211.751617 256.649498) rotate(-30) scale(0.1 -0.1)">
       <defs>
        <path id="DejaVuSans-32" d="M 1228 531 
L 3431 531 
L 3431 0 
L 469 0 
L 469 531 
Q 828 903 1448 1529 
Q 2069 2156 2228 2338 
Q 2531 2678 2651 2914 
Q 2772 3150 2772 3378 
Q 2772 3750 2511 3984 
Q 2250 4219 1831 4219 
Q 1534 4219 1204 4116 
Q 875 4013 500 3803 
L 500 4441 
Q 881 4594 1212 4672 
Q 1544 4750 1819 4750 
Q 2544 4750 2975 4387 
Q 3406 4025 3406 3419 
Q 3406 3131 3298 2873 
Q 3191 2616 2906 2266 
Q 2828 2175 2409 1742 
Q 1991 1309 1228 531 
z
" transform="scale(0.015625)"/>
        <path id="DejaVuSans-38" d="M 2034 2216 
Q 1584 2216 1326 1975 
Q 1069 1734 1069 1313 
Q 1069 891 1326 650 
Q 1584 409 2034 409 
Q 2484 409 2743 651 
Q 3003 894 3003 1313 
Q 3003 1734 2745 1975 
Q 2488 2216 2034 2216 
z
M 1403 2484 
Q 997 2584 770 2862 
Q 544 3141 544 3541 
Q 544 4100 942 4425 
Q 1341 4750 2034 4750 
Q 2731 4750 3128 4425 
Q 3525 4100 3525 3541 
Q 3525 3141 3298 2862 
Q 3072 2584 2669 2484 
Q 3125 2378 3379 2068 
Q 3634 1759 3634 1313 
Q 3634 634 3220 271 
Q 2806 -91 2034 -91 
Q 1263 -91 848 271 
Q 434 634 434 1313 
Q 434 1759 690 2068 
Q 947 2378 1403 2484 
z
M 1172 3481 
Q 1172 3119 1398 2916 
Q 1625 2713 2034 2713 
Q 2441 2713 2670 2916 
Q 2900 3119 2900 3481 
Q 2900 3844 2670 4047 
Q 2441 4250 2034 4250 
Q 1625 4250 1398 4047 
Q 1172 3844 1172 3481 
z
" transform="scale(0.015625)"/>
       </defs>
       <use xlink:href="#DejaVuSans-31"/>
       <use xlink:href="#DejaVuSans-32" transform="translate(63.623047 0)"/>
       <use xlink:href="#DejaVuSans-38" transform="translate(127.246094 0)"/>
       <use xlink:href="#DejaVuSans-20" transform="translate(190.869141 0)"/>
       <use xlink:href="#DejaVuSans-6b" transform="translate(222.65625 0)"/>
       <use xlink:href="#DejaVuSans-42" transform="translate(280.566406 0)"/>
      </g>
     </g>
    </g>
    <g id="xtick_4">
     <g id="line2d_7">
      <path d="M 272.318756 229.110464 
L 272.318756 10.8 
" clip-path="url(#pa1dbb697d4)" style="fill: none; stroke-dasharray: 1.85,0.8; stroke-dashoffset: 0; stroke: #b2b2b2; stroke-width: 0.5"/>
     </g>
     <g id="line2d_8">
      <g>
       <use xlink:href="#m6a13340ec9" x="272.318756" y="229.110464" style="stroke: #000000; stroke-width: 0.8"/>
      </g>
     </g>
     <g id="text_4">
      <!-- 256 kB -->
      <g transform="translate(241.039741 256.649498) rotate(-30) scale(0.1 -0.1)">
       <defs>
        <path id="DejaVuSans-35" d="M 691 4666 
L 3169 4666 
L 3169 4134 
L 1269 4134 
L 1269 2991 
Q 1406 3038 1543 3061 
Q 1681 3084 1819 3084 
Q 2600 3084 3056 2656 
Q 3513 2228 3513 1497 
Q 3513 744 3044 326 
Q 2575 -91 1722 -91 
Q 1428 -91 1123 -41 
Q 819 9 494 109 
L 494 744 
Q 775 591 1075 516 
Q 1375 441 1709 441 
Q 2250 441 2565 725 
Q 2881 1009 2881 1497 
Q 2881 1984 2565 2268 
Q 2250 2553 1709 2553 
Q 1456 2553 1204 2497 
Q 953 2441 691 2322 
L 691 4666 
z
" transform="scale(0.015625)"/>
       </defs>
       <use xlink:href="#DejaVuSans-32"/>
       <use xlink:href="#DejaVuSans-35" transform="translate(63.623047 0)"/>
       <use xlink:href="#DejaVuSans-36" transform="translate(127.246094 0)"/>
       <use xlink:href="#DejaVuSans-20" transform="translate(190.869141 0)"/>
       <use xlink:href="#DejaVuSans-6b" transform="translate(222.65625 0)"/>
       <use xlink:href="#DejaVuSans-42" transform="translate(280.566406 0)"/>
      </g>
     </g>
    </g>
    <g id="xtick_5">
     <g id="line2d_9">
      <path d="M 406.603708 229.110464 
L 406.603708 10.8 
" clip-path="url(#pa1dbb697d4)" style="fill: none; stroke-dasharray: 1.85,0.8; stroke-dashoffset: 0; stroke: #b2b2b2; stroke-width: 0.5"/>
     </g>
     <g id="line2d_10">
      <g>
       <use xlink:href="#m6a13340ec9" x="406.603708" y="229.110464" style="stroke: #000000; stroke-width: 0.8"/>
      </g>
     </g>
     <g id="text_5">
      <!-- 6 MB -->
      <g transform="translate(383.887519 251.705748) rotate(-30) scale(0.1 -0.1)">
       <defs>
        <path id="DejaVuSans-4d" d="M 628 4666 
L 1569 4666 
L 2759 1491 
L 3956 4666 
L 4897 4666 
L 4897 0 
L 4281 0 
L 4281 4097 
L 3078 897 
L 2444 897 
L 1241 4097 
L 1241 0 
L 628 0 
L 628 4666 
z
" transform="scale(0.015625)"/>
       </defs>
       <use xlink:href="#DejaVuSans-36"/>
       <use xlink:href="#DejaVuSans-20" transform="translate(63.623047 0)"/>
       <use xlink:href="#DejaVuSans-4d" transform="translate(95.410156 0)"/>
       <use xlink:href="#DejaVuSans-42" transform="translate(181.689453 0)"/>
      </g>
     </g>
    </g>
    <g id="xtick_6">
     <g id="line2d_11">
      <path d="M 457.476173 229.110464 
L 457.476173 10.8 
" clip-path="url(#pa1dbb697d4)" style="fill: none; stroke-dasharray: 1.85,0.8; stroke-dashoffset: 0; stroke: #b2b2b2; stroke-width: 0.5"/>
     </g>
     <g id="line2d_12">
      <g>
       <use xlink:href="#m6a13340ec9" x="457.476173" y="229.110464" style="stroke: #000000; stroke-width: 0.8"/>
      </g>
     </g>
     <g id="text_6">
      <!-- 20 MB -->
      <g transform="translate(429.249897 254.886998) rotate(-30) scale(0.1 -0.1)">
       <defs>
        <path id="DejaVuSans-30" d="M 2034 4250 
Q 1547 4250 1301 3770 
Q 1056 3291 1056 2328 
Q 1056 1369 1301 889 
Q 1547 409 2034 409 
Q 2525 409 2770 889 
Q 3016 1369 3016 2328 
Q 3016 3291 2770 3770 
Q 2525 4250 2034 4250 
z
M 2034 4750 
Q 2819 4750 3233 4129 
Q 3647 3509 3647 2328 
Q 3647 1150 3233 529 
Q 2819 -91 2034 -91 
Q 1250 -91 836 529 
Q 422 1150 422 2328 
Q 422 3509 836 4129 
Q 1250 4750 2034 4750 
z
" transform="scale(0.015625)"/>
       </defs>
       <use xlink:href="#DejaVuSans-32"/>
       <use xlink:href="#DejaVuSans-30" transform="translate(63.623047 0)"/>
       <use xlink:href="#DejaVuSans-20" transform="translate(127.246094 0)"/>
       <use xlink:href="#DejaVuSans-4d" transform="translate(159.033203 0)"/>
       <use xlink:href="#DejaVuSans-42" transform="translate(245.3125 0)"/>
      </g>
     </g>
    </g>
    <g id="xtick_7">
     <g id="line2d_13">
      <path d="M 486.764297 229.110464 
L 486.764297 10.8 
" clip-path="url(#pa1dbb697d4)" style="fill: none; stroke-dasharray: 1.85,0.8; stroke-dashoffset: 0; stroke: #b2b2b2; stroke-width: 0.5"/>
     </g>
     <g id="line2d_14">
      <g>
       <use xlink:href="#m6a13340ec9" x="486.764297" y="229.110464" style="stroke: #000000; stroke-width: 0.8"/>
      </g>
     </g>
     <g id="text_7">
      <!-- 40 MB -->
      <g transform="translate(458.538021 254.886998) rotate(-30) scale(0.1 -0.1)">
       <use xlink:href="#DejaVuSans-34"/>
       <use xlink:href="#DejaVuSans-30" transform="translate(63.623047 0)"/>
       <use xlink:href="#DejaVuSans-20" transform="translate(127.246094 0)"/>
       <use xlink:href="#DejaVuSans-4d" transform="translate(159.033203 0)"/>
       <use xlink:href="#DejaVuSans-42" transform="translate(245.3125 0)"/>
      </g>
     </g>
    </g>
    <g id="xtick_8">
     <g id="line2d_15">
      <path d="M 535.911876 229.110464 
L 535.911876 10.8 
" clip-path="url(#pa1dbb697d4)" style="fill: none; stroke-dasharray: 1.85,0.8; stroke-dashoffset: 0; stroke: #b2b2b2; stroke-width: 0.5"/>
     </g>
     <g id="line2d_16">
      <g>
       <use xlink:href="#m6a13340ec9" x="535.911876" y="229.110464" style="stroke: #000000; stroke-width: 0.8"/>
      </g>
     </g>
     <g id="text_8">
      <!-- 128 MB -->
      <g transform="translate(502.175513 258.068248) rotate(-30) scale(0.1 -0.1)">
       <use xlink:href="#DejaVuSans-31"/>
       <use xlink:href="#DejaVuSans-32" transform="translate(63.623047 0)"/>
       <use xlink:href="#DejaVuSans-38" transform="translate(127.246094 0)"/>
       <use xlink:href="#DejaVuSans-20" transform="translate(190.869141 0)"/>
       <use xlink:href="#DejaVuSans-4d" transform="translate(222.65625 0)"/>
       <use xlink:href="#DejaVuSans-42" transform="translate(308.935547 0)"/>
      </g>
     </g>
    </g>
    <g id="text_9">
     <!-- data volume per SM/CU, kB -->
     <g transform="translate(231.600937 272.987435) scale(0.12 -0.12)">
      <defs>
       <path id="DejaVuSans-64" d="M 2906 2969 
L 2906 4863 
L 3481 4863 
L 3481 0 
L 2906 0 
L 2906 525 
Q 2725 213 2448 61 
Q 2172 -91 1784 -91 
Q 1150 -91 751 415 
Q 353 922 353 1747 
Q 353 2572 751 3078 
Q 1150 3584 1784 3584 
Q 2172 3584 2448 3432 
Q 2725 3281 2906 2969 
z
M 947 1747 
Q 947 1113 1208 752 
Q 1469 391 1925 391 
Q 2381 391 2643 752 
Q 2906 1113 2906 1747 
Q 2906 2381 2643 2742 
Q 2381 3103 1925 3103 
Q 1469 3103 1208 2742 
Q 947 2381 947 1747 
z
" transform="scale(0.015625)"/>
       <path id="DejaVuSans-61" d="M 2194 1759 
Q 1497 1759 1228 1600 
Q 959 1441 959 1056 
Q 959 750 1161 570 
Q 1363 391 1709 391 
Q 2188 391 2477 730 
Q 2766 1069 2766 1631 
L 2766 1759 
L 2194 1759 
z
M 3341 1997 
L 3341 0 
L 2766 0 
L 2766 531 
Q 2569 213 2275 61 
Q 1981 -91 1556 -91 
Q 1019 -91 701 211 
Q 384 513 384 1019 
Q 384 1609 779 1909 
Q 1175 2209 1959 2209 
L 2766 2209 
L 2766 2266 
Q 2766 2663 2505 2880 
Q 2244 3097 1772 3097 
Q 1472 3097 1187 3025 
Q 903 2953 641 2809 
L 641 3341 
Q 956 3463 1253 3523 
Q 1550 3584 1831 3584 
Q 2591 3584 2966 3190 
Q 3341 2797 3341 1997 
z
" transform="scale(0.015625)"/>
       <path id="DejaVuSans-74" d="M 1172 4494 
L 1172 3500 
L 2356 3500 
L 2356 3053 
L 1172 3053 
L 1172 1153 
Q 1172 725 1289 603 
Q 1406 481 1766 481 
L 2356 481 
L 2356 0 
L 1766 0 
Q 1100 0 847 248 
Q 594 497 594 1153 
L 594 3053 
L 172 3053 
L 172 3500 
L 594 3500 
L 594 4494 
L 1172 4494 
z
" transform="scale(0.015625)"/>
       <path id="DejaVuSans-76" d="M 191 3500 
L 800 3500 
L 1894 563 
L 2988 3500 
L 3597 3500 
L 2284 0 
L 1503 0 
L 191 3500 
z
" transform="scale(0.015625)"/>
       <path id="DejaVuSans-6f" d="M 1959 3097 
Q 1497 3097 1228 2736 
Q 959 2375 959 1747 
Q 959 1119 1226 758 
Q 1494 397 1959 397 
Q 2419 397 2687 759 
Q 2956 1122 2956 1747 
Q 2956 2369 2687 2733 
Q 2419 3097 1959 3097 
z
M 1959 3584 
Q 2709 3584 3137 3096 
Q 3566 2609 3566 1747 
Q 3566 888 3137 398 
Q 2709 -91 1959 -91 
Q 1206 -91 779 398 
Q 353 888 353 1747 
Q 353 2609 779 3096 
Q 1206 3584 1959 3584 
z
" transform="scale(0.015625)"/>
       <path id="DejaVuSans-6c" d="M 603 4863 
L 1178 4863 
L 1178 0 
L 603 0 
L 603 4863 
z
" transform="scale(0.015625)"/>
       <path id="DejaVuSans-75" d="M 544 1381 
L 544 3500 
L 1119 3500 
L 1119 1403 
Q 1119 906 1312 657 
Q 1506 409 1894 409 
Q 2359 409 2629 706 
Q 2900 1003 2900 1516 
L 2900 3500 
L 3475 3500 
L 3475 0 
L 2900 0 
L 2900 538 
Q 2691 219 2414 64 
Q 2138 -91 1772 -91 
Q 1169 -91 856 284 
Q 544 659 544 1381 
z
M 1991 3584 
L 1991 3584 
z
" transform="scale(0.015625)"/>
       <path id="DejaVuSans-6d" d="M 3328 2828 
Q 3544 3216 3844 3400 
Q 4144 3584 4550 3584 
Q 5097 3584 5394 3201 
Q 5691 2819 5691 2113 
L 5691 0 
L 5113 0 
L 5113 2094 
Q 5113 2597 4934 2840 
Q 4756 3084 4391 3084 
Q 3944 3084 3684 2787 
Q 3425 2491 3425 1978 
L 3425 0 
L 2847 0 
L 2847 2094 
Q 2847 2600 2669 2842 
Q 2491 3084 2119 3084 
Q 1678 3084 1418 2786 
Q 1159 2488 1159 1978 
L 1159 0 
L 581 0 
L 581 3500 
L 1159 3500 
L 1159 2956 
Q 1356 3278 1631 3431 
Q 1906 3584 2284 3584 
Q 2666 3584 2933 3390 
Q 3200 3197 3328 2828 
z
" transform="scale(0.015625)"/>
       <path id="DejaVuSans-65" d="M 3597 1894 
L 3597 1613 
L 953 1613 
Q 991 1019 1311 708 
Q 1631 397 2203 397 
Q 2534 397 2845 478 
Q 3156 559 3463 722 
L 3463 178 
Q 3153 47 2828 -22 
Q 2503 -91 2169 -91 
Q 1331 -91 842 396 
Q 353 884 353 1716 
Q 353 2575 817 3079 
Q 1281 3584 2069 3584 
Q 2775 3584 3186 3129 
Q 3597 2675 3597 1894 
z
M 3022 2063 
Q 3016 2534 2758 2815 
Q 2500 3097 2075 3097 
Q 1594 3097 1305 2825 
Q 1016 2553 972 2059 
L 3022 2063 
z
" transform="scale(0.015625)"/>
       <path id="DejaVuSans-70" d="M 1159 525 
L 1159 -1331 
L 581 -1331 
L 581 3500 
L 1159 3500 
L 1159 2969 
Q 1341 3281 1617 3432 
Q 1894 3584 2278 3584 
Q 2916 3584 3314 3078 
Q 3713 2572 3713 1747 
Q 3713 922 3314 415 
Q 2916 -91 2278 -91 
Q 1894 -91 1617 61 
Q 1341 213 1159 525 
z
M 3116 1747 
Q 3116 2381 2855 2742 
Q 2594 3103 2138 3103 
Q 1681 3103 1420 2742 
Q 1159 2381 1159 1747 
Q 1159 1113 1420 752 
Q 1681 391 2138 391 
Q 2594 391 2855 752 
Q 3116 1113 3116 1747 
z
" transform="scale(0.015625)"/>
       <path id="DejaVuSans-72" d="M 2631 2963 
Q 2534 3019 2420 3045 
Q 2306 3072 2169 3072 
Q 1681 3072 1420 2755 
Q 1159 2438 1159 1844 
L 1159 0 
L 581 0 
L 581 3500 
L 1159 3500 
L 1159 2956 
Q 1341 3275 1631 3429 
Q 1922 3584 2338 3584 
Q 2397 3584 2469 3576 
Q 2541 3569 2628 3553 
L 2631 2963 
z
" transform="scale(0.015625)"/>
       <path id="DejaVuSans-53" d="M 3425 4513 
L 3425 3897 
Q 3066 4069 2747 4153 
Q 2428 4238 2131 4238 
Q 1616 4238 1336 4038 
Q 1056 3838 1056 3469 
Q 1056 3159 1242 3001 
Q 1428 2844 1947 2747 
L 2328 2669 
Q 3034 2534 3370 2195 
Q 3706 1856 3706 1288 
Q 3706 609 3251 259 
Q 2797 -91 1919 -91 
Q 1588 -91 1214 -16 
Q 841 59 441 206 
L 441 856 
Q 825 641 1194 531 
Q 1563 422 1919 422 
Q 2459 422 2753 634 
Q 3047 847 3047 1241 
Q 3047 1584 2836 1778 
Q 2625 1972 2144 2069 
L 1759 2144 
Q 1053 2284 737 2584 
Q 422 2884 422 3419 
Q 422 4038 858 4394 
Q 1294 4750 2059 4750 
Q 2388 4750 2728 4690 
Q 3069 4631 3425 4513 
z
" transform="scale(0.015625)"/>
       <path id="DejaVuSans-2f" d="M 1625 4666 
L 2156 4666 
L 531 -594 
L 0 -594 
L 1625 4666 
z
" transform="scale(0.015625)"/>
       <path id="DejaVuSans-43" d="M 4122 4306 
L 4122 3641 
Q 3803 3938 3442 4084 
Q 3081 4231 2675 4231 
Q 1875 4231 1450 3742 
Q 1025 3253 1025 2328 
Q 1025 1406 1450 917 
Q 1875 428 2675 428 
Q 3081 428 3442 575 
Q 3803 722 4122 1019 
L 4122 359 
Q 3791 134 3420 21 
Q 3050 -91 2638 -91 
Q 1578 -91 968 557 
Q 359 1206 359 2328 
Q 359 3453 968 4101 
Q 1578 4750 2638 4750 
Q 3056 4750 3426 4639 
Q 3797 4528 4122 4306 
z
" transform="scale(0.015625)"/>
       <path id="DejaVuSans-55" d="M 556 4666 
L 1191 4666 
L 1191 1831 
Q 1191 1081 1462 751 
Q 1734 422 2344 422 
Q 2950 422 3222 751 
Q 3494 1081 3494 1831 
L 3494 4666 
L 4128 4666 
L 4128 1753 
Q 4128 841 3676 375 
Q 3225 -91 2344 -91 
Q 1459 -91 1007 375 
Q 556 841 556 1753 
L 556 4666 
z
" transform="scale(0.015625)"/>
       <path id="DejaVuSans-2c" d="M 750 794 
L 1409 794 
L 1409 256 
L 897 -744 
L 494 -744 
L 750 256 
L 750 794 
z
" transform="scale(0.015625)"/>
      </defs>
      <use xlink:href="#DejaVuSans-64"/>
      <use xlink:href="#DejaVuSans-61" transform="translate(63.476562 0)"/>
      <use xlink:href="#DejaVuSans-74" transform="translate(124.755859 0)"/>
      <use xlink:href="#DejaVuSans-61" transform="translate(163.964844 0)"/>
      <use xlink:href="#DejaVuSans-20" transform="translate(225.244141 0)"/>
      <use xlink:href="#DejaVuSans-76" transform="translate(257.03125 0)"/>
      <use xlink:href="#DejaVuSans-6f" transform="translate(316.210938 0)"/>
      <use xlink:href="#DejaVuSans-6c" transform="translate(377.392578 0)"/>
      <use xlink:href="#DejaVuSans-75" transform="translate(405.175781 0)"/>
      <use xlink:href="#DejaVuSans-6d" transform="translate(468.554688 0)"/>
      <use xlink:href="#DejaVuSans-65" transform="translate(565.966797 0)"/>
      <use xlink:href="#DejaVuSans-20" transform="translate(627.490234 0)"/>
      <use xlink:href="#DejaVuSans-70" transform="translate(659.277344 0)"/>
      <use xlink:href="#DejaVuSans-65" transform="translate(722.753906 0)"/>
      <use xlink:href="#DejaVuSans-72" transform="translate(784.277344 0)"/>
      <use xlink:href="#DejaVuSans-20" transform="translate(825.390625 0)"/>
      <use xlink:href="#DejaVuSans-53" transform="translate(857.177734 0)"/>
      <use xlink:href="#DejaVuSans-4d" transform="translate(920.654297 0)"/>
      <use xlink:href="#DejaVuSans-2f" transform="translate(1006.933594 0)"/>
      <use xlink:href="#DejaVuSans-43" transform="translate(1040.625 0)"/>
      <use xlink:href="#DejaVuSans-55" transform="translate(1110.449219 0)"/>
      <use xlink:href="#DejaVuSans-2c" transform="translate(1183.642578 0)"/>
      <use xlink:href="#DejaVuSans-20" transform="translate(1215.429688 0)"/>
      <use xlink:href="#DejaVuSans-6b" transform="translate(1247.216797 0)"/>
      <use xlink:href="#DejaVuSans-42" transform="translate(1305.126953 0)"/>
     </g>
    </g>
   </g>
   <g id="matplotlib.axis_2">
    <g id="ytick_1">
     <g id="line2d_17">
      <path d="M 62.85 229.110464 
L 565.2 229.110464 
" clip-path="url(#pa1dbb697d4)" style="fill: none; stroke-dasharray: 1.85,0.8; stroke-dashoffset: 0; stroke: #b2b2b2; stroke-width: 0.5"/>
     </g>
     <g id="line2d_18">
      <defs>
       <path id="m941496fbf8" d="M 0 0 
L 3.5 0 
" style="stroke: #000000; stroke-width: 0.8"/>
      </defs>
      <g>
       <use xlink:href="#m941496fbf8" x="62.85" y="229.110464" style="stroke: #000000; stroke-width: 0.8"/>
      </g>
     </g>
     <g id="text_10">
      <!-- 0 -->
      <g transform="translate(52.9875 232.909683) scale(0.1 -0.1)">
       <use xlink:href="#DejaVuSans-30"/>
      </g>
     </g>
    </g>
    <g id="ytick_2">
     <g id="line2d_19">
      <path d="M 62.85 180.934566 
L 565.2 180.934566 
" clip-path="url(#pa1dbb697d4)" style="fill: none; stroke-dasharray: 1.85,0.8; stroke-dashoffset: 0; stroke: #b2b2b2; stroke-width: 0.5"/>
     </g>
     <g id="line2d_20">
      <g>
       <use xlink:href="#m941496fbf8" x="62.85" y="180.934566" style="stroke: #000000; stroke-width: 0.8"/>
      </g>
     </g>
     <g id="text_11">
      <!-- 10000 -->
      <g transform="translate(27.5375 184.733784) scale(0.1 -0.1)">
       <use xlink:href="#DejaVuSans-31"/>
       <use xlink:href="#DejaVuSans-30" transform="translate(63.623047 0)"/>
       <use xlink:href="#DejaVuSans-30" transform="translate(127.246094 0)"/>
       <use xlink:href="#DejaVuSans-30" transform="translate(190.869141 0)"/>
       <use xlink:href="#DejaVuSans-30" transform="translate(254.492188 0)"/>
      </g>
     </g>
    </g>
    <g id="ytick_3">
     <g id="line2d_21">
      <path d="M 62.85 132.758667 
L 565.2 132.758667 
" clip-path="url(#pa1dbb697d4)" style="fill: none; stroke-dasharray: 1.85,0.8; stroke-dashoffset: 0; stroke: #b2b2b2; stroke-width: 0.5"/>
     </g>
     <g id="line2d_22">
      <g>
       <use xlink:href="#m941496fbf8" x="62.85" y="132.758667" style="stroke: #000000; stroke-width: 0.8"/>
      </g>
     </g>
     <g id="text_12">
      <!-- 20000 -->
      <g transform="translate(27.5375 136.557886) scale(0.1 -0.1)">
       <use xlink:href="#DejaVuSans-32"/>
       <use xlink:href="#DejaVuSans-30" transform="translate(63.623047 0)"/>
       <use xlink:href="#DejaVuSans-30" transform="translate(127.246094 0)"/>
       <use xlink:href="#DejaVuSans-30" transform="translate(190.869141 0)"/>
       <use xlink:href="#DejaVuSans-30" transform="translate(254.492188 0)"/>
      </g>
     </g>
    </g>
    <g id="ytick_4">
     <g id="line2d_23">
      <path d="M 62.85 84.582769 
L 565.2 84.582769 
" clip-path="url(#pa1dbb697d4)" style="fill: none; stroke-dasharray: 1.85,0.8; stroke-dashoffset: 0; stroke: #b2b2b2; stroke-width: 0.5"/>
     </g>
     <g id="line2d_24">
      <g>
       <use xlink:href="#m941496fbf8" x="62.85" y="84.582769" style="stroke: #000000; stroke-width: 0.8"/>
      </g>
     </g>
     <g id="text_13">
      <!-- 30000 -->
      <g transform="translate(27.5375 88.381987) scale(0.1 -0.1)">
       <defs>
        <path id="DejaVuSans-33" d="M 2597 2516 
Q 3050 2419 3304 2112 
Q 3559 1806 3559 1356 
Q 3559 666 3084 287 
Q 2609 -91 1734 -91 
Q 1441 -91 1130 -33 
Q 819 25 488 141 
L 488 750 
Q 750 597 1062 519 
Q 1375 441 1716 441 
Q 2309 441 2620 675 
Q 2931 909 2931 1356 
Q 2931 1769 2642 2001 
Q 2353 2234 1838 2234 
L 1294 2234 
L 1294 2753 
L 1863 2753 
Q 2328 2753 2575 2939 
Q 2822 3125 2822 3475 
Q 2822 3834 2567 4026 
Q 2313 4219 1838 4219 
Q 1578 4219 1281 4162 
Q 984 4106 628 3988 
L 628 4550 
Q 988 4650 1302 4700 
Q 1616 4750 1894 4750 
Q 2613 4750 3031 4423 
Q 3450 4097 3450 3541 
Q 3450 3153 3228 2886 
Q 3006 2619 2597 2516 
z
" transform="scale(0.015625)"/>
       </defs>
       <use xlink:href="#DejaVuSans-33"/>
       <use xlink:href="#DejaVuSans-30" transform="translate(63.623047 0)"/>
       <use xlink:href="#DejaVuSans-30" transform="translate(127.246094 0)"/>
       <use xlink:href="#DejaVuSans-30" transform="translate(190.869141 0)"/>
       <use xlink:href="#DejaVuSans-30" transform="translate(254.492188 0)"/>
      </g>
     </g>
    </g>
    <g id="ytick_5">
     <g id="line2d_25">
      <path d="M 62.85 36.40687 
L 565.2 36.40687 
" clip-path="url(#pa1dbb697d4)" style="fill: none; stroke-dasharray: 1.85,0.8; stroke-dashoffset: 0; stroke: #b2b2b2; stroke-width: 0.5"/>
     </g>
     <g id="line2d_26">
      <g>
       <use xlink:href="#m941496fbf8" x="62.85" y="36.40687" style="stroke: #000000; stroke-width: 0.8"/>
      </g>
     </g>
     <g id="text_14">
      <!-- 40000 -->
      <g transform="translate(27.5375 40.206089) scale(0.1 -0.1)">
       <use xlink:href="#DejaVuSans-34"/>
       <use xlink:href="#DejaVuSans-30" transform="translate(63.623047 0)"/>
       <use xlink:href="#DejaVuSans-30" transform="translate(127.246094 0)"/>
       <use xlink:href="#DejaVuSans-30" transform="translate(190.869141 0)"/>
       <use xlink:href="#DejaVuSans-30" transform="translate(254.492188 0)"/>
      </g>
     </g>
    </g>
    <g id="text_15">
     <!-- GB/s -->
     <g transform="translate(21.041875 133.867732) rotate(-90) scale(0.12 -0.12)">
      <defs>
       <path id="DejaVuSans-47" d="M 3809 666 
L 3809 1919 
L 2778 1919 
L 2778 2438 
L 4434 2438 
L 4434 434 
Q 4069 175 3628 42 
Q 3188 -91 2688 -91 
Q 1594 -91 976 548 
Q 359 1188 359 2328 
Q 359 3472 976 4111 
Q 1594 4750 2688 4750 
Q 3144 4750 3555 4637 
Q 3966 4525 4313 4306 
L 4313 3634 
Q 3963 3931 3569 4081 
Q 3175 4231 2741 4231 
Q 1884 4231 1454 3753 
Q 1025 3275 1025 2328 
Q 1025 1384 1454 906 
Q 1884 428 2741 428 
Q 3075 428 3337 486 
Q 3600 544 3809 666 
z
" transform="scale(0.015625)"/>
       <path id="DejaVuSans-73" d="M 2834 3397 
L 2834 2853 
Q 2591 2978 2328 3040 
Q 2066 3103 1784 3103 
Q 1356 3103 1142 2972 
Q 928 2841 928 2578 
Q 928 2378 1081 2264 
Q 1234 2150 1697 2047 
L 1894 2003 
Q 2506 1872 2764 1633 
Q 3022 1394 3022 966 
Q 3022 478 2636 193 
Q 2250 -91 1575 -91 
Q 1294 -91 989 -36 
Q 684 19 347 128 
L 347 722 
Q 666 556 975 473 
Q 1284 391 1588 391 
Q 1994 391 2212 530 
Q 2431 669 2431 922 
Q 2431 1156 2273 1281 
Q 2116 1406 1581 1522 
L 1381 1569 
Q 847 1681 609 1914 
Q 372 2147 372 2553 
Q 372 3047 722 3315 
Q 1072 3584 1716 3584 
Q 2034 3584 2315 3537 
Q 2597 3491 2834 3397 
z
" transform="scale(0.015625)"/>
      </defs>
      <use xlink:href="#DejaVuSans-47"/>
      <use xlink:href="#DejaVuSans-42" transform="translate(77.490234 0)"/>
      <use xlink:href="#DejaVuSans-2f" transform="translate(146.09375 0)"/>
      <use xlink:href="#DejaVuSans-73" transform="translate(179.785156 0)"/>
     </g>
    </g>
   </g>
   <g id="line2d_27">
    <path d="M 38.013761 192.776683 
L 67.301886 185.440457 
L 96.59001 184.141635 
L 113.722464 184.058291 
L 125.878134 184.122846 
L 143.010589 184.041429 
L 155.166259 184.061181 
L 164.594929 184.067444 
L 172.298713 184.110802 
L 178.81217 184.053473 
L 184.454383 184.052028 
L 189.431168 184.053955 
L 193.883053 184.0554 
L 197.910273 184.055882 
L 201.586838 184.07178 
L 204.968949 184.06359 
L 208.100294 184.058291 
L 211.015508 184.062627 
L 213.742507 184.054437 
L 216.30413 184.049137 
L 218.719292 184.050583 
L 221.003839 184.058773 
L 223.171178 184.093941 
L 225.232749 184.083342 
L 227.198398 184.070335 
L 229.076655 184.052028 
L 230.874962 184.061663 
L 232.599848 184.064072 
L 234.257073 184.054437 
L 235.851746 184.062627 
L 237.388419 184.061181 
L 238.871162 184.059736 
L 240.303632 184.16765 
L 241.689128 184.197037 
L 243.030632 184.235096 
L 249.165128 184.330003 
L 255.515127 184.821397 
L 262.724709 190.326939 
L 268.881591 214.068985 
L 276.105213 216.041306 
L 282.790784 216.961948 
L 289.451211 216.825128 
L 295.964668 217.110811 
L 302.585778 217.100212 
L 309.145288 217.195119 
L 315.776937 217.145498 
L 322.525792 217.072752 
L 329.211363 217.053482 
L 335.87179 217.004824 
L 349.113736 217.154169 
L 355.749579 217.144053 
L 362.432914 217.146943 
L 369.013387 217.088168 
L 375.689157 217.138271 
L 382.292368 217.052037 
L 388.931394 217.093468 
L 395.570047 217.080942 
L 402.231219 217.08576 
L 408.853493 217.068416 
L 415.500877 217.182111 
L 422.128791 217.253412 
L 428.761824 217.408538 
L 435.407662 217.391195 
L 442.038223 217.433108 
L 448.672131 217.422027 
L 455.308834 217.452378 
L 461.943735 217.489955 
L 468.574763 217.568964 
L 475.209532 217.580044 
L 481.842151 217.689404 
L 488.478618 217.969787 
L 495.113034 218.10468 
L 501.746784 217.889334 
L 508.381635 217.710601 
L 515.016491 217.776602 
L 521.649995 217.8638 
L 528.28436 217.874881 
L 534.917683 217.935583 
L 541.551671 217.952926 
L 548.186655 218.030489 
L 554.820352 217.905713 
L 561.453981 218.086855 
L 568.088641 217.966415 
" clip-path="url(#pa1dbb697d4)" style="fill: none; stroke: #378abd; stroke-width: 2; stroke-linecap: square"/>
   </g>
   <g id="line2d_28">
    <path d="M 38.013761 130.714082 
L 67.301886 120.999412 
L 84.43434 120.579318 
L 96.59001 120.337475 
L 113.722464 124.631875 
L 125.878134 120.129837 
L 135.306804 120.128392 
L 143.010589 134.333537 
L 149.524046 120.129837 
L 155.166259 120.819716 
L 160.143043 134.221287 
L 164.594929 133.741937 
L 168.622149 131.964247 
L 172.298713 133.704842 
L 175.680824 130.343609 
L 178.81217 120.133691 
L 181.727383 120.655918 
L 184.454383 125.234074 
L 187.016006 120.133209 
L 189.431168 120.241605 
L 191.715715 120.323504 
L 193.883053 120.158261 
L 195.944625 120.133209 
L 197.910273 120.136582 
L 199.788531 120.136582 
L 201.586838 120.1361 
L 203.311723 120.165487 
L 204.968949 120.1361 
L 206.563622 120.137063 
L 208.100294 120.1361 
L 209.583037 122.066508 
L 211.015508 122.222116 
L 212.401003 120.850549 
L 213.742507 120.529215 
L 219.877004 121.481653 
L 226.227003 120.179458 
L 233.436584 122.027486 
L 239.593467 132.42529 
L 246.817089 149.335512 
L 253.502659 157.605868 
L 260.163086 183.886303 
L 266.676543 202.52074 
L 273.297653 203.248678 
L 279.857163 203.097888 
L 286.488813 202.552536 
L 293.237668 202.983229 
L 299.923238 201.955155 
L 306.583665 201.525908 
L 319.825612 201.978761 
L 326.461455 201.71813 
L 333.14479 201.772569 
L 339.725263 201.789912 
L 346.401033 201.781722 
L 353.004244 201.59769 
L 359.64327 201.628041 
L 366.281923 201.583719 
L 372.943094 201.643457 
L 379.565369 201.586128 
L 386.212752 201.680553 
L 392.840666 201.591909 
L 399.473699 201.580829 
L 406.119537 201.639603 
L 412.750099 201.570712 
L 419.384007 201.591427 
L 426.02071 201.594318 
L 432.655611 201.607807 
L 439.286638 201.566858 
L 445.921408 201.566376 
L 452.554027 201.590945 
L 459.190493 201.611661 
L 465.82491 201.601062 
L 472.458659 201.613106 
L 479.09351 201.625632 
L 485.728366 201.590945 
L 492.36187 201.592873 
L 498.996235 201.593354 
L 505.629559 201.596245 
L 512.263546 201.603471 
L 518.89853 201.593354 
L 525.532227 201.622742 
L 532.165857 201.767269 
L 538.800517 202.008631 
" clip-path="url(#pa1dbb697d4)" style="fill: none; stroke: #ffb33a; stroke-width: 2; stroke-linecap: square"/>
   </g>
   <g id="line2d_29">
    <path d="M 67.301886 163.368188 
L 96.59001 162.270259 
L 113.722464 162.197513 
L 125.878134 162.06503 
L 143.010589 162.530409 
L 155.166259 162.271704 
L 164.594929 162.570877 
L 172.298713 162.511138 
L 178.81217 162.094899 
L 184.454383 162.293383 
L 189.431168 162.179688 
L 193.883053 162.26496 
L 197.910273 162.424422 
L 201.586838 162.438393 
L 204.968949 162.465371 
L 208.100294 162.047205 
L 211.015508 162.14741 
L 213.742507 162.274113 
L 216.30413 162.423458 
L 218.719292 162.335296 
L 221.003839 162.348304 
L 223.171178 162.523182 
L 225.232749 162.549679 
L 227.198398 162.448028 
L 229.076655 162.550643 
L 230.874962 162.745273 
L 232.599848 162.904736 
L 234.257073 162.869567 
L 235.851746 162.87583 
L 237.388419 163.031438 
L 238.871162 163.146579 
L 240.303632 163.056971 
L 241.689128 170.777159 
L 243.030632 176.813117 
L 249.165128 180.172423 
L 255.515127 190.897341 
L 262.724709 205.502828 
L 268.881591 218.824428 
L 276.105213 218.146111 
L 282.790784 217.725054 
L 289.451211 217.270273 
L 295.964668 217.290989 
L 302.585778 217.507299 
L 309.145288 217.477911 
L 315.776937 217.788164 
L 322.525792 217.476948 
L 329.211363 217.310741 
L 335.87179 217.357472 
L 349.113736 217.30496 
L 355.749579 217.297252 
L 362.432914 217.364216 
L 369.013387 217.351209 
L 375.689157 217.410947 
L 382.292368 217.370961 
L 388.931394 217.410465 
L 395.570047 217.390231 
L 402.231219 217.317004 
L 408.853493 217.589198 
L 415.500877 217.967379 
L 422.128791 217.8691 
L 428.761824 218.653403 
L 435.407662 217.891742 
L 442.038223 219.055672 
L 448.672131 217.906195 
L 455.308834 217.884998 
L 461.943735 217.832486 
L 468.574763 218.650995 
L 475.209532 217.681696 
L 481.842151 217.888852 
L 488.478618 217.972678 
L 495.113034 218.00881 
L 501.746784 218.027117 
L 508.381635 218.017963 
" clip-path="url(#pa1dbb697d4)" style="fill: none; stroke: #7ec75b; stroke-width: 2; stroke-linecap: square"/>
   </g>
   <g id="line2d_30">
    <path d="M 38.013761 188.519379 
L 67.301886 172.082244 
L 96.59001 157.401121 
L 113.722464 150.78657 
L 125.878134 146.271043 
L 143.010589 143.43011 
L 155.166259 140.387321 
L 164.594929 139.631441 
L 172.298713 138.888568 
L 178.81217 136.523132 
L 184.454383 136.959605 
L 189.431168 137.379699 
L 193.883053 137.75499 
L 197.910273 137.836889 
L 201.586838 138.457394 
L 204.968949 138.53833 
L 208.100294 138.159667 
L 211.015508 137.098834 
L 213.742507 137.370546 
L 216.30413 137.271303 
L 218.719292 137.904335 
L 221.003839 137.214456 
L 223.171178 137.312253 
L 225.232749 137.424503 
L 227.198398 136.75534 
L 229.076655 136.612739 
L 230.874962 136.99381 
L 232.599848 137.429802 
L 234.257073 137.253478 
L 235.851746 136.690784 
L 237.388419 136.652243 
L 238.871162 136.69801 
L 240.303632 136.579979 
L 241.689128 136.754376 
L 243.030632 137.24288 
L 249.165128 136.53084 
L 255.515127 141.410577 
L 262.724709 155.095422 
L 268.881591 170.416322 
L 276.105213 193.882802 
L 282.790784 206.786234 
L 289.451211 204.128852 
L 295.964668 204.434287 
L 302.585778 205.409849 
L 309.145288 202.36465 
L 315.776937 204.847154 
L 322.525792 204.540274 
L 329.211363 202.961068 
L 335.87179 203.267467 
L 349.113736 203.254459 
L 355.749579 202.947097 
L 362.432914 203.027069 
L 369.013387 202.64937 
L 375.689157 202.748612 
L 382.292368 202.775591 
L 388.931394 202.804015 
L 395.570047 202.82473 
L 402.231219 202.759693 
L 408.853493 202.802569 
L 415.500877 202.787635 
L 422.128791 202.821358 
L 428.761824 202.889768 
L 435.407662 202.73705 
L 442.038223 202.902293 
L 448.672131 202.989974 
L 455.308834 202.98901 
L 461.943735 205.524026 
L 468.574763 206.757811 
L 475.209532 206.488026 
L 481.842151 205.621341 
L 488.478618 206.749139 
L 495.113034 205.927258 
L 501.746784 206.94666 
L 508.381635 206.125743 
L 515.016491 206.400827 
L 521.649995 206.165729 
L 528.28436 205.882936 
L 534.917683 206.97942 
L 541.551671 206.927872 
L 548.186655 206.990982 
L 554.820352 205.778395 
L 561.453981 206.832483 
L 568.088641 205.981215 
" clip-path="url(#pa1dbb697d4)" style="fill: none; stroke: #da5252; stroke-width: 2; stroke-linecap: square"/>
   </g>
   <g id="line2d_31">
    <path d="M 96.59001 185.276177 
L 125.878134 189.103753 
L 155.166259 178.59418 
L 172.298713 216.101526 
L 184.454383 216.2369 
L 201.586838 216.857888 
L 213.742507 216.994225 
L 223.171178 217.034693 
L 230.874962 217.10503 
L 237.388419 217.040474 
L 243.030632 216.986036 
L 248.007416 217.14887 
L 252.459302 217.047219 
L 256.486522 216.727331 
L 260.163086 216.62568 
L 263.545197 216.752382 
L 266.676543 216.706134 
L 269.591756 216.72444 
L 272.318756 216.770689 
L 274.880379 217.204754 
L 277.295541 217.128154 
L 279.580088 217.223061 
L 281.747426 217.185966 
" clip-path="url(#pa1dbb697d4)" style="fill: none; stroke: #10cfcc; stroke-width: 2; stroke-linecap: square"/>
   </g>
   <g id="line2d_32">
    <path d="M 96.59001 179.838082 
L 125.878134 178.258394 
L 155.166259 178.435682 
L 172.298713 195.295319 
L 184.454383 188.463013 
L 201.586838 206.488026 
L 213.742507 205.304344 
L 223.171178 208.651123 
L 230.874962 209.00907 
L 237.388419 207.182722 
L 243.030632 208.3982 
L 248.007416 210.793024 
L 252.459302 210.920208 
L 256.486522 205.696014 
L 260.163086 205.397805 
L 263.545197 205.247978 
L 266.676543 205.356374 
L 269.591756 205.364082 
L 272.318756 205.759606 
L 274.880379 213.526043 
L 277.295541 213.438362 
L 279.580088 213.551576 
L 281.747426 213.631066 
L 283.808998 213.647928 
L 285.774647 213.691286 
L 287.652904 213.693213 
L 289.451211 213.47883 
L 291.176096 213.59927 
L 292.833322 213.649855 
L 294.427995 213.473049 
L 295.964668 212.995144 
L 297.44741 212.301411 
L 298.879881 211.262257 
" clip-path="url(#pa1dbb697d4)" style="fill: none; stroke: #ffe100; stroke-width: 2; stroke-linecap: square"/>
   </g>
   <g id="line2d_33">
    <path d="M 96.59001 42.156664 
L 125.878134 44.162226 
L 155.166259 45.200899 
L 172.298713 39.618276 
L 184.454383 42.069947 
L 201.586838 50.119176 
L 213.742507 70.992348 
L 223.171178 74.27698 
L 230.874962 93.04342 
L 237.388419 97.928938 
L 243.030632 95.637692 
L 248.007416 94.811957 
L 252.459302 96.859433 
L 256.486522 92.050515 
L 260.163086 92.65464 
L 263.545197 93.530478 
L 266.676543 92.099654 
L 269.591756 92.253335 
L 272.318756 91.403031 
L 274.880379 96.562669 
L 277.295541 96.439339 
L 279.580088 96.205686 
L 281.747426 99.25522 
L 283.808998 100.053977 
L 285.774647 95.904587 
L 287.652904 96.247599 
L 289.451211 96.42585 
L 291.176096 97.576772 
L 292.833322 96.307337 
L 294.427995 96.268315 
L 295.964668 96.435485 
L 297.44741 96.230737 
L 298.879881 96.012982 
L 300.265376 96.081392 
L 301.606881 95.636729 
L 307.741377 95.833768 
L 314.091376 96.650349 
L 321.300958 97.929901 
L 327.45784 99.145379 
L 334.681462 100.291484 
L 341.367033 97.984822 
L 348.027459 96.493296 
L 354.540916 99.25233 
L 361.162026 101.162022 
L 367.721536 98.606291 
L 374.353186 99.783228 
L 381.102041 99.366988 
L 387.787611 101.237659 
L 394.448038 107.226886 
L 407.689985 119.724678 
L 414.325828 129.945676 
L 421.009163 146.541792 
L 427.589636 140.347335 
L 434.265406 169.539038 
L 440.868617 187.228747 
L 447.507643 179.861206 
L 454.146296 132.14057 
L 460.807467 182.534969 
L 467.429742 195.740464 
L 474.077125 189.49735 
L 480.70504 188.165768 
L 487.338073 197.031578 
L 493.98391 197.257523 
L 500.614472 202.374286 
L 507.24838 194.973504 
L 513.885083 203.291073 
L 520.519984 199.71883 
L 527.151011 196.914993 
L 533.785781 202.595413 
L 540.4184 202.391629 
L 547.054867 202.470637 
L 553.689283 199.435074 
L 560.323032 200.939126 
L 566.957884 203.435601 
L 573.592739 135.325961 
L 577 151.11369 
" clip-path="url(#pa1dbb697d4)" style="fill: none; stroke: #09047f; stroke-width: 2; stroke-linecap: square"/>
   </g>
   <g id="line2d_34">
    <path d="M 96.59001 195.259187 
L 125.878134 164.599564 
L 155.166259 132.720608 
L 172.298713 145.56093 
L 184.454383 117.061514 
L 201.586838 150.480653 
L 213.742507 163.028548 
L 223.171178 175.321592 
L 230.874962 175.365432 
L 237.388419 179.052815 
L 243.030632 177.330045 
L 248.007416 181.042961 
L 252.459302 181.189898 
L 256.486522 188.148425 
L 260.163086 189.752682 
L 263.545197 190.956116 
L 266.676543 193.000219 
L 269.591756 194.697456 
L 272.318756 196.088294 
L 274.880379 194.696011 
L 277.295541 196.10901 
L 279.580088 196.818641 
L 281.747426 197.857313 
L 283.808998 198.715808 
L 285.774647 199.278502 
L 287.652904 200.006922 
L 289.451211 200.222268 
L 291.176096 201.070164 
L 292.833322 201.498448 
L 294.427995 201.901198 
L 295.964668 202.269744 
L 297.44741 202.57277 
L 298.879881 202.853154 
L 300.265376 203.190385 
L 301.606881 202.771737 
L 307.741377 204.15294 
L 314.091376 204.880396 
L 321.300958 205.557749 
L 327.45784 205.917623 
L 334.681462 204.412126 
L 341.367033 204.617837 
L 348.027459 206.085275 
L 354.540916 204.737795 
L 361.162026 205.11983 
L 367.721536 206.566071 
L 374.353186 206.346388 
L 381.102041 205.786584 
L 387.787611 205.332768 
L 394.448038 207.080107 
L 407.689985 207.115758 
L 414.325828 208.007012 
L 421.009163 210.071349 
L 427.589636 204.190517 
L 434.265406 202.967813 
L 440.868617 210.904792 
L 447.507643 215.95459 
L 454.146296 216.955685 
L 460.807467 201.410768 
L 467.429742 201.6661 
L 474.077125 188.807471 
L 480.70504 218.31569 
L 487.338073 202.953842 
L 493.98391 215.616877 
L 500.614472 214.694308 
L 507.24838 215.800908 
L 513.885083 216.445502 
L 520.519984 201.8853 
L 527.151011 200.39522 
L 533.785781 200.810978 
L 540.4184 202.743795 
L 547.054867 202.135333 
L 553.689283 202.017302 
L 560.323032 202.407527 
L 566.957884 202.00574 
L 573.592739 201.521572 
L 577 201.949913 
" clip-path="url(#pa1dbb697d4)" style="fill: none; stroke: #296f20; stroke-width: 2; stroke-linecap: square"/>
   </g>
   <g id="line2d_35">
    <path d="M 38.013761 197.405423 
L 67.301886 181.955895 
L 96.59001 170.29251 
L 113.722464 182.198701 
L 125.878134 174.605216 
L 143.010589 172.954228 
L 155.166259 176.061573 
L 164.594929 171.917483 
L 172.298713 176.031223 
L 178.81217 174.043003 
L 184.454383 171.389475 
L 189.431168 176.317869 
L 193.883053 173.948097 
L 197.910273 173.576661 
L 201.586838 176.707612 
L 204.968949 171.805715 
L 208.100294 173.250991 
L 211.015508 176.235007 
L 213.742507 171.747903 
L 216.30413 172.24556 
L 218.719292 176.529843 
L 221.003839 173.804051 
L 223.171178 170.214946 
L 225.232749 175.981601 
L 227.198398 172.000827 
L 229.076655 170.142683 
L 230.874962 177.938988 
L 232.599848 173.274116 
L 234.257073 170.253487 
L 235.851746 176.057238 
L 237.388419 174.360482 
L 238.871162 171.084521 
L 240.303632 176.007616 
L 241.689128 174.201502 
L 243.030632 172.980725 
L 249.165128 176.527916 
L 255.515127 173.99001 
L 262.724709 173.129588 
L 268.881591 180.259139 
L 276.105213 191.720667 
L 282.790784 194.487409 
L 289.451211 195.083345 
L 295.964668 198.102047 
L 302.585778 196.671704 
L 309.145288 196.581134 
L 315.776937 196.260282 
L 322.525792 197.365437 
L 329.211363 194.88197 
L 335.87179 197.279203 
L 349.113736 197.488768 
L 355.749579 194.531731 
L 362.432914 196.441905 
L 369.013387 195.179697 
L 375.689157 196.784436 
L 382.292368 196.855736 
L 388.931394 194.125608 
L 395.570047 173.318919 
L 402.231219 194.237858 
L 408.853493 196.802261 
L 415.500877 197.166953 
L 422.128791 195.046731 
L 428.761824 197.155872 
L 435.407662 197.462753 
L 442.038223 194.368897 
L 448.672131 199.682216 
L 455.308834 200.194326 
L 461.943735 197.641004 
L 468.574763 200.208297 
L 475.209532 200.521441 
L 481.842151 200.854818 
L 488.478618 201.395833 
L 495.113034 206.490434 
L 501.746784 209.749052 
L 508.381635 215.070562 
L 515.016491 215.094168 
L 521.649995 215.312887 
L 528.28436 213.939874 
L 534.917683 215.268083 
L 541.551671 214.639388 
L 548.186655 215.125001 
L 554.820352 215.306142 
L 561.453981 214.027554 
L 568.088641 215.12211 
" clip-path="url(#pa1dbb697d4)" style="fill: none; stroke: #a60628; stroke-width: 2; stroke-linecap: square"/>
   </g>
   <g id="patch_3">
    <path d="M 62.85 229.110464 
L 62.85 10.8 
" style="fill: none; stroke: #bcbcbc; stroke-width: 0.8; stroke-linejoin: miter; stroke-linecap: square"/>
   </g>
   <g id="patch_4">
    <path d="M 565.2 229.110464 
L 565.2 10.8 
" style="fill: none; stroke: #bcbcbc; stroke-width: 0.8; stroke-linejoin: miter; stroke-linecap: square"/>
   </g>
   <g id="patch_5">
    <path d="M 62.85 229.110464 
L 565.2 229.110464 
" style="fill: none; stroke: #bcbcbc; stroke-width: 0.8; stroke-linejoin: miter; stroke-linecap: square"/>
   </g>
   <g id="patch_6">
    <path d="M 62.85 10.8 
L 565.2 10.8 
" style="fill: none; stroke: #bcbcbc; stroke-width: 0.8; stroke-linejoin: miter; stroke-linecap: square"/>
   </g>
   <g id="legend_1">
    <g id="patch_7">
     <path d="M 474.16875 150.903125 
L 558.2 150.903125 
Q 560.2 150.903125 560.2 148.903125 
L 560.2 17.8 
Q 560.2 15.8 558.2 15.8 
L 474.16875 15.8 
Q 472.16875 15.8 472.16875 17.8 
L 472.16875 148.903125 
Q 472.16875 150.903125 474.16875 150.903125 
z
" style="fill: #ffffff; opacity: 0.8; stroke: #cccccc; stroke-width: 0.5; stroke-linejoin: miter"/>
    </g>
    <g id="line2d_36">
     <path d="M 476.16875 23.898438 
L 486.16875 23.898438 
L 496.16875 23.898438 
" style="fill: none; stroke: #378abd; stroke-width: 2; stroke-linecap: square"/>
    </g>
    <g id="text_16">
     <!-- A40 -->
     <g transform="translate(504.16875 27.398438) scale(0.1 -0.1)">
      <defs>
       <path id="DejaVuSans-41" d="M 2188 4044 
L 1331 1722 
L 3047 1722 
L 2188 4044 
z
M 1831 4666 
L 2547 4666 
L 4325 0 
L 3669 0 
L 3244 1197 
L 1141 1197 
L 716 0 
L 50 0 
L 1831 4666 
z
" transform="scale(0.015625)"/>
      </defs>
      <use xlink:href="#DejaVuSans-41"/>
      <use xlink:href="#DejaVuSans-34" transform="translate(68.408203 0)"/>
      <use xlink:href="#DejaVuSans-30" transform="translate(132.03125 0)"/>
     </g>
    </g>
    <g id="line2d_37">
     <path d="M 476.16875 38.576563 
L 486.16875 38.576563 
L 496.16875 38.576563 
" style="fill: none; stroke: #ffb33a; stroke-width: 2; stroke-linecap: square"/>
    </g>
    <g id="text_17">
     <!-- L40 -->
     <g transform="translate(504.16875 42.076563) scale(0.1 -0.1)">
      <defs>
       <path id="DejaVuSans-4c" d="M 628 4666 
L 1259 4666 
L 1259 531 
L 3531 531 
L 3531 0 
L 628 0 
L 628 4666 
z
" transform="scale(0.015625)"/>
      </defs>
      <use xlink:href="#DejaVuSans-4c"/>
      <use xlink:href="#DejaVuSans-34" transform="translate(55.712891 0)"/>
      <use xlink:href="#DejaVuSans-30" transform="translate(119.335938 0)"/>
     </g>
    </g>
    <g id="line2d_38">
     <path d="M 476.16875 53.254687 
L 486.16875 53.254687 
L 496.16875 53.254687 
" style="fill: none; stroke: #7ec75b; stroke-width: 2; stroke-linecap: square"/>
    </g>
    <g id="text_18">
     <!-- V100 -->
     <g transform="translate(504.16875 56.754687) scale(0.1 -0.1)">
      <defs>
       <path id="DejaVuSans-56" d="M 1831 0 
L 50 4666 
L 709 4666 
L 2188 738 
L 3669 4666 
L 4325 4666 
L 2547 0 
L 1831 0 
z
" transform="scale(0.015625)"/>
      </defs>
      <use xlink:href="#DejaVuSans-56"/>
      <use xlink:href="#DejaVuSans-31" transform="translate(68.408203 0)"/>
      <use xlink:href="#DejaVuSans-30" transform="translate(132.03125 0)"/>
      <use xlink:href="#DejaVuSans-30" transform="translate(195.654297 0)"/>
     </g>
    </g>
    <g id="line2d_39">
     <path d="M 476.16875 67.932813 
L 486.16875 67.932813 
L 496.16875 67.932813 
" style="fill: none; stroke: #da5252; stroke-width: 2; stroke-linecap: square"/>
    </g>
    <g id="text_19">
     <!-- A100 -->
     <g transform="translate(504.16875 71.432813) scale(0.1 -0.1)">
      <use xlink:href="#DejaVuSans-41"/>
      <use xlink:href="#DejaVuSans-31" transform="translate(68.408203 0)"/>
      <use xlink:href="#DejaVuSans-30" transform="translate(132.03125 0)"/>
      <use xlink:href="#DejaVuSans-30" transform="translate(195.654297 0)"/>
     </g>
    </g>
    <g id="line2d_40">
     <path d="M 476.16875 82.610938 
L 486.16875 82.610938 
L 496.16875 82.610938 
" style="fill: none; stroke: #10cfcc; stroke-width: 2; stroke-linecap: square"/>
    </g>
    <g id="text_20">
     <!-- MI100 -->
     <g transform="translate(504.16875 86.110938) scale(0.1 -0.1)">
      <defs>
       <path id="DejaVuSans-49" d="M 628 4666 
L 1259 4666 
L 1259 0 
L 628 0 
L 628 4666 
z
" transform="scale(0.015625)"/>
      </defs>
      <use xlink:href="#DejaVuSans-4d"/>
      <use xlink:href="#DejaVuSans-49" transform="translate(86.279297 0)"/>
      <use xlink:href="#DejaVuSans-31" transform="translate(115.771484 0)"/>
      <use xlink:href="#DejaVuSans-30" transform="translate(179.394531 0)"/>
      <use xlink:href="#DejaVuSans-30" transform="translate(243.017578 0)"/>
     </g>
    </g>
    <g id="line2d_41">
     <path d="M 476.16875 97.289062 
L 486.16875 97.289062 
L 496.16875 97.289062 
" style="fill: none; stroke: #ffe100; stroke-width: 2; stroke-linecap: square"/>
    </g>
    <g id="text_21">
     <!-- MI210 -->
     <g transform="translate(504.16875 100.789062) scale(0.1 -0.1)">
      <use xlink:href="#DejaVuSans-4d"/>
      <use xlink:href="#DejaVuSans-49" transform="translate(86.279297 0)"/>
      <use xlink:href="#DejaVuSans-32" transform="translate(115.771484 0)"/>
      <use xlink:href="#DejaVuSans-31" transform="translate(179.394531 0)"/>
      <use xlink:href="#DejaVuSans-30" transform="translate(243.017578 0)"/>
     </g>
    </g>
    <g id="line2d_42">
     <path d="M 476.16875 111.967187 
L 486.16875 111.967187 
L 496.16875 111.967187 
" style="fill: none; stroke: #09047f; stroke-width: 2; stroke-linecap: square"/>
    </g>
    <g id="text_22">
     <!-- MI300X -->
     <g transform="translate(504.16875 115.467187) scale(0.1 -0.1)">
      <defs>
       <path id="DejaVuSans-58" d="M 403 4666 
L 1081 4666 
L 2241 2931 
L 3406 4666 
L 4084 4666 
L 2584 2425 
L 4184 0 
L 3506 0 
L 2194 1984 
L 872 0 
L 191 0 
L 1856 2491 
L 403 4666 
z
" transform="scale(0.015625)"/>
      </defs>
      <use xlink:href="#DejaVuSans-4d"/>
      <use xlink:href="#DejaVuSans-49" transform="translate(86.279297 0)"/>
      <use xlink:href="#DejaVuSans-33" transform="translate(115.771484 0)"/>
      <use xlink:href="#DejaVuSans-30" transform="translate(179.394531 0)"/>
      <use xlink:href="#DejaVuSans-30" transform="translate(243.017578 0)"/>
      <use xlink:href="#DejaVuSans-58" transform="translate(306.640625 0)"/>
     </g>
    </g>
    <g id="line2d_43">
     <path d="M 476.16875 126.645312 
L 486.16875 126.645312 
L 496.16875 126.645312 
" style="fill: none; stroke: #296f20; stroke-width: 2; stroke-linecap: square"/>
    </g>
    <g id="text_23">
     <!-- RX6900XT -->
     <g transform="translate(504.16875 130.145312) scale(0.1 -0.1)">
      <defs>
       <path id="DejaVuSans-52" d="M 2841 2188 
Q 3044 2119 3236 1894 
Q 3428 1669 3622 1275 
L 4263 0 
L 3584 0 
L 2988 1197 
Q 2756 1666 2539 1819 
Q 2322 1972 1947 1972 
L 1259 1972 
L 1259 0 
L 628 0 
L 628 4666 
L 2053 4666 
Q 2853 4666 3247 4331 
Q 3641 3997 3641 3322 
Q 3641 2881 3436 2590 
Q 3231 2300 2841 2188 
z
M 1259 4147 
L 1259 2491 
L 2053 2491 
Q 2509 2491 2742 2702 
Q 2975 2913 2975 3322 
Q 2975 3731 2742 3939 
Q 2509 4147 2053 4147 
L 1259 4147 
z
" transform="scale(0.015625)"/>
       <path id="DejaVuSans-39" d="M 703 97 
L 703 672 
Q 941 559 1184 500 
Q 1428 441 1663 441 
Q 2288 441 2617 861 
Q 2947 1281 2994 2138 
Q 2813 1869 2534 1725 
Q 2256 1581 1919 1581 
Q 1219 1581 811 2004 
Q 403 2428 403 3163 
Q 403 3881 828 4315 
Q 1253 4750 1959 4750 
Q 2769 4750 3195 4129 
Q 3622 3509 3622 2328 
Q 3622 1225 3098 567 
Q 2575 -91 1691 -91 
Q 1453 -91 1209 -44 
Q 966 3 703 97 
z
M 1959 2075 
Q 2384 2075 2632 2365 
Q 2881 2656 2881 3163 
Q 2881 3666 2632 3958 
Q 2384 4250 1959 4250 
Q 1534 4250 1286 3958 
Q 1038 3666 1038 3163 
Q 1038 2656 1286 2365 
Q 1534 2075 1959 2075 
z
" transform="scale(0.015625)"/>
       <path id="DejaVuSans-54" d="M -19 4666 
L 3928 4666 
L 3928 4134 
L 2272 4134 
L 2272 0 
L 1638 0 
L 1638 4134 
L -19 4134 
L -19 4666 
z
" transform="scale(0.015625)"/>
      </defs>
      <use xlink:href="#DejaVuSans-52"/>
      <use xlink:href="#DejaVuSans-58" transform="translate(69.482422 0)"/>
      <use xlink:href="#DejaVuSans-36" transform="translate(137.988281 0)"/>
      <use xlink:href="#DejaVuSans-39" transform="translate(201.611328 0)"/>
      <use xlink:href="#DejaVuSans-30" transform="translate(265.234375 0)"/>
      <use xlink:href="#DejaVuSans-30" transform="translate(328.857422 0)"/>
      <use xlink:href="#DejaVuSans-58" transform="translate(392.480469 0)"/>
      <use xlink:href="#DejaVuSans-54" transform="translate(459.236328 0)"/>
     </g>
    </g>
    <g id="line2d_44">
     <path d="M 476.16875 141.323437 
L 486.16875 141.323437 
L 496.16875 141.323437 
" style="fill: none; stroke: #a60628; stroke-width: 2; stroke-linecap: square"/>
    </g>
    <g id="text_24">
     <!-- GB200 -->
     <g transform="translate(504.16875 144.823437) scale(0.1 -0.1)">
      <use xlink:href="#DejaVuSans-47"/>
      <use xlink:href="#DejaVuSans-42" transform="translate(77.490234 0)"/>
      <use xlink:href="#DejaVuSans-32" transform="translate(146.09375 0)"/>
      <use xlink:href="#DejaVuSans-30" transform="translate(209.716797 0)"/>
      <use xlink:href="#DejaVuSans-30" transform="translate(273.339844 0)"/>
     </g>
    </g>
   </g>
  </g>
 </g>
 <defs>
  <clipPath id="pa1dbb697d4">
   <rect x="62.85" y="10.8" width="502.35" height="218.310464"/>
  </clipPath>
 </defs>
</svg>
