<?xml version="1.0" encoding="utf-8" standalone="no"?>
<!DOCTYPE svg PUBLIC "-//W3C//DTD SVG 1.1//EN"
  "http://www.w3.org/Graphics/SVG/1.1/DTD/svg11.dtd">
<svg xmlns:xlink="http://www.w3.org/1999/xlink" width="576pt" height="288pt" viewBox="0 0 576 288" xmlns="http://www.w3.org/2000/svg" version="1.1">
 <metadata>
  <rdf:RDF xmlns:dc="http://purl.org/dc/elements/1.1/" xmlns:cc="http://creativecommons.org/ns#" xmlns:rdf="http://www.w3.org/1999/02/22-rdf-syntax-ns#">
   <cc:Work>
    <dc:type rdf:resource="http://purl.org/dc/dcmitype/StillImage"/>
    <dc:date>2025-02-11T16:31:06.470430</dc:date>
    <dc:format>image/svg+xml</dc:format>
    <dc:creator>
     <cc:Agent>
      <dc:title>Matplotlib v3.10.0, https://matplotlib.org/</dc:title>
     </cc:Agent>
    </dc:creator>
   </cc:Work>
  </rdf:RDF>
 </metadata>
 <defs>
  <style type="text/css">*{stroke-linejoin: round; stroke-linecap: butt}</style>
 </defs>
 <g id="figure_1">
  <g id="patch_1">
   <path d="M 0 288 
L 576 288 
L 576 0 
L 0 0 
z
" style="fill: #ffffff"/>
  </g>
  <g id="axes_1">
   <g id="patch_2">
    <path d="M 61.05 231.225464 
L 565.2 231.225464 
L 565.2 10.8 
L 61.05 10.8 
z
" style="fill: #ffffff"/>
   </g>
   <g id="matplotlib.axis_1">
    <g id="xtick_1">
     <g id="line2d_1">
      <path d="M 94.910906 231.225464 
L 94.910906 10.8 
" clip-path="url(#p222d66dfc3)" style="fill: none; stroke-dasharray: 1.85,0.8; stroke-dashoffset: 0; stroke: #b2b2b2; stroke-width: 0.5"/>
     </g>
     <g id="line2d_2">
      <defs>
       <path id="mbed672b23f" d="M 0 0 
L 0 -3.5 
" style="stroke: #000000; stroke-width: 0.8"/>
      </defs>
      <g>
       <use xlink:href="#mbed672b23f" x="94.910906" y="231.225464" style="stroke: #000000; stroke-width: 0.8"/>
      </g>
     </g>
     <g id="text_1">
      <!-- 4 kB -->
      <g transform="translate(74.652064 252.401998) rotate(-30) scale(0.1 -0.1)">
       <defs>
        <path id="DejaVuSans-34" d="M 2419 4116 
L 825 1625 
L 2419 1625 
L 2419 4116 
z
M 2253 4666 
L 3047 4666 
L 3047 1625 
L 3713 1625 
L 3713 1100 
L 3047 1100 
L 3047 0 
L 2419 0 
L 2419 1100 
L 313 1100 
L 313 1709 
L 2253 4666 
z
" transform="scale(0.015625)"/>
        <path id="DejaVuSans-20" transform="scale(0.015625)"/>
        <path id="DejaVuSans-6b" d="M 581 4863 
L 1159 4863 
L 1159 1991 
L 2875 3500 
L 3609 3500 
L 1753 1863 
L 3688 0 
L 2938 0 
L 1159 1709 
L 1159 0 
L 581 0 
L 581 4863 
z
" transform="scale(0.015625)"/>
        <path id="DejaVuSans-42" d="M 1259 2228 
L 1259 519 
L 2272 519 
Q 2781 519 3026 730 
Q 3272 941 3272 1375 
Q 3272 1813 3026 2020 
Q 2781 2228 2272 2228 
L 1259 2228 
z
M 1259 4147 
L 1259 2741 
L 2194 2741 
Q 2656 2741 2882 2914 
Q 3109 3088 3109 3444 
Q 3109 3797 2882 3972 
Q 2656 4147 2194 4147 
L 1259 4147 
z
M 628 4666 
L 2241 4666 
Q 2963 4666 3353 4366 
Q 3744 4066 3744 3513 
Q 3744 3084 3544 2831 
Q 3344 2578 2956 2516 
Q 3422 2416 3680 2098 
Q 3938 1781 3938 1306 
Q 3938 681 3513 340 
Q 3088 0 2303 0 
L 628 0 
L 628 4666 
z
" transform="scale(0.015625)"/>
       </defs>
       <use xlink:href="#DejaVuSans-34"/>
       <use xlink:href="#DejaVuSans-20" transform="translate(63.623047 0)"/>
       <use xlink:href="#DejaVuSans-6b" transform="translate(95.410156 0)"/>
       <use xlink:href="#DejaVuSans-42" transform="translate(153.320312 0)"/>
      </g>
     </g>
    </g>
    <g id="xtick_2">
     <g id="line2d_3">
      <path d="M 153.697043 231.225464 
L 153.697043 10.8 
" clip-path="url(#p222d66dfc3)" style="fill: none; stroke-dasharray: 1.85,0.8; stroke-dashoffset: 0; stroke: #b2b2b2; stroke-width: 0.5"/>
     </g>
     <g id="line2d_4">
      <g>
       <use xlink:href="#mbed672b23f" x="153.697043" y="231.225464" style="stroke: #000000; stroke-width: 0.8"/>
      </g>
     </g>
     <g id="text_2">
      <!-- 16 kB -->
      <g transform="translate(127.928114 255.583248) rotate(-30) scale(0.1 -0.1)">
       <defs>
        <path id="DejaVuSans-31" d="M 794 531 
L 1825 531 
L 1825 4091 
L 703 3866 
L 703 4441 
L 1819 4666 
L 2450 4666 
L 2450 531 
L 3481 531 
L 3481 0 
L 794 0 
L 794 531 
z
" transform="scale(0.015625)"/>
        <path id="DejaVuSans-36" d="M 2113 2584 
Q 1688 2584 1439 2293 
Q 1191 2003 1191 1497 
Q 1191 994 1439 701 
Q 1688 409 2113 409 
Q 2538 409 2786 701 
Q 3034 994 3034 1497 
Q 3034 2003 2786 2293 
Q 2538 2584 2113 2584 
z
M 3366 4563 
L 3366 3988 
Q 3128 4100 2886 4159 
Q 2644 4219 2406 4219 
Q 1781 4219 1451 3797 
Q 1122 3375 1075 2522 
Q 1259 2794 1537 2939 
Q 1816 3084 2150 3084 
Q 2853 3084 3261 2657 
Q 3669 2231 3669 1497 
Q 3669 778 3244 343 
Q 2819 -91 2113 -91 
Q 1303 -91 875 529 
Q 447 1150 447 2328 
Q 447 3434 972 4092 
Q 1497 4750 2381 4750 
Q 2619 4750 2861 4703 
Q 3103 4656 3366 4563 
z
" transform="scale(0.015625)"/>
       </defs>
       <use xlink:href="#DejaVuSans-31"/>
       <use xlink:href="#DejaVuSans-36" transform="translate(63.623047 0)"/>
       <use xlink:href="#DejaVuSans-20" transform="translate(127.246094 0)"/>
       <use xlink:href="#DejaVuSans-6b" transform="translate(159.033203 0)"/>
       <use xlink:href="#DejaVuSans-42" transform="translate(216.943359 0)"/>
      </g>
     </g>
    </g>
    <g id="xtick_3">
     <g id="line2d_5">
      <path d="M 241.876248 231.225464 
L 241.876248 10.8 
" clip-path="url(#p222d66dfc3)" style="fill: none; stroke-dasharray: 1.85,0.8; stroke-dashoffset: 0; stroke: #b2b2b2; stroke-width: 0.5"/>
     </g>
     <g id="line2d_6">
      <g>
       <use xlink:href="#mbed672b23f" x="241.876248" y="231.225464" style="stroke: #000000; stroke-width: 0.8"/>
      </g>
     </g>
     <g id="text_3">
      <!-- 128 kB -->
      <g transform="translate(210.597233 258.764498) rotate(-30) scale(0.1 -0.1)">
       <defs>
        <path id="DejaVuSans-32" d="M 1228 531 
L 3431 531 
L 3431 0 
L 469 0 
L 469 531 
Q 828 903 1448 1529 
Q 2069 2156 2228 2338 
Q 2531 2678 2651 2914 
Q 2772 3150 2772 3378 
Q 2772 3750 2511 3984 
Q 2250 4219 1831 4219 
Q 1534 4219 1204 4116 
Q 875 4013 500 3803 
L 500 4441 
Q 881 4594 1212 4672 
Q 1544 4750 1819 4750 
Q 2544 4750 2975 4387 
Q 3406 4025 3406 3419 
Q 3406 3131 3298 2873 
Q 3191 2616 2906 2266 
Q 2828 2175 2409 1742 
Q 1991 1309 1228 531 
z
" transform="scale(0.015625)"/>
        <path id="DejaVuSans-38" d="M 2034 2216 
Q 1584 2216 1326 1975 
Q 1069 1734 1069 1313 
Q 1069 891 1326 650 
Q 1584 409 2034 409 
Q 2484 409 2743 651 
Q 3003 894 3003 1313 
Q 3003 1734 2745 1975 
Q 2488 2216 2034 2216 
z
M 1403 2484 
Q 997 2584 770 2862 
Q 544 3141 544 3541 
Q 544 4100 942 4425 
Q 1341 4750 2034 4750 
Q 2731 4750 3128 4425 
Q 3525 4100 3525 3541 
Q 3525 3141 3298 2862 
Q 3072 2584 2669 2484 
Q 3125 2378 3379 2068 
Q 3634 1759 3634 1313 
Q 3634 634 3220 271 
Q 2806 -91 2034 -91 
Q 1263 -91 848 271 
Q 434 634 434 1313 
Q 434 1759 690 2068 
Q 947 2378 1403 2484 
z
M 1172 3481 
Q 1172 3119 1398 2916 
Q 1625 2713 2034 2713 
Q 2441 2713 2670 2916 
Q 2900 3119 2900 3481 
Q 2900 3844 2670 4047 
Q 2441 4250 2034 4250 
Q 1625 4250 1398 4047 
Q 1172 3844 1172 3481 
z
" transform="scale(0.015625)"/>
       </defs>
       <use xlink:href="#DejaVuSans-31"/>
       <use xlink:href="#DejaVuSans-32" transform="translate(63.623047 0)"/>
       <use xlink:href="#DejaVuSans-38" transform="translate(127.246094 0)"/>
       <use xlink:href="#DejaVuSans-20" transform="translate(190.869141 0)"/>
       <use xlink:href="#DejaVuSans-6b" transform="translate(222.65625 0)"/>
       <use xlink:href="#DejaVuSans-42" transform="translate(280.566406 0)"/>
      </g>
     </g>
    </g>
    <g id="xtick_4">
     <g id="line2d_7">
      <path d="M 271.269316 231.225464 
L 271.269316 10.8 
" clip-path="url(#p222d66dfc3)" style="fill: none; stroke-dasharray: 1.85,0.8; stroke-dashoffset: 0; stroke: #b2b2b2; stroke-width: 0.5"/>
     </g>
     <g id="line2d_8">
      <g>
       <use xlink:href="#mbed672b23f" x="271.269316" y="231.225464" style="stroke: #000000; stroke-width: 0.8"/>
      </g>
     </g>
     <g id="text_4">
      <!-- 256 kB -->
      <g transform="translate(239.990301 258.764498) rotate(-30) scale(0.1 -0.1)">
       <defs>
        <path id="DejaVuSans-35" d="M 691 4666 
L 3169 4666 
L 3169 4134 
L 1269 4134 
L 1269 2991 
Q 1406 3038 1543 3061 
Q 1681 3084 1819 3084 
Q 2600 3084 3056 2656 
Q 3513 2228 3513 1497 
Q 3513 744 3044 326 
Q 2575 -91 1722 -91 
Q 1428 -91 1123 -41 
Q 819 9 494 109 
L 494 744 
Q 775 591 1075 516 
Q 1375 441 1709 441 
Q 2250 441 2565 725 
Q 2881 1009 2881 1497 
Q 2881 1984 2565 2268 
Q 2250 2553 1709 2553 
Q 1456 2553 1204 2497 
Q 953 2441 691 2322 
L 691 4666 
z
" transform="scale(0.015625)"/>
       </defs>
       <use xlink:href="#DejaVuSans-32"/>
       <use xlink:href="#DejaVuSans-35" transform="translate(63.623047 0)"/>
       <use xlink:href="#DejaVuSans-36" transform="translate(127.246094 0)"/>
       <use xlink:href="#DejaVuSans-20" transform="translate(190.869141 0)"/>
       <use xlink:href="#DejaVuSans-6b" transform="translate(222.65625 0)"/>
       <use xlink:href="#DejaVuSans-42" transform="translate(280.566406 0)"/>
      </g>
     </g>
    </g>
    <g id="xtick_5">
     <g id="line2d_9">
      <path d="M 406.035432 231.225464 
L 406.035432 10.8 
" clip-path="url(#p222d66dfc3)" style="fill: none; stroke-dasharray: 1.85,0.8; stroke-dashoffset: 0; stroke: #b2b2b2; stroke-width: 0.5"/>
     </g>
     <g id="line2d_10">
      <g>
       <use xlink:href="#mbed672b23f" x="406.035432" y="231.225464" style="stroke: #000000; stroke-width: 0.8"/>
      </g>
     </g>
     <g id="text_5">
      <!-- 6 MB -->
      <g transform="translate(383.319243 253.820748) rotate(-30) scale(0.1 -0.1)">
       <defs>
        <path id="DejaVuSans-4d" d="M 628 4666 
L 1569 4666 
L 2759 1491 
L 3956 4666 
L 4897 4666 
L 4897 0 
L 4281 0 
L 4281 4097 
L 3078 897 
L 2444 897 
L 1241 4097 
L 1241 0 
L 628 0 
L 628 4666 
z
" transform="scale(0.015625)"/>
       </defs>
       <use xlink:href="#DejaVuSans-36"/>
       <use xlink:href="#DejaVuSans-20" transform="translate(63.623047 0)"/>
       <use xlink:href="#DejaVuSans-4d" transform="translate(95.410156 0)"/>
       <use xlink:href="#DejaVuSans-42" transform="translate(181.689453 0)"/>
      </g>
     </g>
    </g>
    <g id="xtick_6">
     <g id="line2d_11">
      <path d="M 457.090181 231.225464 
L 457.090181 10.8 
" clip-path="url(#p222d66dfc3)" style="fill: none; stroke-dasharray: 1.85,0.8; stroke-dashoffset: 0; stroke: #b2b2b2; stroke-width: 0.5"/>
     </g>
     <g id="line2d_12">
      <g>
       <use xlink:href="#mbed672b23f" x="457.090181" y="231.225464" style="stroke: #000000; stroke-width: 0.8"/>
      </g>
     </g>
     <g id="text_6">
      <!-- 20 MB -->
      <g transform="translate(428.863905 257.001998) rotate(-30) scale(0.1 -0.1)">
       <defs>
        <path id="DejaVuSans-30" d="M 2034 4250 
Q 1547 4250 1301 3770 
Q 1056 3291 1056 2328 
Q 1056 1369 1301 889 
Q 1547 409 2034 409 
Q 2525 409 2770 889 
Q 3016 1369 3016 2328 
Q 3016 3291 2770 3770 
Q 2525 4250 2034 4250 
z
M 2034 4750 
Q 2819 4750 3233 4129 
Q 3647 3509 3647 2328 
Q 3647 1150 3233 529 
Q 2819 -91 2034 -91 
Q 1250 -91 836 529 
Q 422 1150 422 2328 
Q 422 3509 836 4129 
Q 1250 4750 2034 4750 
z
" transform="scale(0.015625)"/>
       </defs>
       <use xlink:href="#DejaVuSans-32"/>
       <use xlink:href="#DejaVuSans-30" transform="translate(63.623047 0)"/>
       <use xlink:href="#DejaVuSans-20" transform="translate(127.246094 0)"/>
       <use xlink:href="#DejaVuSans-4d" transform="translate(159.033203 0)"/>
       <use xlink:href="#DejaVuSans-42" transform="translate(245.3125 0)"/>
      </g>
     </g>
    </g>
    <g id="xtick_7">
     <g id="line2d_13">
      <path d="M 486.483249 231.225464 
L 486.483249 10.8 
" clip-path="url(#p222d66dfc3)" style="fill: none; stroke-dasharray: 1.85,0.8; stroke-dashoffset: 0; stroke: #b2b2b2; stroke-width: 0.5"/>
     </g>
     <g id="line2d_14">
      <g>
       <use xlink:href="#mbed672b23f" x="486.483249" y="231.225464" style="stroke: #000000; stroke-width: 0.8"/>
      </g>
     </g>
     <g id="text_7">
      <!-- 40 MB -->
      <g transform="translate(458.256974 257.001998) rotate(-30) scale(0.1 -0.1)">
       <use xlink:href="#DejaVuSans-34"/>
       <use xlink:href="#DejaVuSans-30" transform="translate(63.623047 0)"/>
       <use xlink:href="#DejaVuSans-20" transform="translate(127.246094 0)"/>
       <use xlink:href="#DejaVuSans-4d" transform="translate(159.033203 0)"/>
       <use xlink:href="#DejaVuSans-42" transform="translate(245.3125 0)"/>
      </g>
     </g>
    </g>
    <g id="xtick_8">
     <g id="line2d_15">
      <path d="M 535.806932 231.225464 
L 535.806932 10.8 
" clip-path="url(#p222d66dfc3)" style="fill: none; stroke-dasharray: 1.85,0.8; stroke-dashoffset: 0; stroke: #b2b2b2; stroke-width: 0.5"/>
     </g>
     <g id="line2d_16">
      <g>
       <use xlink:href="#mbed672b23f" x="535.806932" y="231.225464" style="stroke: #000000; stroke-width: 0.8"/>
      </g>
     </g>
     <g id="text_8">
      <!-- 128 MB -->
      <g transform="translate(502.070569 260.183248) rotate(-30) scale(0.1 -0.1)">
       <use xlink:href="#DejaVuSans-31"/>
       <use xlink:href="#DejaVuSans-32" transform="translate(63.623047 0)"/>
       <use xlink:href="#DejaVuSans-38" transform="translate(127.246094 0)"/>
       <use xlink:href="#DejaVuSans-20" transform="translate(190.869141 0)"/>
       <use xlink:href="#DejaVuSans-4d" transform="translate(222.65625 0)"/>
       <use xlink:href="#DejaVuSans-42" transform="translate(308.935547 0)"/>
      </g>
     </g>
    </g>
    <g id="text_9">
     <!-- data volume per SM/CU, kB -->
     <g transform="translate(230.700937 275.102435) scale(0.12 -0.12)">
      <defs>
       <path id="DejaVuSans-64" d="M 2906 2969 
L 2906 4863 
L 3481 4863 
L 3481 0 
L 2906 0 
L 2906 525 
Q 2725 213 2448 61 
Q 2172 -91 1784 -91 
Q 1150 -91 751 415 
Q 353 922 353 1747 
Q 353 2572 751 3078 
Q 1150 3584 1784 3584 
Q 2172 3584 2448 3432 
Q 2725 3281 2906 2969 
z
M 947 1747 
Q 947 1113 1208 752 
Q 1469 391 1925 391 
Q 2381 391 2643 752 
Q 2906 1113 2906 1747 
Q 2906 2381 2643 2742 
Q 2381 3103 1925 3103 
Q 1469 3103 1208 2742 
Q 947 2381 947 1747 
z
" transform="scale(0.015625)"/>
       <path id="DejaVuSans-61" d="M 2194 1759 
Q 1497 1759 1228 1600 
Q 959 1441 959 1056 
Q 959 750 1161 570 
Q 1363 391 1709 391 
Q 2188 391 2477 730 
Q 2766 1069 2766 1631 
L 2766 1759 
L 2194 1759 
z
M 3341 1997 
L 3341 0 
L 2766 0 
L 2766 531 
Q 2569 213 2275 61 
Q 1981 -91 1556 -91 
Q 1019 -91 701 211 
Q 384 513 384 1019 
Q 384 1609 779 1909 
Q 1175 2209 1959 2209 
L 2766 2209 
L 2766 2266 
Q 2766 2663 2505 2880 
Q 2244 3097 1772 3097 
Q 1472 3097 1187 3025 
Q 903 2953 641 2809 
L 641 3341 
Q 956 3463 1253 3523 
Q 1550 3584 1831 3584 
Q 2591 3584 2966 3190 
Q 3341 2797 3341 1997 
z
" transform="scale(0.015625)"/>
       <path id="DejaVuSans-74" d="M 1172 4494 
L 1172 3500 
L 2356 3500 
L 2356 3053 
L 1172 3053 
L 1172 1153 
Q 1172 725 1289 603 
Q 1406 481 1766 481 
L 2356 481 
L 2356 0 
L 1766 0 
Q 1100 0 847 248 
Q 594 497 594 1153 
L 594 3053 
L 172 3053 
L 172 3500 
L 594 3500 
L 594 4494 
L 1172 4494 
z
" transform="scale(0.015625)"/>
       <path id="DejaVuSans-76" d="M 191 3500 
L 800 3500 
L 1894 563 
L 2988 3500 
L 3597 3500 
L 2284 0 
L 1503 0 
L 191 3500 
z
" transform="scale(0.015625)"/>
       <path id="DejaVuSans-6f" d="M 1959 3097 
Q 1497 3097 1228 2736 
Q 959 2375 959 1747 
Q 959 1119 1226 758 
Q 1494 397 1959 397 
Q 2419 397 2687 759 
Q 2956 1122 2956 1747 
Q 2956 2369 2687 2733 
Q 2419 3097 1959 3097 
z
M 1959 3584 
Q 2709 3584 3137 3096 
Q 3566 2609 3566 1747 
Q 3566 888 3137 398 
Q 2709 -91 1959 -91 
Q 1206 -91 779 398 
Q 353 888 353 1747 
Q 353 2609 779 3096 
Q 1206 3584 1959 3584 
z
" transform="scale(0.015625)"/>
       <path id="DejaVuSans-6c" d="M 603 4863 
L 1178 4863 
L 1178 0 
L 603 0 
L 603 4863 
z
" transform="scale(0.015625)"/>
       <path id="DejaVuSans-75" d="M 544 1381 
L 544 3500 
L 1119 3500 
L 1119 1403 
Q 1119 906 1312 657 
Q 1506 409 1894 409 
Q 2359 409 2629 706 
Q 2900 1003 2900 1516 
L 2900 3500 
L 3475 3500 
L 3475 0 
L 2900 0 
L 2900 538 
Q 2691 219 2414 64 
Q 2138 -91 1772 -91 
Q 1169 -91 856 284 
Q 544 659 544 1381 
z
M 1991 3584 
L 1991 3584 
z
" transform="scale(0.015625)"/>
       <path id="DejaVuSans-6d" d="M 3328 2828 
Q 3544 3216 3844 3400 
Q 4144 3584 4550 3584 
Q 5097 3584 5394 3201 
Q 5691 2819 5691 2113 
L 5691 0 
L 5113 0 
L 5113 2094 
Q 5113 2597 4934 2840 
Q 4756 3084 4391 3084 
Q 3944 3084 3684 2787 
Q 3425 2491 3425 1978 
L 3425 0 
L 2847 0 
L 2847 2094 
Q 2847 2600 2669 2842 
Q 2491 3084 2119 3084 
Q 1678 3084 1418 2786 
Q 1159 2488 1159 1978 
L 1159 0 
L 581 0 
L 581 3500 
L 1159 3500 
L 1159 2956 
Q 1356 3278 1631 3431 
Q 1906 3584 2284 3584 
Q 2666 3584 2933 3390 
Q 3200 3197 3328 2828 
z
" transform="scale(0.015625)"/>
       <path id="DejaVuSans-65" d="M 3597 1894 
L 3597 1613 
L 953 1613 
Q 991 1019 1311 708 
Q 1631 397 2203 397 
Q 2534 397 2845 478 
Q 3156 559 3463 722 
L 3463 178 
Q 3153 47 2828 -22 
Q 2503 -91 2169 -91 
Q 1331 -91 842 396 
Q 353 884 353 1716 
Q 353 2575 817 3079 
Q 1281 3584 2069 3584 
Q 2775 3584 3186 3129 
Q 3597 2675 3597 1894 
z
M 3022 2063 
Q 3016 2534 2758 2815 
Q 2500 3097 2075 3097 
Q 1594 3097 1305 2825 
Q 1016 2553 972 2059 
L 3022 2063 
z
" transform="scale(0.015625)"/>
       <path id="DejaVuSans-70" d="M 1159 525 
L 1159 -1331 
L 581 -1331 
L 581 3500 
L 1159 3500 
L 1159 2969 
Q 1341 3281 1617 3432 
Q 1894 3584 2278 3584 
Q 2916 3584 3314 3078 
Q 3713 2572 3713 1747 
Q 3713 922 3314 415 
Q 2916 -91 2278 -91 
Q 1894 -91 1617 61 
Q 1341 213 1159 525 
z
M 3116 1747 
Q 3116 2381 2855 2742 
Q 2594 3103 2138 3103 
Q 1681 3103 1420 2742 
Q 1159 2381 1159 1747 
Q 1159 1113 1420 752 
Q 1681 391 2138 391 
Q 2594 391 2855 752 
Q 3116 1113 3116 1747 
z
" transform="scale(0.015625)"/>
       <path id="DejaVuSans-72" d="M 2631 2963 
Q 2534 3019 2420 3045 
Q 2306 3072 2169 3072 
Q 1681 3072 1420 2755 
Q 1159 2438 1159 1844 
L 1159 0 
L 581 0 
L 581 3500 
L 1159 3500 
L 1159 2956 
Q 1341 3275 1631 3429 
Q 1922 3584 2338 3584 
Q 2397 3584 2469 3576 
Q 2541 3569 2628 3553 
L 2631 2963 
z
" transform="scale(0.015625)"/>
       <path id="DejaVuSans-53" d="M 3425 4513 
L 3425 3897 
Q 3066 4069 2747 4153 
Q 2428 4238 2131 4238 
Q 1616 4238 1336 4038 
Q 1056 3838 1056 3469 
Q 1056 3159 1242 3001 
Q 1428 2844 1947 2747 
L 2328 2669 
Q 3034 2534 3370 2195 
Q 3706 1856 3706 1288 
Q 3706 609 3251 259 
Q 2797 -91 1919 -91 
Q 1588 -91 1214 -16 
Q 841 59 441 206 
L 441 856 
Q 825 641 1194 531 
Q 1563 422 1919 422 
Q 2459 422 2753 634 
Q 3047 847 3047 1241 
Q 3047 1584 2836 1778 
Q 2625 1972 2144 2069 
L 1759 2144 
Q 1053 2284 737 2584 
Q 422 2884 422 3419 
Q 422 4038 858 4394 
Q 1294 4750 2059 4750 
Q 2388 4750 2728 4690 
Q 3069 4631 3425 4513 
z
" transform="scale(0.015625)"/>
       <path id="DejaVuSans-2f" d="M 1625 4666 
L 2156 4666 
L 531 -594 
L 0 -594 
L 1625 4666 
z
" transform="scale(0.015625)"/>
       <path id="DejaVuSans-43" d="M 4122 4306 
L 4122 3641 
Q 3803 3938 3442 4084 
Q 3081 4231 2675 4231 
Q 1875 4231 1450 3742 
Q 1025 3253 1025 2328 
Q 1025 1406 1450 917 
Q 1875 428 2675 428 
Q 3081 428 3442 575 
Q 3803 722 4122 1019 
L 4122 359 
Q 3791 134 3420 21 
Q 3050 -91 2638 -91 
Q 1578 -91 968 557 
Q 359 1206 359 2328 
Q 359 3453 968 4101 
Q 1578 4750 2638 4750 
Q 3056 4750 3426 4639 
Q 3797 4528 4122 4306 
z
" transform="scale(0.015625)"/>
       <path id="DejaVuSans-55" d="M 556 4666 
L 1191 4666 
L 1191 1831 
Q 1191 1081 1462 751 
Q 1734 422 2344 422 
Q 2950 422 3222 751 
Q 3494 1081 3494 1831 
L 3494 4666 
L 4128 4666 
L 4128 1753 
Q 4128 841 3676 375 
Q 3225 -91 2344 -91 
Q 1459 -91 1007 375 
Q 556 841 556 1753 
L 556 4666 
z
" transform="scale(0.015625)"/>
       <path id="DejaVuSans-2c" d="M 750 794 
L 1409 794 
L 1409 256 
L 897 -744 
L 494 -744 
L 750 256 
L 750 794 
z
" transform="scale(0.015625)"/>
      </defs>
      <use xlink:href="#DejaVuSans-64"/>
      <use xlink:href="#DejaVuSans-61" transform="translate(63.476562 0)"/>
      <use xlink:href="#DejaVuSans-74" transform="translate(124.755859 0)"/>
      <use xlink:href="#DejaVuSans-61" transform="translate(163.964844 0)"/>
      <use xlink:href="#DejaVuSans-20" transform="translate(225.244141 0)"/>
      <use xlink:href="#DejaVuSans-76" transform="translate(257.03125 0)"/>
      <use xlink:href="#DejaVuSans-6f" transform="translate(316.210938 0)"/>
      <use xlink:href="#DejaVuSans-6c" transform="translate(377.392578 0)"/>
      <use xlink:href="#DejaVuSans-75" transform="translate(405.175781 0)"/>
      <use xlink:href="#DejaVuSans-6d" transform="translate(468.554688 0)"/>
      <use xlink:href="#DejaVuSans-65" transform="translate(565.966797 0)"/>
      <use xlink:href="#DejaVuSans-20" transform="translate(627.490234 0)"/>
      <use xlink:href="#DejaVuSans-70" transform="translate(659.277344 0)"/>
      <use xlink:href="#DejaVuSans-65" transform="translate(722.753906 0)"/>
      <use xlink:href="#DejaVuSans-72" transform="translate(784.277344 0)"/>
      <use xlink:href="#DejaVuSans-20" transform="translate(825.390625 0)"/>
      <use xlink:href="#DejaVuSans-53" transform="translate(857.177734 0)"/>
      <use xlink:href="#DejaVuSans-4d" transform="translate(920.654297 0)"/>
      <use xlink:href="#DejaVuSans-2f" transform="translate(1006.933594 0)"/>
      <use xlink:href="#DejaVuSans-43" transform="translate(1040.625 0)"/>
      <use xlink:href="#DejaVuSans-55" transform="translate(1110.449219 0)"/>
      <use xlink:href="#DejaVuSans-2c" transform="translate(1183.642578 0)"/>
      <use xlink:href="#DejaVuSans-20" transform="translate(1215.429688 0)"/>
      <use xlink:href="#DejaVuSans-6b" transform="translate(1247.216797 0)"/>
      <use xlink:href="#DejaVuSans-42" transform="translate(1305.126953 0)"/>
     </g>
    </g>
   </g>
   <g id="matplotlib.axis_2">
    <g id="ytick_1">
     <g id="line2d_17">
      <path d="M 61.05 231.225464 
L 565.2 231.225464 
" clip-path="url(#p222d66dfc3)" style="fill: none; stroke-dasharray: 1.85,0.8; stroke-dashoffset: 0; stroke: #b2b2b2; stroke-width: 0.5"/>
     </g>
     <g id="line2d_18">
      <defs>
       <path id="m74d37e5365" d="M 0 0 
L 3.5 0 
" style="stroke: #000000; stroke-width: 0.8"/>
      </defs>
      <g>
       <use xlink:href="#m74d37e5365" x="61.05" y="231.225464" style="stroke: #000000; stroke-width: 0.8"/>
      </g>
     </g>
     <g id="text_10">
      <!-- 0 -->
      <g transform="translate(51.1875 235.024683) scale(0.1 -0.1)">
       <use xlink:href="#DejaVuSans-30"/>
      </g>
     </g>
    </g>
    <g id="ytick_2">
     <g id="line2d_19">
      <path d="M 61.05 182.573766 
L 565.2 182.573766 
" clip-path="url(#p222d66dfc3)" style="fill: none; stroke-dasharray: 1.85,0.8; stroke-dashoffset: 0; stroke: #b2b2b2; stroke-width: 0.5"/>
     </g>
     <g id="line2d_20">
      <g>
       <use xlink:href="#m74d37e5365" x="61.05" y="182.573766" style="stroke: #000000; stroke-width: 0.8"/>
      </g>
     </g>
     <g id="text_11">
      <!-- 10000 -->
      <g transform="translate(25.7375 186.372984) scale(0.1 -0.1)">
       <use xlink:href="#DejaVuSans-31"/>
       <use xlink:href="#DejaVuSans-30" transform="translate(63.623047 0)"/>
       <use xlink:href="#DejaVuSans-30" transform="translate(127.246094 0)"/>
       <use xlink:href="#DejaVuSans-30" transform="translate(190.869141 0)"/>
       <use xlink:href="#DejaVuSans-30" transform="translate(254.492188 0)"/>
      </g>
     </g>
    </g>
    <g id="ytick_3">
     <g id="line2d_21">
      <path d="M 61.05 133.922067 
L 565.2 133.922067 
" clip-path="url(#p222d66dfc3)" style="fill: none; stroke-dasharray: 1.85,0.8; stroke-dashoffset: 0; stroke: #b2b2b2; stroke-width: 0.5"/>
     </g>
     <g id="line2d_22">
      <g>
       <use xlink:href="#m74d37e5365" x="61.05" y="133.922067" style="stroke: #000000; stroke-width: 0.8"/>
      </g>
     </g>
     <g id="text_12">
      <!-- 20000 -->
      <g transform="translate(25.7375 137.721286) scale(0.1 -0.1)">
       <use xlink:href="#DejaVuSans-32"/>
       <use xlink:href="#DejaVuSans-30" transform="translate(63.623047 0)"/>
       <use xlink:href="#DejaVuSans-30" transform="translate(127.246094 0)"/>
       <use xlink:href="#DejaVuSans-30" transform="translate(190.869141 0)"/>
       <use xlink:href="#DejaVuSans-30" transform="translate(254.492188 0)"/>
      </g>
     </g>
    </g>
    <g id="ytick_4">
     <g id="line2d_23">
      <path d="M 61.05 85.270369 
L 565.2 85.270369 
" clip-path="url(#p222d66dfc3)" style="fill: none; stroke-dasharray: 1.85,0.8; stroke-dashoffset: 0; stroke: #b2b2b2; stroke-width: 0.5"/>
     </g>
     <g id="line2d_24">
      <g>
       <use xlink:href="#m74d37e5365" x="61.05" y="85.270369" style="stroke: #000000; stroke-width: 0.8"/>
      </g>
     </g>
     <g id="text_13">
      <!-- 30000 -->
      <g transform="translate(25.7375 89.069588) scale(0.1 -0.1)">
       <defs>
        <path id="DejaVuSans-33" d="M 2597 2516 
Q 3050 2419 3304 2112 
Q 3559 1806 3559 1356 
Q 3559 666 3084 287 
Q 2609 -91 1734 -91 
Q 1441 -91 1130 -33 
Q 819 25 488 141 
L 488 750 
Q 750 597 1062 519 
Q 1375 441 1716 441 
Q 2309 441 2620 675 
Q 2931 909 2931 1356 
Q 2931 1769 2642 2001 
Q 2353 2234 1838 2234 
L 1294 2234 
L 1294 2753 
L 1863 2753 
Q 2328 2753 2575 2939 
Q 2822 3125 2822 3475 
Q 2822 3834 2567 4026 
Q 2313 4219 1838 4219 
Q 1578 4219 1281 4162 
Q 984 4106 628 3988 
L 628 4550 
Q 988 4650 1302 4700 
Q 1616 4750 1894 4750 
Q 2613 4750 3031 4423 
Q 3450 4097 3450 3541 
Q 3450 3153 3228 2886 
Q 3006 2619 2597 2516 
z
" transform="scale(0.015625)"/>
       </defs>
       <use xlink:href="#DejaVuSans-33"/>
       <use xlink:href="#DejaVuSans-30" transform="translate(63.623047 0)"/>
       <use xlink:href="#DejaVuSans-30" transform="translate(127.246094 0)"/>
       <use xlink:href="#DejaVuSans-30" transform="translate(190.869141 0)"/>
       <use xlink:href="#DejaVuSans-30" transform="translate(254.492188 0)"/>
      </g>
     </g>
    </g>
    <g id="ytick_5">
     <g id="line2d_25">
      <path d="M 61.05 36.618671 
L 565.2 36.618671 
" clip-path="url(#p222d66dfc3)" style="fill: none; stroke-dasharray: 1.85,0.8; stroke-dashoffset: 0; stroke: #b2b2b2; stroke-width: 0.5"/>
     </g>
     <g id="line2d_26">
      <g>
       <use xlink:href="#m74d37e5365" x="61.05" y="36.618671" style="stroke: #000000; stroke-width: 0.8"/>
      </g>
     </g>
     <g id="text_14">
      <!-- 40000 -->
      <g transform="translate(25.7375 40.417889) scale(0.1 -0.1)">
       <use xlink:href="#DejaVuSans-34"/>
       <use xlink:href="#DejaVuSans-30" transform="translate(63.623047 0)"/>
       <use xlink:href="#DejaVuSans-30" transform="translate(127.246094 0)"/>
       <use xlink:href="#DejaVuSans-30" transform="translate(190.869141 0)"/>
       <use xlink:href="#DejaVuSans-30" transform="translate(254.492188 0)"/>
      </g>
     </g>
    </g>
    <g id="text_15">
     <!-- GB/s -->
     <g transform="translate(19.241875 134.925232) rotate(-90) scale(0.12 -0.12)">
      <defs>
       <path id="DejaVuSans-47" d="M 3809 666 
L 3809 1919 
L 2778 1919 
L 2778 2438 
L 4434 2438 
L 4434 434 
Q 4069 175 3628 42 
Q 3188 -91 2688 -91 
Q 1594 -91 976 548 
Q 359 1188 359 2328 
Q 359 3472 976 4111 
Q 1594 4750 2688 4750 
Q 3144 4750 3555 4637 
Q 3966 4525 4313 4306 
L 4313 3634 
Q 3963 3931 3569 4081 
Q 3175 4231 2741 4231 
Q 1884 4231 1454 3753 
Q 1025 3275 1025 2328 
Q 1025 1384 1454 906 
Q 1884 428 2741 428 
Q 3075 428 3337 486 
Q 3600 544 3809 666 
z
" transform="scale(0.015625)"/>
       <path id="DejaVuSans-73" d="M 2834 3397 
L 2834 2853 
Q 2591 2978 2328 3040 
Q 2066 3103 1784 3103 
Q 1356 3103 1142 2972 
Q 928 2841 928 2578 
Q 928 2378 1081 2264 
Q 1234 2150 1697 2047 
L 1894 2003 
Q 2506 1872 2764 1633 
Q 3022 1394 3022 966 
Q 3022 478 2636 193 
Q 2250 -91 1575 -91 
Q 1294 -91 989 -36 
Q 684 19 347 128 
L 347 722 
Q 666 556 975 473 
Q 1284 391 1588 391 
Q 1994 391 2212 530 
Q 2431 669 2431 922 
Q 2431 1156 2273 1281 
Q 2116 1406 1581 1522 
L 1381 1569 
Q 847 1681 609 1914 
Q 372 2147 372 2553 
Q 372 3047 722 3315 
Q 1072 3584 1716 3584 
Q 2034 3584 2315 3537 
Q 2597 3491 2834 3397 
z
" transform="scale(0.015625)"/>
      </defs>
      <use xlink:href="#DejaVuSans-47"/>
      <use xlink:href="#DejaVuSans-42" transform="translate(77.490234 0)"/>
      <use xlink:href="#DejaVuSans-2f" transform="translate(146.09375 0)"/>
      <use xlink:href="#DejaVuSans-73" transform="translate(179.785156 0)"/>
     </g>
    </g>
   </g>
   <g id="line2d_27">
    <path d="M 36.124769 194.53284 
L 65.517837 187.124159 
L 94.910906 185.812509 
L 112.104749 185.728342 
L 124.303974 185.793535 
L 141.497817 185.711314 
L 153.697043 185.731261 
L 163.159497 185.737586 
L 170.890885 185.781372 
L 177.427681 185.723477 
L 183.090111 185.722017 
L 188.084728 185.723963 
L 192.552565 185.725423 
L 196.594216 185.725909 
L 200.283954 185.741964 
L 203.678183 185.733693 
L 206.820749 185.728342 
L 209.746408 185.73272 
L 212.483179 185.72445 
L 215.053981 185.719098 
L 217.477796 185.720557 
L 219.77053 185.728828 
L 221.945634 185.764344 
L 224.014592 185.753641 
L 225.987284 185.740505 
L 227.872272 185.722017 
L 229.677022 185.731747 
L 231.408088 185.73418 
L 233.071252 185.72445 
L 234.671639 185.73272 
L 236.213818 185.731261 
L 237.701873 185.729801 
L 239.139477 185.838781 
L 240.529937 185.868459 
L 241.876248 185.906893 
L 248.032725 186.002737 
L 254.405477 186.498985 
L 261.640892 192.058901 
L 267.819835 216.035431 
L 275.069341 218.027231 
L 281.778867 218.956965 
L 288.463159 218.818794 
L 294.999955 219.107299 
L 301.644789 219.096596 
L 308.227803 219.192439 
L 314.883215 219.142328 
L 321.656252 219.068864 
L 328.365778 219.049403 
L 335.05007 219.000265 
L 348.339465 219.151085 
L 354.999085 219.140869 
L 361.706367 219.143788 
L 368.31042 219.084433 
L 375.01011 219.13503 
L 381.636981 219.047944 
L 388.299795 219.089784 
L 394.962236 219.077135 
L 401.647275 219.082 
L 408.293279 219.064485 
L 414.964481 219.179303 
L 421.616144 219.251308 
L 428.272944 219.407966 
L 434.942595 219.390452 
L 441.596915 219.432779 
L 448.254593 219.421589 
L 454.915077 219.452239 
L 461.573752 219.490188 
L 468.228539 219.569977 
L 474.887082 219.581166 
L 481.543467 219.691606 
L 488.203713 219.974759 
L 494.861901 220.110983 
L 501.519421 219.89351 
L 508.178046 219.713013 
L 514.836675 219.779665 
L 521.493948 219.867725 
L 528.152085 219.878915 
L 534.809177 219.940216 
L 541.466935 219.957731 
L 548.125693 220.03606 
L 554.78316 219.910052 
L 561.440559 220.092982 
L 568.098992 219.971353 
" clip-path="url(#p222d66dfc3)" style="fill: none; stroke: #378abd; stroke-width: 2; stroke-linecap: square"/>
   </g>
   <g id="line2d_28">
    <path d="M 36.124769 190.233489 
L 65.517837 173.634016 
L 94.910906 158.807897 
L 112.104749 152.128019 
L 124.303974 147.567896 
L 141.497817 144.698905 
L 153.697043 141.626064 
L 163.159497 140.862719 
L 170.890885 140.112509 
L 177.427681 137.723711 
L 183.090111 138.164495 
L 188.084728 138.588738 
L 192.552565 138.967735 
L 196.594216 139.050443 
L 200.283954 139.677077 
L 203.678183 139.758812 
L 206.820749 139.376409 
L 209.746408 138.305099 
L 212.483179 138.579494 
L 215.053981 138.479272 
L 217.477796 139.118555 
L 219.77053 138.421863 
L 221.945634 138.520626 
L 224.014592 138.633984 
L 225.987284 137.958212 
L 227.872272 137.814203 
L 229.677022 138.199038 
L 231.408088 138.639336 
L 233.071252 138.461271 
L 234.671639 137.893019 
L 236.213818 137.854098 
L 237.701873 137.900317 
L 239.139477 137.78112 
L 240.529937 137.957239 
L 241.876248 138.450567 
L 248.032725 137.731495 
L 254.405477 142.659426 
L 261.640892 156.479427 
L 267.819835 171.95164 
L 275.069341 195.649883 
L 281.778867 208.680753 
L 288.463159 205.997126 
L 294.999955 206.305578 
L 301.644789 207.290774 
L 308.227803 204.215501 
L 314.883215 206.722523 
L 321.656252 206.412611 
L 328.365778 204.817809 
L 335.05007 205.127233 
L 348.339465 205.114097 
L 354.999085 204.8037 
L 361.706367 204.884461 
L 368.31042 204.503032 
L 375.01011 204.603255 
L 381.636981 204.6305 
L 388.299795 204.659204 
L 394.962236 204.680124 
L 401.647275 204.614444 
L 408.293279 204.657745 
L 414.964481 204.642662 
L 421.616144 204.676719 
L 428.272944 204.745804 
L 434.942595 204.591578 
L 441.596915 204.758454 
L 448.254593 204.847 
L 454.915077 204.846027 
L 461.573752 207.406079 
L 468.228539 208.652049 
L 474.887082 208.379599 
L 481.543467 207.504355 
L 488.203713 208.643292 
L 494.861901 207.813294 
L 501.519421 208.842764 
L 508.178046 208.013739 
L 514.836675 208.29154 
L 521.493948 208.05412 
L 528.152085 207.768534 
L 534.809177 208.875847 
L 541.466935 208.823789 
L 548.125693 208.887523 
L 554.78316 207.66296 
L 561.440559 208.727459 
L 568.098992 207.867784 
" clip-path="url(#p222d66dfc3)" style="fill: none; stroke: #da5252; stroke-width: 2; stroke-linecap: square"/>
   </g>
   <g id="line2d_29">
    <path d="M 94.910906 186.958257 
L 124.303974 190.823634 
L 153.697043 180.210266 
L 170.890885 218.088046 
L 183.090111 218.224757 
L 200.283954 218.851877 
L 212.483179 218.989562 
L 221.945634 219.030429 
L 229.677022 219.101461 
L 236.213818 219.036267 
L 241.876248 218.981291 
L 246.870865 219.145734 
L 251.338702 219.043079 
L 255.380353 218.720031 
L 259.07009 218.617376 
L 262.46432 218.74533 
L 265.606886 218.698625 
L 268.532545 218.717112 
L 271.269316 218.763818 
" clip-path="url(#p222d66dfc3)" style="fill: none; stroke: #10cfcc; stroke-width: 2; stroke-linecap: square"/>
   </g>
   <g id="line2d_30">
    <path d="M 94.910906 181.466453 
L 124.303974 179.871164 
L 153.697043 180.050202 
L 170.890885 197.07635 
L 183.090111 190.176566 
L 200.283954 208.379599 
L 212.483179 207.184227 
L 221.945634 210.564061 
L 229.677022 210.925543 
L 236.213818 209.081157 
L 241.876248 210.308639 
L 246.870865 212.727115 
L 251.338702 212.855556 
L 255.380353 207.579766 
L 259.07009 207.278611 
L 262.46432 207.127305 
L 265.606886 207.236771 
L 268.532545 207.244555 
L 271.269316 207.643986 
L 273.840117 215.487126 
L 276.263933 215.39858 
L 278.556666 215.512911 
L 280.731771 215.593187 
L 282.800729 215.610215 
L 284.773421 215.654001 
L 286.658408 215.655947 
L 288.463159 215.439447 
" clip-path="url(#p222d66dfc3)" style="fill: none; stroke: #ffe100; stroke-width: 2; stroke-linecap: square"/>
   </g>
   <g id="line2d_31">
    <path d="M 94.910906 42.425251 
L 124.303974 44.450621 
L 153.697043 45.499552 
L 170.890885 39.861793 
L 183.090111 42.337678 
L 200.283954 50.466403 
L 212.483179 71.545725 
L 221.945634 74.862798 
L 229.677022 93.81458 
L 236.213818 98.748349 
L 241.876248 96.434474 
L 246.870865 95.600584 
L 251.338702 97.668281 
L 255.380353 92.811869 
L 259.07009 93.421961 
L 262.46432 94.306449 
L 265.606886 92.861493 
L 268.532545 93.016692 
L 271.269316 92.15799 
L 273.840117 97.368587 
L 276.263933 97.244038 
L 278.556666 97.008078 
L 280.731771 100.08773 
L 282.800729 100.894375 
L 284.773421 96.704005 
L 286.658408 97.050405 
L 288.463159 97.230416 
L 290.194225 98.392705 
L 291.857389 97.110733 
L 293.457776 97.071325 
L 294.999955 97.240146 
L 296.48801 97.033377 
L 297.925613 96.813471 
L 299.316073 96.882556 
L 300.662384 96.433501 
L 306.818862 96.632487 
L 313.191614 97.457133 
L 320.427029 98.749322 
L 326.605972 99.976804 
L 333.855477 101.134228 
L 340.565003 98.804785 
L 347.249296 97.298528 
L 353.786091 100.084811 
L 360.430926 102.013364 
L 367.01394 99.432392 
L 373.669351 100.620953 
L 380.442389 100.200602 
L 387.151915 102.089748 
L 393.836207 108.138127 
L 407.125601 120.75935 
L 413.785222 131.081295 
L 420.492504 147.841318 
L 427.096556 141.585683 
L 433.796247 171.065693 
L 440.423118 188.93011 
L 447.085932 181.489806 
L 453.748373 133.297866 
L 460.433412 184.189975 
L 467.079415 197.525892 
L 473.750618 191.221118 
L 480.402281 189.876386 
L 487.059081 198.829758 
L 493.728732 199.057934 
L 500.383051 204.225231 
L 507.04073 196.751357 
L 513.701214 205.151073 
L 520.359888 201.543549 
L 527.014676 198.71202 
L 533.673219 204.448542 
L 540.329604 204.242746 
L 546.98985 204.322534 
L 553.648038 201.256991 
L 560.305558 202.775897 
L 566.964182 205.297028 
L 573.622812 136.514716 
L 577 152.261229 
" clip-path="url(#p222d66dfc3)" style="fill: none; stroke: #09047f; stroke-width: 2; stroke-linecap: square"/>
   </g>
   <g id="line2d_32">
    <path d="M 94.910906 197.039862 
L 124.303974 166.077434 
L 153.697043 133.883632 
L 170.890885 146.85077 
L 183.090111 118.069884 
L 200.283954 151.819081 
L 212.483179 164.490902 
L 221.945634 176.905356 
L 229.677022 176.949629 
L 236.213818 180.67343 
L 241.876248 178.933646 
L 246.870865 182.683232 
L 251.338702 182.83162 
L 255.380353 189.858871 
L 259.07009 191.478972 
L 262.46432 192.694292 
L 265.606886 194.758583 
L 268.532545 196.472583 
L 271.269316 197.877157 
L 273.840117 196.471123 
L 276.263933 197.898078 
L 278.556666 198.614717 
L 280.731771 199.663648 
L 282.800729 200.530621 
L 284.773421 201.098873 
L 286.658408 201.834486 
L 288.463159 202.05196 
L 290.194225 202.908229 
L 291.857389 203.340743 
L 293.457776 203.747471 
L 294.999955 204.119657 
L 296.48801 204.425676 
L 297.925613 204.708829 
L 299.316073 205.049391 
L 300.662384 204.626607 
L 306.818862 206.021452 
L 313.191614 206.756092 
L 320.427029 207.440135 
L 326.605972 207.803563 
L 333.855477 206.283198 
L 340.565003 206.49094 
L 347.249296 207.972871 
L 353.786091 206.612083 
L 360.430926 206.997891 
L 367.01394 208.458415 
L 373.669351 208.236563 
L 380.442389 207.671231 
L 387.151915 207.212932 
L 393.836207 208.977529 
L 407.125601 209.013531 
L 413.785222 209.913587 
L 420.492504 211.998313 
L 427.096556 206.0594 
L 433.796247 204.82462 
L 440.423118 212.839987 
L 447.085932 217.939658 
L 453.748373 218.95064 
L 460.433412 203.252197 
L 467.079415 203.510051 
L 473.750618 190.524426 
L 480.402281 220.324078 
L 487.059081 204.810511 
L 493.728732 217.59861 
L 500.383051 216.66693 
L 507.04073 217.784459 
L 513.701214 218.435419 
L 520.359888 203.731416 
L 527.014676 202.226619 
L 533.673219 202.646483 
L 540.329604 204.598389 
L 546.98985 203.983918 
L 553.648038 203.864722 
L 560.305558 204.258801 
L 566.964182 203.853045 
L 573.622812 203.364096 
L 577 203.791318 
" clip-path="url(#p222d66dfc3)" style="fill: none; stroke: #296f20; stroke-width: 2; stroke-linecap: square"/>
   </g>
   <g id="patch_3">
    <path d="M 61.05 231.225464 
L 61.05 10.8 
" style="fill: none; stroke: #bcbcbc; stroke-width: 0.8; stroke-linejoin: miter; stroke-linecap: square"/>
   </g>
   <g id="patch_4">
    <path d="M 565.2 231.225464 
L 565.2 10.8 
" style="fill: none; stroke: #bcbcbc; stroke-width: 0.8; stroke-linejoin: miter; stroke-linecap: square"/>
   </g>
   <g id="patch_5">
    <path d="M 61.05 231.225464 
L 565.2 231.225464 
" style="fill: none; stroke: #bcbcbc; stroke-width: 0.8; stroke-linejoin: miter; stroke-linecap: square"/>
   </g>
   <g id="patch_6">
    <path d="M 61.05 10.8 
L 565.2 10.8 
" style="fill: none; stroke: #bcbcbc; stroke-width: 0.8; stroke-linejoin: miter; stroke-linecap: square"/>
   </g>
   <g id="legend_1">
    <g id="patch_7">
     <path d="M 474.16875 106.86875 
L 558.2 106.86875 
Q 560.2 106.86875 560.2 104.86875 
L 560.2 17.8 
Q 560.2 15.8 558.2 15.8 
L 474.16875 15.8 
Q 472.16875 15.8 472.16875 17.8 
L 472.16875 104.86875 
Q 472.16875 106.86875 474.16875 106.86875 
z
" style="fill: #ffffff; opacity: 0.8; stroke: #cccccc; stroke-width: 0.5; stroke-linejoin: miter"/>
    </g>
    <g id="line2d_33">
     <path d="M 476.16875 23.898438 
L 486.16875 23.898438 
L 496.16875 23.898438 
" style="fill: none; stroke: #378abd; stroke-width: 2; stroke-linecap: square"/>
    </g>
    <g id="text_16">
     <!-- A40 -->
     <g transform="translate(504.16875 27.398438) scale(0.1 -0.1)">
      <defs>
       <path id="DejaVuSans-41" d="M 2188 4044 
L 1331 1722 
L 3047 1722 
L 2188 4044 
z
M 1831 4666 
L 2547 4666 
L 4325 0 
L 3669 0 
L 3244 1197 
L 1141 1197 
L 716 0 
L 50 0 
L 1831 4666 
z
" transform="scale(0.015625)"/>
      </defs>
      <use xlink:href="#DejaVuSans-41"/>
      <use xlink:href="#DejaVuSans-34" transform="translate(68.408203 0)"/>
      <use xlink:href="#DejaVuSans-30" transform="translate(132.03125 0)"/>
     </g>
    </g>
    <g id="line2d_34">
     <path d="M 476.16875 38.576562 
L 486.16875 38.576562 
L 496.16875 38.576562 
" style="fill: none; stroke: #da5252; stroke-width: 2; stroke-linecap: square"/>
    </g>
    <g id="text_17">
     <!-- A100 -->
     <g transform="translate(504.16875 42.076562) scale(0.1 -0.1)">
      <use xlink:href="#DejaVuSans-41"/>
      <use xlink:href="#DejaVuSans-31" transform="translate(68.408203 0)"/>
      <use xlink:href="#DejaVuSans-30" transform="translate(132.03125 0)"/>
      <use xlink:href="#DejaVuSans-30" transform="translate(195.654297 0)"/>
     </g>
    </g>
    <g id="line2d_35">
     <path d="M 476.16875 53.254687 
L 486.16875 53.254687 
L 496.16875 53.254687 
" style="fill: none; stroke: #10cfcc; stroke-width: 2; stroke-linecap: square"/>
    </g>
    <g id="text_18">
     <!-- MI100 -->
     <g transform="translate(504.16875 56.754687) scale(0.1 -0.1)">
      <defs>
       <path id="DejaVuSans-49" d="M 628 4666 
L 1259 4666 
L 1259 0 
L 628 0 
L 628 4666 
z
" transform="scale(0.015625)"/>
      </defs>
      <use xlink:href="#DejaVuSans-4d"/>
      <use xlink:href="#DejaVuSans-49" transform="translate(86.279297 0)"/>
      <use xlink:href="#DejaVuSans-31" transform="translate(115.771484 0)"/>
      <use xlink:href="#DejaVuSans-30" transform="translate(179.394531 0)"/>
      <use xlink:href="#DejaVuSans-30" transform="translate(243.017578 0)"/>
     </g>
    </g>
    <g id="line2d_36">
     <path d="M 476.16875 67.932813 
L 486.16875 67.932813 
L 496.16875 67.932813 
" style="fill: none; stroke: #ffe100; stroke-width: 2; stroke-linecap: square"/>
    </g>
    <g id="text_19">
     <!-- MI210 -->
     <g transform="translate(504.16875 71.432813) scale(0.1 -0.1)">
      <use xlink:href="#DejaVuSans-4d"/>
      <use xlink:href="#DejaVuSans-49" transform="translate(86.279297 0)"/>
      <use xlink:href="#DejaVuSans-32" transform="translate(115.771484 0)"/>
      <use xlink:href="#DejaVuSans-31" transform="translate(179.394531 0)"/>
      <use xlink:href="#DejaVuSans-30" transform="translate(243.017578 0)"/>
     </g>
    </g>
    <g id="line2d_37">
     <path d="M 476.16875 82.610938 
L 486.16875 82.610938 
L 496.16875 82.610938 
" style="fill: none; stroke: #09047f; stroke-width: 2; stroke-linecap: square"/>
    </g>
    <g id="text_20">
     <!-- MI300X -->
     <g transform="translate(504.16875 86.110938) scale(0.1 -0.1)">
      <defs>
       <path id="DejaVuSans-58" d="M 403 4666 
L 1081 4666 
L 2241 2931 
L 3406 4666 
L 4084 4666 
L 2584 2425 
L 4184 0 
L 3506 0 
L 2194 1984 
L 872 0 
L 191 0 
L 1856 2491 
L 403 4666 
z
" transform="scale(0.015625)"/>
      </defs>
      <use xlink:href="#DejaVuSans-4d"/>
      <use xlink:href="#DejaVuSans-49" transform="translate(86.279297 0)"/>
      <use xlink:href="#DejaVuSans-33" transform="translate(115.771484 0)"/>
      <use xlink:href="#DejaVuSans-30" transform="translate(179.394531 0)"/>
      <use xlink:href="#DejaVuSans-30" transform="translate(243.017578 0)"/>
      <use xlink:href="#DejaVuSans-58" transform="translate(306.640625 0)"/>
     </g>
    </g>
    <g id="line2d_38">
     <path d="M 476.16875 97.289062 
L 486.16875 97.289062 
L 496.16875 97.289062 
" style="fill: none; stroke: #296f20; stroke-width: 2; stroke-linecap: square"/>
    </g>
    <g id="text_21">
     <!-- RX6900XT -->
     <g transform="translate(504.16875 100.789062) scale(0.1 -0.1)">
      <defs>
       <path id="DejaVuSans-52" d="M 2841 2188 
Q 3044 2119 3236 1894 
Q 3428 1669 3622 1275 
L 4263 0 
L 3584 0 
L 2988 1197 
Q 2756 1666 2539 1819 
Q 2322 1972 1947 1972 
L 1259 1972 
L 1259 0 
L 628 0 
L 628 4666 
L 2053 4666 
Q 2853 4666 3247 4331 
Q 3641 3997 3641 3322 
Q 3641 2881 3436 2590 
Q 3231 2300 2841 2188 
z
M 1259 4147 
L 1259 2491 
L 2053 2491 
Q 2509 2491 2742 2702 
Q 2975 2913 2975 3322 
Q 2975 3731 2742 3939 
Q 2509 4147 2053 4147 
L 1259 4147 
z
" transform="scale(0.015625)"/>
       <path id="DejaVuSans-39" d="M 703 97 
L 703 672 
Q 941 559 1184 500 
Q 1428 441 1663 441 
Q 2288 441 2617 861 
Q 2947 1281 2994 2138 
Q 2813 1869 2534 1725 
Q 2256 1581 1919 1581 
Q 1219 1581 811 2004 
Q 403 2428 403 3163 
Q 403 3881 828 4315 
Q 1253 4750 1959 4750 
Q 2769 4750 3195 4129 
Q 3622 3509 3622 2328 
Q 3622 1225 3098 567 
Q 2575 -91 1691 -91 
Q 1453 -91 1209 -44 
Q 966 3 703 97 
z
M 1959 2075 
Q 2384 2075 2632 2365 
Q 2881 2656 2881 3163 
Q 2881 3666 2632 3958 
Q 2384 4250 1959 4250 
Q 1534 4250 1286 3958 
Q 1038 3666 1038 3163 
Q 1038 2656 1286 2365 
Q 1534 2075 1959 2075 
z
" transform="scale(0.015625)"/>
       <path id="DejaVuSans-54" d="M -19 4666 
L 3928 4666 
L 3928 4134 
L 2272 4134 
L 2272 0 
L 1638 0 
L 1638 4134 
L -19 4134 
L -19 4666 
z
" transform="scale(0.015625)"/>
      </defs>
      <use xlink:href="#DejaVuSans-52"/>
      <use xlink:href="#DejaVuSans-58" transform="translate(69.482422 0)"/>
      <use xlink:href="#DejaVuSans-36" transform="translate(137.988281 0)"/>
      <use xlink:href="#DejaVuSans-39" transform="translate(201.611328 0)"/>
      <use xlink:href="#DejaVuSans-30" transform="translate(265.234375 0)"/>
      <use xlink:href="#DejaVuSans-30" transform="translate(328.857422 0)"/>
      <use xlink:href="#DejaVuSans-58" transform="translate(392.480469 0)"/>
      <use xlink:href="#DejaVuSans-54" transform="translate(459.236328 0)"/>
     </g>
    </g>
   </g>
  </g>
 </g>
 <defs>
  <clipPath id="p222d66dfc3">
   <rect x="61.05" y="10.8" width="504.15" height="220.425464"/>
  </clipPath>
 </defs>
</svg>
