<?xml version="1.0" encoding="utf-8" standalone="no"?>
<!DOCTYPE svg PUBLIC "-//W3C//DTD SVG 1.1//EN"
  "http://www.w3.org/Graphics/SVG/1.1/DTD/svg11.dtd">
<svg xmlns:xlink="http://www.w3.org/1999/xlink" width="576pt" height="288pt" viewBox="0 0 576 288" xmlns="http://www.w3.org/2000/svg" version="1.1">
 <metadata>
  <rdf:RDF xmlns:dc="http://purl.org/dc/elements/1.1/" xmlns:cc="http://creativecommons.org/ns#" xmlns:rdf="http://www.w3.org/1999/02/22-rdf-syntax-ns#">
   <cc:Work>
    <dc:type rdf:resource="http://purl.org/dc/dcmitype/StillImage"/>
    <dc:date>2025-10-23T23:49:51.837921</dc:date>
    <dc:format>image/svg+xml</dc:format>
    <dc:creator>
     <cc:Agent>
      <dc:title>Matplotlib v3.10.7, https://matplotlib.org/</dc:title>
     </cc:Agent>
    </dc:creator>
   </cc:Work>
  </rdf:RDF>
 </metadata>
 <defs>
  <style type="text/css">*{stroke-linejoin: round; stroke-linecap: butt}</style>
 </defs>
 <g id="figure_1">
  <g id="patch_1">
   <path d="M 0 288 
L 576 288 
L 576 0 
L 0 0 
z
" style="fill: #ffffff"/>
  </g>
  <g id="axes_1">
   <g id="patch_2">
    <path d="M 62.85 235.365464 
L 565.2 235.365464 
L 565.2 10.8 
L 62.85 10.8 
z
" style="fill: #ffffff"/>
   </g>
   <g id="matplotlib.axis_1">
    <g id="xtick_1">
     <g id="line2d_1">
      <path d="M 62.85 235.365464 
L 62.85 10.8 
" clip-path="url(#p0f675f8a8e)" style="fill: none; stroke-dasharray: 1.85,0.8; stroke-dashoffset: 0; stroke: #b2b2b2; stroke-width: 0.5"/>
     </g>
     <g id="line2d_2">
      <defs>
       <path id="ma1942a28b1" d="M 0 0 
L 0 -3.5 
" style="stroke: #000000; stroke-width: 0.8"/>
      </defs>
      <g>
       <use xlink:href="#ma1942a28b1" x="62.85" y="235.365464" style="stroke: #000000; stroke-width: 0.8"/>
      </g>
     </g>
     <g id="text_1">
      <!-- 1 -->
      <g transform="translate(56.30007 248.627154) rotate(-30) scale(0.1 -0.1)">
       <defs>
        <path id="DejaVuSans-31" d="M 794 531 
L 1825 531 
L 1825 4091 
L 703 3866 
L 703 4441 
L 1819 4666 
L 2450 4666 
L 2450 531 
L 3481 531 
L 3481 0 
L 794 0 
L 794 531 
z
" transform="scale(0.015625)"/>
       </defs>
       <use xlink:href="#DejaVuSans-31"/>
      </g>
     </g>
    </g>
    <g id="xtick_2">
     <g id="line2d_3">
      <path d="M 163.32 235.365464 
L 163.32 10.8 
" clip-path="url(#p0f675f8a8e)" style="fill: none; stroke-dasharray: 1.85,0.8; stroke-dashoffset: 0; stroke: #b2b2b2; stroke-width: 0.5"/>
     </g>
     <g id="line2d_4">
      <g>
       <use xlink:href="#ma1942a28b1" x="163.32" y="235.365464" style="stroke: #000000; stroke-width: 0.8"/>
      </g>
     </g>
     <g id="text_2">
      <!-- 4 -->
      <g transform="translate(156.77007 248.627154) rotate(-30) scale(0.1 -0.1)">
       <defs>
        <path id="DejaVuSans-34" d="M 2419 4116 
L 825 1625 
L 2419 1625 
L 2419 4116 
z
M 2253 4666 
L 3047 4666 
L 3047 1625 
L 3713 1625 
L 3713 1100 
L 3047 1100 
L 3047 0 
L 2419 0 
L 2419 1100 
L 313 1100 
L 313 1709 
L 2253 4666 
z
" transform="scale(0.015625)"/>
       </defs>
       <use xlink:href="#DejaVuSans-34"/>
      </g>
     </g>
    </g>
    <g id="xtick_3">
     <g id="line2d_5">
      <path d="M 213.555 235.365464 
L 213.555 10.8 
" clip-path="url(#p0f675f8a8e)" style="fill: none; stroke-dasharray: 1.85,0.8; stroke-dashoffset: 0; stroke: #b2b2b2; stroke-width: 0.5"/>
     </g>
     <g id="line2d_6">
      <g>
       <use xlink:href="#ma1942a28b1" x="213.555" y="235.365464" style="stroke: #000000; stroke-width: 0.8"/>
      </g>
     </g>
     <g id="text_3">
      <!-- 8 -->
      <g transform="translate(207.00507 248.627154) rotate(-30) scale(0.1 -0.1)">
       <defs>
        <path id="DejaVuSans-38" d="M 2034 2216 
Q 1584 2216 1326 1975 
Q 1069 1734 1069 1313 
Q 1069 891 1326 650 
Q 1584 409 2034 409 
Q 2484 409 2743 651 
Q 3003 894 3003 1313 
Q 3003 1734 2745 1975 
Q 2488 2216 2034 2216 
z
M 1403 2484 
Q 997 2584 770 2862 
Q 544 3141 544 3541 
Q 544 4100 942 4425 
Q 1341 4750 2034 4750 
Q 2731 4750 3128 4425 
Q 3525 4100 3525 3541 
Q 3525 3141 3298 2862 
Q 3072 2584 2669 2484 
Q 3125 2378 3379 2068 
Q 3634 1759 3634 1313 
Q 3634 634 3220 271 
Q 2806 -91 2034 -91 
Q 1263 -91 848 271 
Q 434 634 434 1313 
Q 434 1759 690 2068 
Q 947 2378 1403 2484 
z
M 1172 3481 
Q 1172 3119 1398 2916 
Q 1625 2713 2034 2713 
Q 2441 2713 2670 2916 
Q 2900 3119 2900 3481 
Q 2900 3844 2670 4047 
Q 2441 4250 2034 4250 
Q 1625 4250 1398 4047 
Q 1172 3844 1172 3481 
z
" transform="scale(0.015625)"/>
       </defs>
       <use xlink:href="#DejaVuSans-38"/>
      </g>
     </g>
    </g>
    <g id="xtick_4">
     <g id="line2d_7">
      <path d="M 279.962058 235.365464 
L 279.962058 10.8 
" clip-path="url(#p0f675f8a8e)" style="fill: none; stroke-dasharray: 1.85,0.8; stroke-dashoffset: 0; stroke: #b2b2b2; stroke-width: 0.5"/>
     </g>
     <g id="line2d_8">
      <g>
       <use xlink:href="#ma1942a28b1" x="279.962058" y="235.365464" style="stroke: #000000; stroke-width: 0.8"/>
      </g>
     </g>
     <g id="text_4">
      <!-- 20 -->
      <g transform="translate(267.902041 251.808404) rotate(-30) scale(0.1 -0.1)">
       <defs>
        <path id="DejaVuSans-32" d="M 1228 531 
L 3431 531 
L 3431 0 
L 469 0 
L 469 531 
Q 828 903 1448 1529 
Q 2069 2156 2228 2338 
Q 2531 2678 2651 2914 
Q 2772 3150 2772 3378 
Q 2772 3750 2511 3984 
Q 2250 4219 1831 4219 
Q 1534 4219 1204 4116 
Q 875 4013 500 3803 
L 500 4441 
Q 881 4594 1212 4672 
Q 1544 4750 1819 4750 
Q 2544 4750 2975 4387 
Q 3406 4025 3406 3419 
Q 3406 3131 3298 2873 
Q 3191 2616 2906 2266 
Q 2828 2175 2409 1742 
Q 1991 1309 1228 531 
z
" transform="scale(0.015625)"/>
        <path id="DejaVuSans-30" d="M 2034 4250 
Q 1547 4250 1301 3770 
Q 1056 3291 1056 2328 
Q 1056 1369 1301 889 
Q 1547 409 2034 409 
Q 2525 409 2770 889 
Q 3016 1369 3016 2328 
Q 3016 3291 2770 3770 
Q 2525 4250 2034 4250 
z
M 2034 4750 
Q 2819 4750 3233 4129 
Q 3647 3509 3647 2328 
Q 3647 1150 3233 529 
Q 2819 -91 2034 -91 
Q 1250 -91 836 529 
Q 422 1150 422 2328 
Q 422 3509 836 4129 
Q 1250 4750 2034 4750 
z
" transform="scale(0.015625)"/>
       </defs>
       <use xlink:href="#DejaVuSans-32"/>
       <use xlink:href="#DejaVuSans-30" transform="translate(63.623047 0)"/>
      </g>
     </g>
    </g>
    <g id="xtick_5">
     <g id="line2d_9">
      <path d="M 330.197058 235.365464 
L 330.197058 10.8 
" clip-path="url(#p0f675f8a8e)" style="fill: none; stroke-dasharray: 1.85,0.8; stroke-dashoffset: 0; stroke: #b2b2b2; stroke-width: 0.5"/>
     </g>
     <g id="line2d_10">
      <g>
       <use xlink:href="#ma1942a28b1" x="330.197058" y="235.365464" style="stroke: #000000; stroke-width: 0.8"/>
      </g>
     </g>
     <g id="text_5">
      <!-- 40 -->
      <g transform="translate(318.137041 251.808404) rotate(-30) scale(0.1 -0.1)">
       <use xlink:href="#DejaVuSans-34"/>
       <use xlink:href="#DejaVuSans-30" transform="translate(63.623047 0)"/>
      </g>
     </g>
    </g>
    <g id="xtick_6">
     <g id="line2d_11">
      <path d="M 414.495 235.365464 
L 414.495 10.8 
" clip-path="url(#p0f675f8a8e)" style="fill: none; stroke-dasharray: 1.85,0.8; stroke-dashoffset: 0; stroke: #b2b2b2; stroke-width: 0.5"/>
     </g>
     <g id="line2d_12">
      <g>
       <use xlink:href="#ma1942a28b1" x="414.495" y="235.365464" style="stroke: #000000; stroke-width: 0.8"/>
      </g>
     </g>
     <g id="text_6">
      <!-- 128 -->
      <g transform="translate(396.924896 254.989654) rotate(-30) scale(0.1 -0.1)">
       <use xlink:href="#DejaVuSans-31"/>
       <use xlink:href="#DejaVuSans-32" transform="translate(63.623047 0)"/>
       <use xlink:href="#DejaVuSans-38" transform="translate(127.246094 0)"/>
      </g>
     </g>
    </g>
    <g id="xtick_7">
     <g id="line2d_13">
      <path d="M 565.2 235.365464 
L 565.2 10.8 
" clip-path="url(#p0f675f8a8e)" style="fill: none; stroke-dasharray: 1.85,0.8; stroke-dashoffset: 0; stroke: #b2b2b2; stroke-width: 0.5"/>
     </g>
     <g id="line2d_14">
      <g>
       <use xlink:href="#ma1942a28b1" x="565.2" y="235.365464" style="stroke: #000000; stroke-width: 0.8"/>
      </g>
     </g>
     <g id="text_7">
      <!-- 1024 -->
      <g transform="translate(542.11981 258.170904) rotate(-30) scale(0.1 -0.1)">
       <use xlink:href="#DejaVuSans-31"/>
       <use xlink:href="#DejaVuSans-30" transform="translate(63.623047 0)"/>
       <use xlink:href="#DejaVuSans-32" transform="translate(127.246094 0)"/>
       <use xlink:href="#DejaVuSans-34" transform="translate(190.869141 0)"/>
      </g>
     </g>
    </g>
    <g id="text_8">
     <!-- total data volume, MB -->
     <g transform="translate(247.641562 273.090091) scale(0.12 -0.12)">
      <defs>
       <path id="DejaVuSans-74" d="M 1172 4494 
L 1172 3500 
L 2356 3500 
L 2356 3053 
L 1172 3053 
L 1172 1153 
Q 1172 725 1289 603 
Q 1406 481 1766 481 
L 2356 481 
L 2356 0 
L 1766 0 
Q 1100 0 847 248 
Q 594 497 594 1153 
L 594 3053 
L 172 3053 
L 172 3500 
L 594 3500 
L 594 4494 
L 1172 4494 
z
" transform="scale(0.015625)"/>
       <path id="DejaVuSans-6f" d="M 1959 3097 
Q 1497 3097 1228 2736 
Q 959 2375 959 1747 
Q 959 1119 1226 758 
Q 1494 397 1959 397 
Q 2419 397 2687 759 
Q 2956 1122 2956 1747 
Q 2956 2369 2687 2733 
Q 2419 3097 1959 3097 
z
M 1959 3584 
Q 2709 3584 3137 3096 
Q 3566 2609 3566 1747 
Q 3566 888 3137 398 
Q 2709 -91 1959 -91 
Q 1206 -91 779 398 
Q 353 888 353 1747 
Q 353 2609 779 3096 
Q 1206 3584 1959 3584 
z
" transform="scale(0.015625)"/>
       <path id="DejaVuSans-61" d="M 2194 1759 
Q 1497 1759 1228 1600 
Q 959 1441 959 1056 
Q 959 750 1161 570 
Q 1363 391 1709 391 
Q 2188 391 2477 730 
Q 2766 1069 2766 1631 
L 2766 1759 
L 2194 1759 
z
M 3341 1997 
L 3341 0 
L 2766 0 
L 2766 531 
Q 2569 213 2275 61 
Q 1981 -91 1556 -91 
Q 1019 -91 701 211 
Q 384 513 384 1019 
Q 384 1609 779 1909 
Q 1175 2209 1959 2209 
L 2766 2209 
L 2766 2266 
Q 2766 2663 2505 2880 
Q 2244 3097 1772 3097 
Q 1472 3097 1187 3025 
Q 903 2953 641 2809 
L 641 3341 
Q 956 3463 1253 3523 
Q 1550 3584 1831 3584 
Q 2591 3584 2966 3190 
Q 3341 2797 3341 1997 
z
" transform="scale(0.015625)"/>
       <path id="DejaVuSans-6c" d="M 603 4863 
L 1178 4863 
L 1178 0 
L 603 0 
L 603 4863 
z
" transform="scale(0.015625)"/>
       <path id="DejaVuSans-20" transform="scale(0.015625)"/>
       <path id="DejaVuSans-64" d="M 2906 2969 
L 2906 4863 
L 3481 4863 
L 3481 0 
L 2906 0 
L 2906 525 
Q 2725 213 2448 61 
Q 2172 -91 1784 -91 
Q 1150 -91 751 415 
Q 353 922 353 1747 
Q 353 2572 751 3078 
Q 1150 3584 1784 3584 
Q 2172 3584 2448 3432 
Q 2725 3281 2906 2969 
z
M 947 1747 
Q 947 1113 1208 752 
Q 1469 391 1925 391 
Q 2381 391 2643 752 
Q 2906 1113 2906 1747 
Q 2906 2381 2643 2742 
Q 2381 3103 1925 3103 
Q 1469 3103 1208 2742 
Q 947 2381 947 1747 
z
" transform="scale(0.015625)"/>
       <path id="DejaVuSans-76" d="M 191 3500 
L 800 3500 
L 1894 563 
L 2988 3500 
L 3597 3500 
L 2284 0 
L 1503 0 
L 191 3500 
z
" transform="scale(0.015625)"/>
       <path id="DejaVuSans-75" d="M 544 1381 
L 544 3500 
L 1119 3500 
L 1119 1403 
Q 1119 906 1312 657 
Q 1506 409 1894 409 
Q 2359 409 2629 706 
Q 2900 1003 2900 1516 
L 2900 3500 
L 3475 3500 
L 3475 0 
L 2900 0 
L 2900 538 
Q 2691 219 2414 64 
Q 2138 -91 1772 -91 
Q 1169 -91 856 284 
Q 544 659 544 1381 
z
M 1991 3584 
L 1991 3584 
z
" transform="scale(0.015625)"/>
       <path id="DejaVuSans-6d" d="M 3328 2828 
Q 3544 3216 3844 3400 
Q 4144 3584 4550 3584 
Q 5097 3584 5394 3201 
Q 5691 2819 5691 2113 
L 5691 0 
L 5113 0 
L 5113 2094 
Q 5113 2597 4934 2840 
Q 4756 3084 4391 3084 
Q 3944 3084 3684 2787 
Q 3425 2491 3425 1978 
L 3425 0 
L 2847 0 
L 2847 2094 
Q 2847 2600 2669 2842 
Q 2491 3084 2119 3084 
Q 1678 3084 1418 2786 
Q 1159 2488 1159 1978 
L 1159 0 
L 581 0 
L 581 3500 
L 1159 3500 
L 1159 2956 
Q 1356 3278 1631 3431 
Q 1906 3584 2284 3584 
Q 2666 3584 2933 3390 
Q 3200 3197 3328 2828 
z
" transform="scale(0.015625)"/>
       <path id="DejaVuSans-65" d="M 3597 1894 
L 3597 1613 
L 953 1613 
Q 991 1019 1311 708 
Q 1631 397 2203 397 
Q 2534 397 2845 478 
Q 3156 559 3463 722 
L 3463 178 
Q 3153 47 2828 -22 
Q 2503 -91 2169 -91 
Q 1331 -91 842 396 
Q 353 884 353 1716 
Q 353 2575 817 3079 
Q 1281 3584 2069 3584 
Q 2775 3584 3186 3129 
Q 3597 2675 3597 1894 
z
M 3022 2063 
Q 3016 2534 2758 2815 
Q 2500 3097 2075 3097 
Q 1594 3097 1305 2825 
Q 1016 2553 972 2059 
L 3022 2063 
z
" transform="scale(0.015625)"/>
       <path id="DejaVuSans-2c" d="M 750 794 
L 1409 794 
L 1409 256 
L 897 -744 
L 494 -744 
L 750 256 
L 750 794 
z
" transform="scale(0.015625)"/>
       <path id="DejaVuSans-4d" d="M 628 4666 
L 1569 4666 
L 2759 1491 
L 3956 4666 
L 4897 4666 
L 4897 0 
L 4281 0 
L 4281 4097 
L 3078 897 
L 2444 897 
L 1241 4097 
L 1241 0 
L 628 0 
L 628 4666 
z
" transform="scale(0.015625)"/>
       <path id="DejaVuSans-42" d="M 1259 2228 
L 1259 519 
L 2272 519 
Q 2781 519 3026 730 
Q 3272 941 3272 1375 
Q 3272 1813 3026 2020 
Q 2781 2228 2272 2228 
L 1259 2228 
z
M 1259 4147 
L 1259 2741 
L 2194 2741 
Q 2656 2741 2882 2914 
Q 3109 3088 3109 3444 
Q 3109 3797 2882 3972 
Q 2656 4147 2194 4147 
L 1259 4147 
z
M 628 4666 
L 2241 4666 
Q 2963 4666 3353 4366 
Q 3744 4066 3744 3513 
Q 3744 3084 3544 2831 
Q 3344 2578 2956 2516 
Q 3422 2416 3680 2098 
Q 3938 1781 3938 1306 
Q 3938 681 3513 340 
Q 3088 0 2303 0 
L 628 0 
L 628 4666 
z
" transform="scale(0.015625)"/>
      </defs>
      <use xlink:href="#DejaVuSans-74"/>
      <use xlink:href="#DejaVuSans-6f" transform="translate(39.208984 0)"/>
      <use xlink:href="#DejaVuSans-74" transform="translate(100.390625 0)"/>
      <use xlink:href="#DejaVuSans-61" transform="translate(139.599609 0)"/>
      <use xlink:href="#DejaVuSans-6c" transform="translate(200.878906 0)"/>
      <use xlink:href="#DejaVuSans-20" transform="translate(228.662109 0)"/>
      <use xlink:href="#DejaVuSans-64" transform="translate(260.449219 0)"/>
      <use xlink:href="#DejaVuSans-61" transform="translate(323.925781 0)"/>
      <use xlink:href="#DejaVuSans-74" transform="translate(385.205078 0)"/>
      <use xlink:href="#DejaVuSans-61" transform="translate(424.414062 0)"/>
      <use xlink:href="#DejaVuSans-20" transform="translate(485.693359 0)"/>
      <use xlink:href="#DejaVuSans-76" transform="translate(517.480469 0)"/>
      <use xlink:href="#DejaVuSans-6f" transform="translate(576.660156 0)"/>
      <use xlink:href="#DejaVuSans-6c" transform="translate(637.841797 0)"/>
      <use xlink:href="#DejaVuSans-75" transform="translate(665.625 0)"/>
      <use xlink:href="#DejaVuSans-6d" transform="translate(729.003906 0)"/>
      <use xlink:href="#DejaVuSans-65" transform="translate(826.416016 0)"/>
      <use xlink:href="#DejaVuSans-2c" transform="translate(887.939453 0)"/>
      <use xlink:href="#DejaVuSans-20" transform="translate(919.726562 0)"/>
      <use xlink:href="#DejaVuSans-4d" transform="translate(951.513672 0)"/>
      <use xlink:href="#DejaVuSans-42" transform="translate(1037.792969 0)"/>
     </g>
    </g>
   </g>
   <g id="matplotlib.axis_2">
    <g id="ytick_1">
     <g id="line2d_15">
      <path d="M 62.85 235.365464 
L 565.2 235.365464 
" clip-path="url(#p0f675f8a8e)" style="fill: none; stroke-dasharray: 1.85,0.8; stroke-dashoffset: 0; stroke: #b2b2b2; stroke-width: 0.5"/>
     </g>
     <g id="line2d_16">
      <defs>
       <path id="mbfa5a4abb8" d="M 0 0 
L 3.5 0 
" style="stroke: #000000; stroke-width: 0.8"/>
      </defs>
      <g>
       <use xlink:href="#mbfa5a4abb8" x="62.85" y="235.365464" style="stroke: #000000; stroke-width: 0.8"/>
      </g>
     </g>
     <g id="text_9">
      <!-- 0 -->
      <g transform="translate(52.9875 239.164683) scale(0.1 -0.1)">
       <use xlink:href="#DejaVuSans-30"/>
      </g>
     </g>
    </g>
    <g id="ytick_2">
     <g id="line2d_17">
      <path d="M 62.85 188.082671 
L 565.2 188.082671 
" clip-path="url(#p0f675f8a8e)" style="fill: none; stroke-dasharray: 1.85,0.8; stroke-dashoffset: 0; stroke: #b2b2b2; stroke-width: 0.5"/>
     </g>
     <g id="line2d_18">
      <g>
       <use xlink:href="#mbfa5a4abb8" x="62.85" y="188.082671" style="stroke: #000000; stroke-width: 0.8"/>
      </g>
     </g>
     <g id="text_10">
      <!-- 5000 -->
      <g transform="translate(33.9 191.88189) scale(0.1 -0.1)">
       <defs>
        <path id="DejaVuSans-35" d="M 691 4666 
L 3169 4666 
L 3169 4134 
L 1269 4134 
L 1269 2991 
Q 1406 3038 1543 3061 
Q 1681 3084 1819 3084 
Q 2600 3084 3056 2656 
Q 3513 2228 3513 1497 
Q 3513 744 3044 326 
Q 2575 -91 1722 -91 
Q 1428 -91 1123 -41 
Q 819 9 494 109 
L 494 744 
Q 775 591 1075 516 
Q 1375 441 1709 441 
Q 2250 441 2565 725 
Q 2881 1009 2881 1497 
Q 2881 1984 2565 2268 
Q 2250 2553 1709 2553 
Q 1456 2553 1204 2497 
Q 953 2441 691 2322 
L 691 4666 
z
" transform="scale(0.015625)"/>
       </defs>
       <use xlink:href="#DejaVuSans-35"/>
       <use xlink:href="#DejaVuSans-30" transform="translate(63.623047 0)"/>
       <use xlink:href="#DejaVuSans-30" transform="translate(127.246094 0)"/>
       <use xlink:href="#DejaVuSans-30" transform="translate(190.869141 0)"/>
      </g>
     </g>
    </g>
    <g id="ytick_3">
     <g id="line2d_19">
      <path d="M 62.85 140.799878 
L 565.2 140.799878 
" clip-path="url(#p0f675f8a8e)" style="fill: none; stroke-dasharray: 1.85,0.8; stroke-dashoffset: 0; stroke: #b2b2b2; stroke-width: 0.5"/>
     </g>
     <g id="line2d_20">
      <g>
       <use xlink:href="#mbfa5a4abb8" x="62.85" y="140.799878" style="stroke: #000000; stroke-width: 0.8"/>
      </g>
     </g>
     <g id="text_11">
      <!-- 10000 -->
      <g transform="translate(27.5375 144.599097) scale(0.1 -0.1)">
       <use xlink:href="#DejaVuSans-31"/>
       <use xlink:href="#DejaVuSans-30" transform="translate(63.623047 0)"/>
       <use xlink:href="#DejaVuSans-30" transform="translate(127.246094 0)"/>
       <use xlink:href="#DejaVuSans-30" transform="translate(190.869141 0)"/>
       <use xlink:href="#DejaVuSans-30" transform="translate(254.492188 0)"/>
      </g>
     </g>
    </g>
    <g id="ytick_4">
     <g id="line2d_21">
      <path d="M 62.85 93.517085 
L 565.2 93.517085 
" clip-path="url(#p0f675f8a8e)" style="fill: none; stroke-dasharray: 1.85,0.8; stroke-dashoffset: 0; stroke: #b2b2b2; stroke-width: 0.5"/>
     </g>
     <g id="line2d_22">
      <g>
       <use xlink:href="#mbfa5a4abb8" x="62.85" y="93.517085" style="stroke: #000000; stroke-width: 0.8"/>
      </g>
     </g>
     <g id="text_12">
      <!-- 15000 -->
      <g transform="translate(27.5375 97.316304) scale(0.1 -0.1)">
       <use xlink:href="#DejaVuSans-31"/>
       <use xlink:href="#DejaVuSans-35" transform="translate(63.623047 0)"/>
       <use xlink:href="#DejaVuSans-30" transform="translate(127.246094 0)"/>
       <use xlink:href="#DejaVuSans-30" transform="translate(190.869141 0)"/>
       <use xlink:href="#DejaVuSans-30" transform="translate(254.492188 0)"/>
      </g>
     </g>
    </g>
    <g id="ytick_5">
     <g id="line2d_23">
      <path d="M 62.85 46.234292 
L 565.2 46.234292 
" clip-path="url(#p0f675f8a8e)" style="fill: none; stroke-dasharray: 1.85,0.8; stroke-dashoffset: 0; stroke: #b2b2b2; stroke-width: 0.5"/>
     </g>
     <g id="line2d_24">
      <g>
       <use xlink:href="#mbfa5a4abb8" x="62.85" y="46.234292" style="stroke: #000000; stroke-width: 0.8"/>
      </g>
     </g>
     <g id="text_13">
      <!-- 20000 -->
      <g transform="translate(27.5375 50.033511) scale(0.1 -0.1)">
       <use xlink:href="#DejaVuSans-32"/>
       <use xlink:href="#DejaVuSans-30" transform="translate(63.623047 0)"/>
       <use xlink:href="#DejaVuSans-30" transform="translate(127.246094 0)"/>
       <use xlink:href="#DejaVuSans-30" transform="translate(190.869141 0)"/>
       <use xlink:href="#DejaVuSans-30" transform="translate(254.492188 0)"/>
      </g>
     </g>
    </g>
    <g id="text_14">
     <!-- GB/s -->
     <g transform="translate(21.041875 136.995232) rotate(-90) scale(0.12 -0.12)">
      <defs>
       <path id="DejaVuSans-47" d="M 3809 666 
L 3809 1919 
L 2778 1919 
L 2778 2438 
L 4434 2438 
L 4434 434 
Q 4069 175 3628 42 
Q 3188 -91 2688 -91 
Q 1594 -91 976 548 
Q 359 1188 359 2328 
Q 359 3472 976 4111 
Q 1594 4750 2688 4750 
Q 3144 4750 3555 4637 
Q 3966 4525 4313 4306 
L 4313 3634 
Q 3963 3931 3569 4081 
Q 3175 4231 2741 4231 
Q 1884 4231 1454 3753 
Q 1025 3275 1025 2328 
Q 1025 1384 1454 906 
Q 1884 428 2741 428 
Q 3075 428 3337 486 
Q 3600 544 3809 666 
z
" transform="scale(0.015625)"/>
       <path id="DejaVuSans-2f" d="M 1625 4666 
L 2156 4666 
L 531 -594 
L 0 -594 
L 1625 4666 
z
" transform="scale(0.015625)"/>
       <path id="DejaVuSans-73" d="M 2834 3397 
L 2834 2853 
Q 2591 2978 2328 3040 
Q 2066 3103 1784 3103 
Q 1356 3103 1142 2972 
Q 928 2841 928 2578 
Q 928 2378 1081 2264 
Q 1234 2150 1697 2047 
L 1894 2003 
Q 2506 1872 2764 1633 
Q 3022 1394 3022 966 
Q 3022 478 2636 193 
Q 2250 -91 1575 -91 
Q 1294 -91 989 -36 
Q 684 19 347 128 
L 347 722 
Q 666 556 975 473 
Q 1284 391 1588 391 
Q 1994 391 2212 530 
Q 2431 669 2431 922 
Q 2431 1156 2273 1281 
Q 2116 1406 1581 1522 
L 1381 1569 
Q 847 1681 609 1914 
Q 372 2147 372 2553 
Q 372 3047 722 3315 
Q 1072 3584 1716 3584 
Q 2034 3584 2315 3537 
Q 2597 3491 2834 3397 
z
" transform="scale(0.015625)"/>
      </defs>
      <use xlink:href="#DejaVuSans-47"/>
      <use xlink:href="#DejaVuSans-42" transform="translate(77.490234 0)"/>
      <use xlink:href="#DejaVuSans-2f" transform="translate(146.09375 0)"/>
      <use xlink:href="#DejaVuSans-73" transform="translate(179.785156 0)"/>
     </g>
    </g>
   </g>
   <g id="line2d_25">
    <path d="M 92.235591 186.232968 
L 113.085 185.315682 
L 129.257058 187.102972 
L 142.470591 186.325642 
L 153.642475 186.705796 
L 163.32 185.152084 
L 171.856182 186.476002 
L 179.492058 186.562056 
L 186.399547 185.958728 
L 192.705591 186.403186 
L 198.506589 186.309566 
L 203.877475 185.904826 
L 208.877649 186.762535 
L 213.555 184.944039 
L 217.948696 186.180011 
L 222.091182 186.388056 
L 226.009639 186.046674 
L 229.727058 186.359686 
L 236.634547 185.717586 
L 242.940591 186.297273 
L 248.741589 186.061804 
L 254.112475 185.954 
L 259.112649 186.719035 
L 266.020139 186.30011 
L 272.326182 186.485458 
L 278.12718 186.037217 
L 283.498066 186.377654 
L 290.091135 186.306729 
L 296.134116 185.958728 
L 303.041605 185.840521 
L 309.347649 185.909554 
L 316.255139 186.585698 
L 322.561182 186.121381 
L 329.285426 185.846195 
L 335.43841 185.86038 
L 341.884771 185.631531 
L 348.511354 185.81688 
L 355.22669 185.756358 
L 361.959052 185.451856 
L 368.653696 185.983315 
L 375.269931 185.600324 
L 381.778359 185.706238 
L 388.564486 185.786619 
L 395.139949 194.759947 
L 401.845468 225.195881 
L 408.599574 227.045584 
L 415.339364 227.322661 
L 422.017547 227.367107 
L 428.83218 227.368998 
L 435.697424 227.370889 
L 442.547265 227.370889 
L 449.332317 227.382237 
L 456.176122 227.3794 
L 463.011174 227.404933 
L 469.918663 227.403042 
L 476.826153 227.430466 
L 483.679171 227.445596 
L 490.537106 227.432357 
L 497.435582 227.447487 
L 504.310285 227.469238 
L 511.187956 227.490042 
L 518.081888 227.512738 
L 524.933887 227.53827 
L 531.813334 227.564749 
L 538.710624 227.595955 
L 545.613477 227.628108 
L 552.50832 227.664043 
L 559.381306 227.697141 
L 566.288796 227.743478 
L 573.167758 227.786978 
L 577 227.814854 
" clip-path="url(#p0f675f8a8e)" style="fill: none; stroke: #a60628; stroke-width: 2; stroke-linecap: square"/>
   </g>
   <g id="line2d_26">
    <path d="M 92.235591 194.551903 
L 113.085 183.525555 
L 129.257058 184.157254 
L 142.470591 184.109971 
L 153.642475 184.237634 
L 163.32 183.667404 
L 171.856182 184.030536 
L 179.492058 184.415418 
L 186.399547 184.008786 
L 192.705591 184.087275 
L 198.506589 184.639538 
L 203.877475 184.835289 
L 208.877649 184.473103 
L 213.555 183.954883 
L 217.948696 184.384211 
L 222.091182 184.457026 
L 226.009639 184.773821 
L 229.727058 185.58614 
L 236.634547 184.130775 
L 242.940591 183.971905 
L 248.741589 184.093895 
L 254.112475 184.272624 
L 259.112649 184.252765 
L 266.020139 183.84897 
L 272.326182 183.960557 
L 278.12718 185.005507 
L 283.498066 184.545918 
L 290.091135 184.040938 
L 296.134116 184.525114 
L 303.041605 186.470328 
L 309.347649 197.543958 
L 316.255139 201.1157 
L 322.561182 206.957962 
L 329.285426 212.083417 
L 335.43841 214.674514 
L 341.884771 216.201748 
L 348.511354 216.967729 
L 355.22669 217.252372 
L 361.959052 217.449068 
L 368.653696 217.534177 
L 375.269931 217.594699 
L 381.778359 217.616449 
L 388.564486 217.630634 
L 395.139949 217.711015 
L 401.845468 217.595645 
L 408.599574 217.688319 
L 415.339364 217.726145 
L 422.017547 217.785722 
L 428.83218 217.695884 
L 435.697424 217.803689 
L 442.547265 217.814091 
L 449.332317 217.863265 
L 456.176122 217.941755 
L 463.011174 217.980527 
L 469.918663 218.065636 
L 476.826153 218.120484 
L 483.679171 217.623069 
L 490.537106 217.641982 
L 497.435582 218.297321 
L 504.310285 218.455246 
L 511.187956 218.537518 
L 518.081888 218.62641 
L 524.933887 218.698279 
L 531.813334 218.833508 
L 538.710624 219.003726 
L 545.613477 218.939422 
L 552.50832 218.916726 
L 559.381306 218.963063 
L 566.288796 219.029259 
L 573.167758 219.000889 
L 577 218.997734 
" clip-path="url(#p0f675f8a8e)" style="fill: none; stroke: #467821; stroke-width: 2; stroke-linecap: square"/>
   </g>
   <g id="line2d_27">
    <path d="M 42.000591 209.863017 
L 71.386182 209.727788 
L 92.235591 209.896115 
L 108.407649 210.089974 
L 121.621182 210.009593 
L 132.793066 210.746259 
L 142.470591 211.603969 
L 151.006774 210.576987 
L 158.642649 209.950963 
L 165.550139 209.733462 
L 171.856182 209.624711 
L 177.65718 209.623766 
L 183.028066 209.642679 
L 188.02824 209.584048 
L 192.705591 209.67294 
L 197.099287 209.602961 
L 201.241774 209.58594 
L 205.16023 209.584048 
L 208.877649 209.598233 
L 215.785139 209.623766 
L 222.091182 209.638896 
L 227.89218 209.689016 
L 233.263066 209.699418 
L 238.26324 209.776016 
L 245.17073 210.214801 
L 251.476774 210.425682 
L 257.277772 210.76139 
L 262.648657 211.163294 
L 269.241726 211.347696 
L 275.284707 211.758111 
L 282.192196 213.317498 
L 288.49824 214.962939 
L 295.40573 223.01047 
L 301.711774 225.119283 
L 308.436017 223.296058 
L 314.589001 224.872467 
L 321.035362 225.693296 
L 327.661945 223.905061 
L 334.377281 224.241714 
L 341.109643 226.082906 
L 347.804287 226.258798 
L 354.420522 224.942445 
L 360.92895 225.344349 
L 367.715077 225.060652 
L 374.29054 226.307972 
L 380.996059 225.854057 
L 387.750165 226.313646 
L 394.489956 225.916471 
L 401.168138 226.390244 
L 407.982772 226.21908 
L 414.848015 226.037515 
L 421.697856 226.139645 
L 428.482909 226.497103 
L 435.326713 226.211515 
L 442.161765 226.714604 
L 449.069254 226.61531 
L 455.976744 226.338233 
L 462.829762 226.39119 
L 469.687697 226.567082 
L 476.586173 226.887659 
L 483.460876 226.91792 
L 490.338547 227.008703 
L 497.232479 226.669213 
L 504.084478 226.871583 
L 510.963926 227.31415 
L 517.861216 227.052203 
L 524.764068 227.176084 
L 531.658911 227.264976 
L 538.531897 227.714162 
L 545.439387 227.475857 
L 552.318349 227.918424 
L 559.208544 227.933555 
L 566.105549 227.533542 
L 573.001124 226.667321 
L 577 226.621868 
" clip-path="url(#p0f675f8a8e)" style="fill: none; stroke: #cc79a7; stroke-width: 2; stroke-linecap: square"/>
   </g>
   <g id="line2d_28">
    <path d="M 92.235591 189.834026 
L 113.085 189.712036 
L 129.257058 188.504434 
L 142.470591 187.364918 
L 153.642475 187.082167 
L 163.32 187.476506 
L 171.856182 187.10108 
L 179.492058 188.539423 
L 186.399547 189.072773 
L 192.705591 190.889378 
L 198.506589 192.027002 
L 203.877475 192.495101 
L 208.877649 192.533873 
L 213.555 194.329674 
L 217.948696 194.676729 
L 222.091182 195.762342 
L 226.009639 195.210079 
L 229.727058 194.254967 
L 236.634547 194.925437 
L 242.940591 195.288569 
L 248.741589 196.227605 
L 254.112475 196.187887 
L 259.112649 197.312272 
L 266.020139 199.459857 
L 272.326182 200.519937 
L 278.12718 201.35306 
L 283.498066 204.829291 
L 290.091135 211.441316 
L 296.134116 213.816804 
L 303.041605 211.804448 
L 309.347649 219.346999 
L 316.255139 219.298771 
L 322.561182 222.021314 
L 329.285426 213.620107 
L 335.43841 221.389616 
L 341.884771 221.820835 
L 348.511354 216.079758 
L 355.22669 218.621681 
L 361.959052 222.096967 
L 368.653696 222.793915 
L 375.269931 221.591041 
L 381.778359 222.035499 
L 388.564486 222.138575 
L 395.139949 222.511164 
L 401.845468 222.428892 
L 408.599574 222.409979 
L 415.339364 222.452533 
L 422.017547 222.471446 
L 428.83218 222.528186 
L 435.697424 222.45537 
L 442.547265 222.583979 
L 449.332317 222.470501 
L 456.176122 222.529131 
L 463.011174 222.657741 
L 469.918663 222.55561 
L 476.826153 222.576414 
L 483.679171 222.644501 
L 490.537106 222.651121 
L 497.435582 222.717317 
L 504.310285 222.630316 
L 511.187956 222.681382 
L 518.081888 222.775947 
L 524.933887 222.856328 
L 531.813334 222.846872 
L 538.710624 222.885644 
L 545.613477 222.919687 
L 552.50832 222.998177 
L 559.381306 223.061536 
L 566.288796 223.033166 
L 573.167758 223.187308 
L 577 223.288819 
" clip-path="url(#p0f675f8a8e)" style="fill: none; stroke: #56b4e9; stroke-width: 2; stroke-linecap: square"/>
   </g>
   <g id="line2d_29">
    <path d="M 92.235591 191.31776 
L 113.085 186.533687 
L 129.257058 191.813283 
L 142.470591 191.438804 
L 153.642475 192.365546 
L 163.32 191.825577 
L 171.856182 194.725903 
L 179.492058 193.74053 
L 186.399547 196.050767 
L 192.705591 195.891897 
L 198.506589 201.344549 
L 203.877475 204.920074 
L 208.877649 208.392522 
L 213.555 210.938227 
L 217.948696 212.407777 
L 222.091182 213.064062 
L 226.009639 213.943522 
L 229.727058 214.792721 
L 236.634547 215.524658 
L 242.940591 216.130824 
L 248.741589 216.343596 
L 254.112475 216.545967 
L 259.112649 216.568662 
L 266.020139 216.46464 
L 272.326182 216.704837 
L 278.12718 216.635804 
L 283.498066 216.70862 
L 290.091135 216.733207 
L 296.134116 216.743609 
L 303.041605 216.75212 
L 309.347649 216.789 
L 316.255139 216.96111 
L 322.561182 217.187121 
L 329.285426 216.879783 
L 335.43841 216.910044 
L 341.884771 216.895859 
L 348.511354 216.88924 
L 355.22669 217.031088 
L 361.959052 217.096338 
L 368.653696 217.137947 
L 375.269931 217.038653 
L 381.778359 217.056621 
L 388.564486 217.067023 
L 395.139949 217.296817 
L 401.845468 217.382872 
L 408.599574 217.594699 
L 415.339364 217.815983 
L 422.017547 226.638006 
L 428.83218 230.025345 
L 435.697424 230.512358 
L 442.547265 230.600304 
L 449.332317 230.611652 
L 456.176122 230.617326 
L 463.011174 230.623 
L 469.918663 230.628674 
L 476.826153 230.636239 
L 483.679171 230.650424 
L 490.537106 230.675957 
L 497.435582 230.708109 
L 504.310285 230.743098 
L 511.187956 230.759174 
L 518.081888 230.771468 
L 524.933887 230.794164 
L 531.813334 230.81024 
L 538.710624 230.81024 
L 545.613477 230.822533 
L 552.50832 230.837664 
L 559.381306 230.857522 
L 566.288796 230.866033 
L 573.167758 230.90386 
L 577 230.912801 
" clip-path="url(#p0f675f8a8e)" style="fill: none; stroke: #f0e442; stroke-width: 2; stroke-linecap: square"/>
   </g>
   <g id="line2d_30">
    <path d="M 62.85 162.000537 
L 92.235591 164.340089 
L 113.085 165.565659 
L 129.257058 166.27963 
L 142.470591 166.767588 
L 153.642475 167.210155 
L 163.32 168.020582 
L 171.856182 167.93831 
L 179.492058 168.007343 
L 186.399547 168.6589 
L 192.705591 168.432888 
L 198.506589 168.744009 
L 203.877475 168.75252 
L 208.877649 168.784672 
L 213.555 168.84614 
L 217.948696 169.060803 
L 222.091182 169.228185 
L 226.009639 169.320859 
L 229.727058 169.179956 
L 236.634547 169.360576 
L 242.940591 169.240478 
L 248.741589 169.605501 
L 254.112475 169.67548 
L 259.112649 169.679262 
L 266.020139 169.99984 
L 272.326182 169.918513 
L 278.12718 170.360135 
L 283.498066 170.048068 
L 290.091135 169.913785 
L 296.134116 170.188971 
L 303.041605 169.67548 
L 309.347649 169.617795 
L 316.255139 169.875013 
L 322.561182 170.615462 
L 329.285426 181.192622 
L 335.43841 195.144829 
L 341.884771 202.714804 
L 348.511354 209.120677 
L 355.22669 214.143055 
L 361.959052 215.720409 
L 368.653696 216.26889 
L 375.269931 216.452347 
L 381.778359 216.518543 
L 388.564486 216.552586 
L 395.139949 216.548804 
L 401.845468 216.562043 
L 408.599574 216.555423 
L 415.339364 216.556369 
L 422.017547 216.568662 
L 428.83218 216.554478 
L 435.697424 216.567717 
L 442.547265 216.562043 
L 449.332317 216.565825 
L 456.176122 216.546912 
L 463.011174 216.561097 
L 469.918663 216.554478 
L 476.826153 216.563934 
L 483.679171 216.566771 
L 490.537106 216.563934 
L 497.435582 216.553532 
L 504.310285 216.559206 
L 511.187956 216.555423 
L 518.081888 216.561097 
L 524.933887 216.56488 
L 531.813334 216.561097 
L 538.710624 216.560152 
L 545.613477 216.562043 
L 552.50832 216.553532 
L 559.381306 216.566771 
L 566.288796 216.557315 
L 573.167758 216.567717 
L 577 216.565087 
" clip-path="url(#p0f675f8a8e)" style="fill: none; stroke: #a60628; stroke-width: 2; stroke-linecap: square"/>
   </g>
   <g id="line2d_31">
    <path d="M 92.235591 21.290728 
L 113.085 25.989692 
L 129.257058 26.263932 
L 142.470591 24.204294 
L 153.642475 30.617732 
L 163.32 34.397518 
L 171.856182 34.43629 
L 179.492058 35.007466 
L 186.399547 38.933829 
L 192.705591 39.36032 
L 198.506589 41.80484 
L 203.877475 42.630398 
L 208.877649 43.643195 
L 213.555 43.678185 
L 217.948696 45.003048 
L 222.091182 46.025302 
L 226.009639 47.598874 
L 229.727058 47.420145 
L 236.634547 49.842915 
L 242.940591 50.429222 
L 248.741589 51.970641 
L 254.112475 52.317697 
L 259.112649 53.055308 
L 266.020139 54.151323 
L 272.326182 54.742358 
L 278.12718 55.794873 
L 283.498066 56.919258 
L 290.091135 57.6285 
L 296.134116 56.088972 
L 303.041605 56.735801 
L 309.347649 56.018994 
L 316.255139 56.666768 
L 322.561182 56.766062 
L 329.285426 57.271042 
L 335.43841 57.049758 
L 341.884771 57.370336 
L 348.511354 57.758055 
L 355.22669 57.400597 
L 361.959052 56.412386 
L 368.653696 57.468684 
L 375.269931 57.598239 
L 381.778359 58.136317 
L 388.564486 61.500015 
L 395.139949 105.679165 
L 401.845468 117.361798 
L 408.599574 155.042401 
L 415.339364 160.234052 
L 422.017547 160.663379 
L 428.83218 161.520144 
L 435.697424 162.444995 
L 442.547265 162.928225 
L 449.332317 162.969834 
L 456.176122 162.662496 
L 463.011174 162.038363 
L 469.918663 161.968385 
L 476.826153 161.891786 
L 483.679171 161.90408 
L 490.537106 161.89746 
L 497.435582 161.85396 
L 504.310285 161.908808 
L 511.187956 161.893678 
L 518.081888 161.89746 
L 524.933887 161.887058 
L 531.813334 161.914482 
L 538.710624 161.908808 
L 545.613477 161.914482 
L 552.50832 161.908808 
L 559.381306 161.887058 
L 566.288796 161.891786 
L 573.167758 161.891786 
L 577 161.901254 
" clip-path="url(#p0f675f8a8e)" style="fill: none; stroke: #7a68a6; stroke-width: 2; stroke-linecap: square"/>
   </g>
   <g id="line2d_32">
    <path d="M 92.235591 107.450379 
L 113.085 124.298183 
L 129.257058 127.701599 
L 142.470591 130.877111 
L 153.642475 134.117874 
L 163.32 134.944377 
L 171.856182 135.646999 
L 179.492058 135.709413 
L 186.399547 137.726497 
L 192.705591 138.341173 
L 198.506589 138.567185 
L 203.877475 138.607848 
L 208.877649 138.549217 
L 213.555 138.417771 
L 217.948696 140.092528 
L 222.091182 140.401757 
L 226.009639 141.587609 
L 229.727058 140.000799 
L 236.634547 141.60936 
L 242.940591 143.485541 
L 248.741589 142.363993 
L 254.112475 142.346971 
L 259.112649 141.553566 
L 266.020139 143.020278 
L 272.326182 142.934223 
L 278.12718 141.887382 
L 283.498066 143.26142 
L 290.091135 143.004202 
L 296.134116 143.87326 
L 303.041605 142.880321 
L 309.347649 142.983398 
L 316.255139 144.310153 
L 322.561182 145.742821 
L 329.285426 143.958369 
L 335.43841 149.260661 
L 341.884771 164.039371 
L 348.511354 174.208954 
L 355.22669 187.573908 
L 361.959052 193.152332 
L 368.653696 195.635624 
L 375.269931 197.37374 
L 381.778359 198.042319 
L 388.564486 198.332635 
L 395.139949 198.451788 
L 401.845468 198.552973 
L 408.599574 198.580397 
L 415.339364 198.59931 
L 422.017547 198.596473 
L 428.83218 198.59931 
L 435.697424 198.596473 
L 442.547265 198.593636 
L 449.332317 198.604984 
L 456.176122 198.59269 
L 463.011174 198.602147 
L 469.918663 198.596473 
L 476.826153 198.593636 
L 483.679171 198.601201 
L 490.537106 198.604984 
L 497.435582 198.590799 
L 504.310285 198.59269 
L 511.187956 198.601201 
L 518.081888 198.582288 
L 524.933887 198.596473 
L 531.813334 198.602147 
L 538.710624 198.59269 
L 545.613477 198.595527 
L 552.50832 198.59931 
L 559.381306 198.59931 
L 566.288796 198.590799 
L 573.167758 198.593636 
L 577 198.59311 
" clip-path="url(#p0f675f8a8e)" style="fill: none; stroke: #d55e00; stroke-width: 2; stroke-linecap: square"/>
   </g>
   <g id="patch_3">
    <path d="M 62.85 235.365464 
L 62.85 10.8 
" style="fill: none; stroke: #bcbcbc; stroke-width: 0.8; stroke-linejoin: miter; stroke-linecap: square"/>
   </g>
   <g id="patch_4">
    <path d="M 565.2 235.365464 
L 565.2 10.8 
" style="fill: none; stroke: #bcbcbc; stroke-width: 0.8; stroke-linejoin: miter; stroke-linecap: square"/>
   </g>
   <g id="patch_5">
    <path d="M 62.85 235.365464 
L 565.2 235.365464 
" style="fill: none; stroke: #bcbcbc; stroke-width: 0.8; stroke-linejoin: miter; stroke-linecap: square"/>
   </g>
   <g id="patch_6">
    <path d="M 62.85 10.8 
L 565.2 10.8 
" style="fill: none; stroke: #bcbcbc; stroke-width: 0.8; stroke-linejoin: miter; stroke-linecap: square"/>
   </g>
   <g id="legend_1">
    <g id="patch_7">
     <path d="M 472.310937 136.78125 
L 558.2 136.78125 
Q 560.2 136.78125 560.2 134.78125 
L 560.2 17.8 
Q 560.2 15.8 558.2 15.8 
L 472.310937 15.8 
Q 470.310937 15.8 470.310937 17.8 
L 470.310937 134.78125 
Q 470.310937 136.78125 472.310937 136.78125 
z
" style="fill: #ffffff; opacity: 0.8; stroke: #cccccc; stroke-width: 0.5; stroke-linejoin: miter"/>
    </g>
    <g id="line2d_33">
     <path d="M 474.310937 23.898438 
L 484.310937 23.898438 
L 494.310937 23.898438 
" style="fill: none; stroke: #a60628; stroke-width: 2; stroke-linecap: square"/>
    </g>
    <g id="text_15">
     <!-- L40 -->
     <g transform="translate(502.310937 27.398438) scale(0.1 -0.1)">
      <defs>
       <path id="DejaVuSans-4c" d="M 628 4666 
L 1259 4666 
L 1259 531 
L 3531 531 
L 3531 0 
L 628 0 
L 628 4666 
z
" transform="scale(0.015625)"/>
      </defs>
      <use xlink:href="#DejaVuSans-4c"/>
      <use xlink:href="#DejaVuSans-34" transform="translate(55.712891 0)"/>
      <use xlink:href="#DejaVuSans-30" transform="translate(119.335938 0)"/>
     </g>
    </g>
    <g id="line2d_34">
     <path d="M 474.310937 38.576563 
L 484.310937 38.576563 
L 494.310937 38.576563 
" style="fill: none; stroke: #467821; stroke-width: 2; stroke-linecap: square"/>
    </g>
    <g id="text_16">
     <!-- A100_80 -->
     <g transform="translate(502.310937 42.076563) scale(0.1 -0.1)">
      <defs>
       <path id="DejaVuSans-41" d="M 2188 4044 
L 1331 1722 
L 3047 1722 
L 2188 4044 
z
M 1831 4666 
L 2547 4666 
L 4325 0 
L 3669 0 
L 3244 1197 
L 1141 1197 
L 716 0 
L 50 0 
L 1831 4666 
z
" transform="scale(0.015625)"/>
       <path id="DejaVuSans-5f" d="M 3263 -1063 
L 3263 -1509 
L -63 -1509 
L -63 -1063 
L 3263 -1063 
z
" transform="scale(0.015625)"/>
      </defs>
      <use xlink:href="#DejaVuSans-41"/>
      <use xlink:href="#DejaVuSans-31" transform="translate(68.408203 0)"/>
      <use xlink:href="#DejaVuSans-30" transform="translate(132.03125 0)"/>
      <use xlink:href="#DejaVuSans-30" transform="translate(195.654297 0)"/>
      <use xlink:href="#DejaVuSans-5f" transform="translate(259.277344 0)"/>
      <use xlink:href="#DejaVuSans-38" transform="translate(309.277344 0)"/>
      <use xlink:href="#DejaVuSans-30" transform="translate(372.900391 0)"/>
     </g>
    </g>
    <g id="line2d_35">
     <path d="M 474.310937 53.532812 
L 484.310937 53.532812 
L 494.310937 53.532812 
" style="fill: none; stroke: #cc79a7; stroke-width: 2; stroke-linecap: square"/>
    </g>
    <g id="text_17">
     <!-- MI100 -->
     <g transform="translate(502.310937 57.032812) scale(0.1 -0.1)">
      <defs>
       <path id="DejaVuSans-49" d="M 628 4666 
L 1259 4666 
L 1259 0 
L 628 0 
L 628 4666 
z
" transform="scale(0.015625)"/>
      </defs>
      <use xlink:href="#DejaVuSans-4d"/>
      <use xlink:href="#DejaVuSans-49" transform="translate(86.279297 0)"/>
      <use xlink:href="#DejaVuSans-31" transform="translate(115.771484 0)"/>
      <use xlink:href="#DejaVuSans-30" transform="translate(179.394531 0)"/>
      <use xlink:href="#DejaVuSans-30" transform="translate(243.017578 0)"/>
     </g>
    </g>
    <g id="line2d_36">
     <path d="M 474.310937 68.210938 
L 484.310937 68.210938 
L 494.310937 68.210938 
" style="fill: none; stroke: #56b4e9; stroke-width: 2; stroke-linecap: square"/>
    </g>
    <g id="text_18">
     <!-- MI210 -->
     <g transform="translate(502.310937 71.710938) scale(0.1 -0.1)">
      <use xlink:href="#DejaVuSans-4d"/>
      <use xlink:href="#DejaVuSans-49" transform="translate(86.279297 0)"/>
      <use xlink:href="#DejaVuSans-32" transform="translate(115.771484 0)"/>
      <use xlink:href="#DejaVuSans-31" transform="translate(179.394531 0)"/>
      <use xlink:href="#DejaVuSans-30" transform="translate(243.017578 0)"/>
     </g>
    </g>
    <g id="line2d_37">
     <path d="M 474.310937 82.889062 
L 484.310937 82.889062 
L 494.310937 82.889062 
" style="fill: none; stroke: #f0e442; stroke-width: 2; stroke-linecap: square"/>
    </g>
    <g id="text_19">
     <!-- RX6900XT -->
     <g transform="translate(502.310937 86.389062) scale(0.1 -0.1)">
      <defs>
       <path id="DejaVuSans-52" d="M 2841 2188 
Q 3044 2119 3236 1894 
Q 3428 1669 3622 1275 
L 4263 0 
L 3584 0 
L 2988 1197 
Q 2756 1666 2539 1819 
Q 2322 1972 1947 1972 
L 1259 1972 
L 1259 0 
L 628 0 
L 628 4666 
L 2053 4666 
Q 2853 4666 3247 4331 
Q 3641 3997 3641 3322 
Q 3641 2881 3436 2590 
Q 3231 2300 2841 2188 
z
M 1259 4147 
L 1259 2491 
L 2053 2491 
Q 2509 2491 2742 2702 
Q 2975 2913 2975 3322 
Q 2975 3731 2742 3939 
Q 2509 4147 2053 4147 
L 1259 4147 
z
" transform="scale(0.015625)"/>
       <path id="DejaVuSans-58" d="M 403 4666 
L 1081 4666 
L 2241 2931 
L 3406 4666 
L 4084 4666 
L 2584 2425 
L 4184 0 
L 3506 0 
L 2194 1984 
L 872 0 
L 191 0 
L 1856 2491 
L 403 4666 
z
" transform="scale(0.015625)"/>
       <path id="DejaVuSans-36" d="M 2113 2584 
Q 1688 2584 1439 2293 
Q 1191 2003 1191 1497 
Q 1191 994 1439 701 
Q 1688 409 2113 409 
Q 2538 409 2786 701 
Q 3034 994 3034 1497 
Q 3034 2003 2786 2293 
Q 2538 2584 2113 2584 
z
M 3366 4563 
L 3366 3988 
Q 3128 4100 2886 4159 
Q 2644 4219 2406 4219 
Q 1781 4219 1451 3797 
Q 1122 3375 1075 2522 
Q 1259 2794 1537 2939 
Q 1816 3084 2150 3084 
Q 2853 3084 3261 2657 
Q 3669 2231 3669 1497 
Q 3669 778 3244 343 
Q 2819 -91 2113 -91 
Q 1303 -91 875 529 
Q 447 1150 447 2328 
Q 447 3434 972 4092 
Q 1497 4750 2381 4750 
Q 2619 4750 2861 4703 
Q 3103 4656 3366 4563 
z
" transform="scale(0.015625)"/>
       <path id="DejaVuSans-39" d="M 703 97 
L 703 672 
Q 941 559 1184 500 
Q 1428 441 1663 441 
Q 2288 441 2617 861 
Q 2947 1281 2994 2138 
Q 2813 1869 2534 1725 
Q 2256 1581 1919 1581 
Q 1219 1581 811 2004 
Q 403 2428 403 3163 
Q 403 3881 828 4315 
Q 1253 4750 1959 4750 
Q 2769 4750 3195 4129 
Q 3622 3509 3622 2328 
Q 3622 1225 3098 567 
Q 2575 -91 1691 -91 
Q 1453 -91 1209 -44 
Q 966 3 703 97 
z
M 1959 2075 
Q 2384 2075 2632 2365 
Q 2881 2656 2881 3163 
Q 2881 3666 2632 3958 
Q 2384 4250 1959 4250 
Q 1534 4250 1286 3958 
Q 1038 3666 1038 3163 
Q 1038 2656 1286 2365 
Q 1534 2075 1959 2075 
z
" transform="scale(0.015625)"/>
       <path id="DejaVuSans-54" d="M -19 4666 
L 3928 4666 
L 3928 4134 
L 2272 4134 
L 2272 0 
L 1638 0 
L 1638 4134 
L -19 4134 
L -19 4666 
z
" transform="scale(0.015625)"/>
      </defs>
      <use xlink:href="#DejaVuSans-52"/>
      <use xlink:href="#DejaVuSans-58" transform="translate(69.482422 0)"/>
      <use xlink:href="#DejaVuSans-36" transform="translate(137.988281 0)"/>
      <use xlink:href="#DejaVuSans-39" transform="translate(201.611328 0)"/>
      <use xlink:href="#DejaVuSans-30" transform="translate(265.234375 0)"/>
      <use xlink:href="#DejaVuSans-30" transform="translate(328.857422 0)"/>
      <use xlink:href="#DejaVuSans-58" transform="translate(392.480469 0)"/>
      <use xlink:href="#DejaVuSans-54" transform="translate(459.236328 0)"/>
     </g>
    </g>
    <g id="line2d_38">
     <path d="M 474.310937 97.567187 
L 484.310937 97.567187 
L 494.310937 97.567187 
" style="fill: none; stroke: #a60628; stroke-width: 2; stroke-linecap: square"/>
    </g>
    <g id="text_20">
     <!-- H100_PCIE -->
     <g transform="translate(502.310937 101.067187) scale(0.1 -0.1)">
      <defs>
       <path id="DejaVuSans-48" d="M 628 4666 
L 1259 4666 
L 1259 2753 
L 3553 2753 
L 3553 4666 
L 4184 4666 
L 4184 0 
L 3553 0 
L 3553 2222 
L 1259 2222 
L 1259 0 
L 628 0 
L 628 4666 
z
" transform="scale(0.015625)"/>
       <path id="DejaVuSans-50" d="M 1259 4147 
L 1259 2394 
L 2053 2394 
Q 2494 2394 2734 2622 
Q 2975 2850 2975 3272 
Q 2975 3691 2734 3919 
Q 2494 4147 2053 4147 
L 1259 4147 
z
M 628 4666 
L 2053 4666 
Q 2838 4666 3239 4311 
Q 3641 3956 3641 3272 
Q 3641 2581 3239 2228 
Q 2838 1875 2053 1875 
L 1259 1875 
L 1259 0 
L 628 0 
L 628 4666 
z
" transform="scale(0.015625)"/>
       <path id="DejaVuSans-43" d="M 4122 4306 
L 4122 3641 
Q 3803 3938 3442 4084 
Q 3081 4231 2675 4231 
Q 1875 4231 1450 3742 
Q 1025 3253 1025 2328 
Q 1025 1406 1450 917 
Q 1875 428 2675 428 
Q 3081 428 3442 575 
Q 3803 722 4122 1019 
L 4122 359 
Q 3791 134 3420 21 
Q 3050 -91 2638 -91 
Q 1578 -91 968 557 
Q 359 1206 359 2328 
Q 359 3453 968 4101 
Q 1578 4750 2638 4750 
Q 3056 4750 3426 4639 
Q 3797 4528 4122 4306 
z
" transform="scale(0.015625)"/>
       <path id="DejaVuSans-45" d="M 628 4666 
L 3578 4666 
L 3578 4134 
L 1259 4134 
L 1259 2753 
L 3481 2753 
L 3481 2222 
L 1259 2222 
L 1259 531 
L 3634 531 
L 3634 0 
L 628 0 
L 628 4666 
z
" transform="scale(0.015625)"/>
      </defs>
      <use xlink:href="#DejaVuSans-48"/>
      <use xlink:href="#DejaVuSans-31" transform="translate(75.195312 0)"/>
      <use xlink:href="#DejaVuSans-30" transform="translate(138.818359 0)"/>
      <use xlink:href="#DejaVuSans-30" transform="translate(202.441406 0)"/>
      <use xlink:href="#DejaVuSans-5f" transform="translate(266.064453 0)"/>
      <use xlink:href="#DejaVuSans-50" transform="translate(316.064453 0)"/>
      <use xlink:href="#DejaVuSans-43" transform="translate(376.367188 0)"/>
      <use xlink:href="#DejaVuSans-49" transform="translate(446.191406 0)"/>
      <use xlink:href="#DejaVuSans-45" transform="translate(475.683594 0)"/>
     </g>
    </g>
    <g id="line2d_39">
     <path d="M 474.310937 112.523438 
L 484.310937 112.523438 
L 494.310937 112.523438 
" style="fill: none; stroke: #7a68a6; stroke-width: 2; stroke-linecap: square"/>
    </g>
    <g id="text_21">
     <!-- GB200 -->
     <g transform="translate(502.310937 116.023438) scale(0.1 -0.1)">
      <use xlink:href="#DejaVuSans-47"/>
      <use xlink:href="#DejaVuSans-42" transform="translate(77.490234 0)"/>
      <use xlink:href="#DejaVuSans-32" transform="translate(146.09375 0)"/>
      <use xlink:href="#DejaVuSans-30" transform="translate(209.716797 0)"/>
      <use xlink:href="#DejaVuSans-30" transform="translate(273.339844 0)"/>
     </g>
    </g>
    <g id="line2d_40">
     <path d="M 474.310937 127.201562 
L 484.310937 127.201562 
L 494.310937 127.201562 
" style="fill: none; stroke: #d55e00; stroke-width: 2; stroke-linecap: square"/>
    </g>
    <g id="text_22">
     <!-- H200 -->
     <g transform="translate(502.310937 130.701562) scale(0.1 -0.1)">
      <use xlink:href="#DejaVuSans-48"/>
      <use xlink:href="#DejaVuSans-32" transform="translate(75.195312 0)"/>
      <use xlink:href="#DejaVuSans-30" transform="translate(138.818359 0)"/>
      <use xlink:href="#DejaVuSans-30" transform="translate(202.441406 0)"/>
     </g>
    </g>
   </g>
  </g>
 </g>
 <defs>
  <clipPath id="p0f675f8a8e">
   <rect x="62.85" y="10.8" width="502.35" height="224.565464"/>
  </clipPath>
 </defs>
</svg>
